<?xml version="1.0" encoding="UTF-8" standalone="no"?>
<!-- Created with Inkscape (http://www.inkscape.org/) -->

<svg
   width="68.791664mm"
   height="55.562504mm"
   viewBox="0 0 68.791664 55.562504"
   version="1.1"
   id="svg1"
   inkscape:version="1.3.2 (091e20e, 2023-11-25, custom)"
   sodipodi:docname="TankZeichnung_gross.svg"
   xmlns:inkscape="http://www.inkscape.org/namespaces/inkscape"
   xmlns:sodipodi="http://sodipodi.sourceforge.net/DTD/sodipodi-0.dtd"
   xmlns="http://www.w3.org/2000/svg"
   xmlns:svg="http://www.w3.org/2000/svg">
  <sodipodi:namedview
     id="namedview1"
     pagecolor="#ffffff"
     bordercolor="#666666"
     borderopacity="1.0"
     inkscape:showpageshadow="2"
     inkscape:pageopacity="0.0"
     inkscape:pagecheckerboard="0"
     inkscape:deskcolor="#d1d1d1"
     inkscape:document-units="mm"
     showgrid="true"
     inkscape:zoom="1"
     inkscape:cx="318"
     inkscape:cy="246.5"
     inkscape:window-width="1920"
     inkscape:window-height="1009"
     inkscape:window-x="1913"
     inkscape:window-y="-8"
     inkscape:window-maximized="1"
     inkscape:current-layer="layer1"
     inkscape:export-bgcolor="#ffffffff">
    <inkscape:grid
       id="grid1"
       units="px"
       originx="-48.94791"
       originy="-30.427083"
       spacingx="0.26458333"
       spacingy="0.26458334"
       empcolor="#3f3fff"
       empopacity="0.25098039"
       color="#3f3fff"
       opacity="0.1254902"
       empspacing="5"
       dotted="false"
       gridanglex="30"
       gridanglez="30"
       visible="true" />
  </sodipodi:namedview>
  <defs
     id="defs1" />
  <g
     inkscape:label="Ebene 1"
     inkscape:groupmode="layer"
     id="layer1"
     transform="translate(-48.947911,-30.427083)">
    <rect
       style="fill:#ffffff;fill-opacity:1;stroke:none;stroke-width:0.066;stroke-linejoin:round"
       id="rect1"
       width="68.791664"
       height="55.5625"
       x="48.947914"
       y="30.427084" />
    <g
       id="g1"
       transform="matrix(12.192023,0,0,12.192023,-565.70512,-369.65349)"
       inkscape:export-filename="one_tank.svg"
       inkscape:export-xdpi="2248.6536"
       inkscape:export-ydpi="2248.6536">
      <path
         id="rect4-9-0"
         style="fill:#0000ff;fill-opacity:0.846154;stroke-width:0.0209171;stroke-linejoin:round;stroke-dasharray:none"
         d="m 50.8,33.072917 v 0.529166 h 1.322917 v 0.264584 h 0.529166 v -0.264584 -0.529166 z"
         inkscape:export-filename="one_tank.svg"
         inkscape:export-xdpi="2248.6536"
         inkscape:export-ydpi="2248.6536" />
      <path
         id="rect4-8"
         style="fill:#0000ff;fill-opacity:0.846154;stroke-width:0.0276707;stroke-linejoin:round;stroke-dasharray:none"
         d="m 51.59375,35.454167 v 1.5875 h 2.645833 v -0.06615 H 54.76875 V 36.5125 h -0.529167 v -1.058333 z" />
      <path
         style="fill:none;fill-rule:evenodd;stroke:#000000;stroke-width:0.132292;stroke-linecap:butt;stroke-linejoin:round;stroke-dasharray:none;stroke-opacity:1"
         d="m 51.593747,34.395833 v 2.645833 h 2.645833 0.529167"
         id="path1" />
      <path
         style="fill:none;fill-rule:evenodd;stroke:#000000;stroke-width:0.132292;stroke-linecap:butt;stroke-linejoin:round;stroke-dasharray:none;stroke-opacity:1"
         d="M 54.768747,36.5125 H 54.23958 v -2.116667"
         id="path2" />
      <path
         style="fill:none;fill-rule:evenodd;stroke:#000000;stroke-width:0.132292;stroke-linecap:butt;stroke-linejoin:round;stroke-dasharray:none;stroke-opacity:1"
         d="m 50.799997,33.602083 h 1.322916 l 2e-6,0.264585"
         id="path3" />
      <path
         style="fill:none;fill-rule:evenodd;stroke:#000000;stroke-width:0.132292;stroke-linecap:butt;stroke-linejoin:round;stroke-dasharray:none;stroke-opacity:1"
         d="m 50.799997,33.072916 h 1.852083 l 0.01016,0.793753"
         id="path4" />
      <g
         id="path5">
        <path
           style="color:#000000;fill:#000000;fill-rule:evenodd;-inkscape-stroke:none"
           d="m 51.064582,35.521345 -2e-6,1.469706"
           id="path23" />
        <path
           style="color:#000000;fill:#000000;fill-rule:evenodd;-inkscape-stroke:none"
           d="m 51.025391,35.521484 v 1.46875 h 0.07813 v -1.46875 z"
           id="path24" />
        <g
           id="g21">
          <path
             style="color:#000000;fill:#000000;-inkscape-stroke:none"
             d="m 50.861328,36.751953 -0.05469,0.05469 0.257812,0.257812 0.257813,-0.257812 -0.05469,-0.05469 -0.203125,0.203125 z"
             id="path22" />
          <path
             style="color:#000000;fill:#000000;-inkscape-stroke:none"
             d="m 51.064453,35.447266 -0.257812,0.257812 0.05469,0.05469 0.203125,-0.203125 0.203125,0.203125 0.05469,-0.05469 z"
             id="path21" />
        </g>
      </g>
      <path
         style="fill:none;fill-rule:evenodd;stroke:#000000;stroke-width:0.0661458;stroke-linecap:butt;stroke-linejoin:miter;stroke-dasharray:none;stroke-opacity:1"
         d="m 50.799997,37.041666 0.503224,-2e-6"
         id="path7" />
      <path
         style="fill:none;fill-rule:evenodd;stroke:#000000;stroke-width:0.0661458;stroke-linecap:butt;stroke-linejoin:miter;stroke-dasharray:none;stroke-opacity:1"
         d="m 50.799997,35.454166 h 0.529166"
         id="path8" />
      <g
         id="path9">
        <path
           style="color:#000000;fill:#000000;fill-rule:evenodd;-inkscape-stroke:none"
           d="m 54.404297,36.744141 v 0.06641 h 0.74414 v -0.06641 z"
           id="path20" />
        <g
           id="g19">
          <path
             style="color:#000000;fill:#000000;-inkscape-stroke:none"
             d="m 54.990234,36.554687 -0.04687,0.04687 0.175782,0.175782 -0.175782,0.173828 0.04687,0.04687 0.222657,-0.220703 z"
             id="path19" />
        </g>
      </g>
      <path
         style="color:#000000;fill:#000000;fill-rule:evenodd;-inkscape-stroke:none"
         d="m 52.355469,33.601562 v 0.794922 h 0.06445 v -0.794922 z"
         id="path18" />
      <g
         id="g12">
        <path
           style="color:#000000;fill:#000000;-inkscape-stroke:none"
           d="m 52.212891,34.191406 -0.04687,0.04687 0.220703,0.220703 0.222656,-0.220703 -0.04687,-0.04687 -0.175781,0.173828 z"
           id="path17" />
      </g>
      <g
         inkscape:label=""
         transform="matrix(0.24917467,0,0,0.24917467,50.545384,36.145251)"
         id="g11">
        <g
           fill="#000000"
           fill-opacity="1"
           id="g2"
           transform="matrix(0.352778,0,0,0.352778,-0.868451,-0.682228)">
          <g
             id="use1"
             transform="translate(1.993,4.1370001)">
            <path
               d="m 3.09375,-1.953125 c -0.234375,0.0625 -0.234375,0.28125 -0.234375,0.296875 0,0.078125 0.0625,0.203125 0.234375,0.203125 0.140625,0 0.3125,-0.125 0.3125,-0.34375 0,-0.296875 -0.328125,-0.40625 -0.59375,-0.40625 -0.328125,0 -0.546875,0.203125 -0.640625,0.34375 -0.15625,-0.28125 -0.484375,-0.34375 -0.65625,-0.34375 -0.625,0 -0.984375,0.59375 -0.984375,0.765625 0,0.078125 0.078125,0.078125 0.109375,0.078125 0.046875,0 0.078125,0 0.109375,-0.0625 0.140625,-0.484375 0.546875,-0.609375 0.734375,-0.609375 0.171875,0 0.359375,0.0625 0.359375,0.328125 0,0.125 -0.09375,0.46875 -0.265625,1.140625 -0.0625,0.28125 -0.296875,0.453125 -0.515625,0.453125 -0.03125,0 -0.171875,0 -0.296875,-0.078125 0.21875,-0.09375 0.21875,-0.28125 0.21875,-0.296875 0,-0.140625 -0.109375,-0.203125 -0.21875,-0.203125 -0.125,0 -0.296875,0.09375 -0.296875,0.328125 0,0.3125 0.328125,0.421875 0.59375,0.421875 0.265625,0 0.5,-0.171875 0.609375,-0.34375 C 1.875,0.015625 2.1875,0.0625 2.34375,0.0625 c 0.625,0 0.984375,-0.59375 0.984375,-0.78125 0,-0.0625 -0.078125,-0.0625 -0.109375,-0.0625 -0.078125,0 -0.09375,0.03125 -0.109375,0.0625 C 2.96875,-0.265625 2.59375,-0.109375 2.375,-0.109375 c -0.15625,0 -0.359375,-0.0625 -0.359375,-0.34375 0,-0.0625 0,-0.09375 0.03125,-0.265625 0.09375,-0.34375 0.21875,-0.890625 0.265625,-0.984375 0.0625,-0.125 0.234375,-0.328125 0.484375,-0.328125 0.015625,0 0.1875,0 0.296875,0.078125 z m 0,0"
               id="path11" />
          </g>
        </g>
      </g>
      <g
         inkscape:label=""
         transform="matrix(0.19695955,0,0,0.19695955,52.683567,33.998958)"
         id="g16">
        <g
           fill="#000000"
           fill-opacity="1"
           id="g6"
           transform="matrix(0.352778,0,0,0.352778,-0.896011,-0.703307)">
          <g
             id="use5"
             transform="translate(1.993,5.7280002)">
            <path
               d="M 1.5625,-3.265625 C 1.59375,-3.34375 1.59375,-3.34375 1.59375,-3.375 c 0,-0.078125 -0.078125,-0.078125 -0.15625,-0.078125 L 0.828125,-3.40625 c -0.09375,0 -0.09375,0 -0.125,0.03125 -0.015625,0.015625 -0.03125,0.078125 -0.03125,0.109375 0,0.078125 0.078125,0.078125 0.140625,0.078125 0.015625,0 0.09375,0 0.171875,0.015625 0.09375,0.015625 0.109375,0.03125 0.109375,0.0625 0,0.03125 -0.0625,0.234375 -0.09375,0.34375 L 0.59375,-1.09375 C 0.5625,-1 0.546875,-0.921875 0.546875,-0.8125 c 0,0.515625 0.375,0.875 0.859375,0.875 0.71875,0 1.40625,-0.703125 1.40625,-1.390625 0,-0.5 -0.359375,-0.875 -0.875,-0.875 -0.21875,0 -0.453125,0.078125 -0.703125,0.265625 z m -0.15625,3.15625 c -0.203125,0 -0.453125,-0.140625 -0.453125,-0.53125 0,-0.171875 0.03125,-0.328125 0.078125,-0.5 0.015625,-0.0625 0.09375,-0.375 0.109375,-0.40625 C 1.15625,-1.59375 1.5,-2.03125 1.921875,-2.03125 c 0.21875,0 0.4375,0.125 0.4375,0.5 0,0.1875 -0.09375,0.65625 -0.25,0.953125 -0.171875,0.28125 -0.453125,0.46875 -0.703125,0.46875 z m 0,0"
               id="path12" />
          </g>
          <g
             id="use6"
             transform="translate(5.1476569,5.7280002)">
            <path
               d="m 4.1875,-2.78125 c 0.046875,-0.046875 0.046875,-0.0625 0.109375,-0.125 0.078125,-0.109375 0.234375,-0.25 0.546875,-0.28125 0.0625,0 0.140625,0 0.140625,-0.125 0,-0.03125 -0.015625,-0.09375 -0.078125,-0.09375 -0.078125,0 -0.15625,0.015625 -0.21875,0.015625 -0.078125,0 -0.15625,0 -0.234375,0 -0.09375,0 -0.1875,0 -0.28125,0 -0.078125,0 -0.1875,-0.015625 -0.28125,-0.015625 -0.078125,0 -0.125,0.0625 -0.125,0.140625 0,0.078125 0.09375,0.078125 0.125,0.078125 0.078125,0.015625 0.203125,0.03125 0.203125,0.125 0,0.046875 -0.015625,0.109375 -0.09375,0.203125 L 2.25,-0.46875 1.671875,-3 c 0,-0.0625 0,-0.0625 0,-0.078125 0,-0.078125 0.15625,-0.109375 0.328125,-0.109375 0.0625,0 0.140625,0 0.140625,-0.125 0,-0.046875 -0.015625,-0.09375 -0.078125,-0.09375 -0.109375,0 -0.234375,0.015625 -0.34375,0.015625 -0.109375,0 -0.234375,0 -0.34375,0 -0.109375,0 -0.21875,0 -0.328125,0 -0.09375,0 -0.203125,-0.015625 -0.296875,-0.015625 -0.03125,0 -0.109375,0 -0.109375,0.140625 0,0.078125 0.0625,0.078125 0.15625,0.078125 0.296875,0 0.296875,0.046875 0.328125,0.140625 l 0.671875,3.015625 c 0.03125,0.09375 0.046875,0.140625 0.171875,0.140625 0.0625,0 0.125,0 0.203125,-0.109375 z m 0,0"
               id="path13" />
          </g>
        </g>
        <g
           fill="#000000"
           fill-opacity="1"
           id="g7"
           transform="matrix(0.352778,0,0,0.352778,-0.896011,-0.703307)">
          <g
             id="use7"
             transform="translate(10.655,5.7280002)">
            <path
               d="m 2.203125,-3.625 c 0,0 0.015625,-0.015625 0.015625,-0.046875 0,-0.015625 -0.015625,-0.0625 -0.09375,-0.0625 -0.09375,0 -1.375,0.796875 -1.375,2.484375 0,1.6875 1.28125,2.5 1.375,2.5 0.078125,0 0.09375,-0.046875 0.09375,-0.078125 C 2.21875,1.140625 2.1875,1.125 2.171875,1.109375 1.296875,0.40625 1.125,-0.609375 1.125,-1.25 c 0,-1.21875 0.5625,-2.015625 1.078125,-2.375 z m 0,0"
               id="path14" />
          </g>
        </g>
        <g
           fill="#000000"
           fill-opacity="1"
           id="g8"
           transform="matrix(0.352778,0,0,0.352778,-0.896011,-0.703307)">
          <g
             id="use8"
             transform="translate(13.353,5.7280002)">
            <path
               d="m 1.5625,-1.921875 h 0.59375 c 0.109375,0 0.109375,0 0.125,-0.03125 C 2.3125,-1.96875 2.328125,-2.03125 2.328125,-2.0625 2.328125,-2.140625 2.25,-2.140625 2.171875,-2.140625 H 1.625 L 1.71875,-2.5625 C 1.75,-2.6875 1.8125,-2.921875 1.8125,-2.953125 1.8125,-3.03125 1.75,-3.125 1.625,-3.125 c -0.078125,0 -0.203125,0.0625 -0.234375,0.1875 -0.03125,0.09375 0.03125,-0.140625 -0.203125,0.796875 H 0.59375 c -0.09375,0 -0.171875,0 -0.171875,0.125 0,0.09375 0.0625,0.09375 0.15625,0.09375 H 1.125 L 0.84375,-0.75 c -0.03125,0.109375 -0.078125,0.265625 -0.078125,0.328125 0,0.28125 0.265625,0.484375 0.625,0.484375 0.59375,0 0.96875,-0.6875 0.96875,-0.78125 0,-0.0625 -0.09375,-0.0625 -0.109375,-0.0625 -0.078125,0 -0.09375,0.015625 -0.109375,0.078125 -0.171875,0.359375 -0.46875,0.59375 -0.734375,0.59375 -0.15625,0 -0.203125,-0.125 -0.203125,-0.265625 0,-0.078125 0,-0.09375 0.015625,-0.140625 z m 0,0"
               id="path15" />
          </g>
        </g>
        <g
           fill="#000000"
           fill-opacity="1"
           id="g9"
           transform="matrix(0.352778,0,0,0.352778,-0.896011,-0.703307)">
          <g
             id="use9"
             transform="translate(16.160999,5.7280002)">
            <path
               d="m 1.953125,-1.25 c 0,-1.6875 -1.28125,-2.484375 -1.390625,-2.484375 -0.078125,0 -0.078125,0.0625 -0.078125,0.0625 0,0.015625 0,0.03125 0.03125,0.0625 0.75,0.59375 1.046875,1.46875 1.046875,2.359375 0,0.453125 -0.078125,0.921875 -0.25,1.328125 C 1.078125,0.640625 0.75,0.921875 0.515625,1.125 0.5,1.125 0.484375,1.15625 0.484375,1.171875 c 0,0.015625 0,0.078125 0.078125,0.078125 0.109375,0 1.390625,-0.796875 1.390625,-2.5 z m 0,0"
               id="path16" />
          </g>
        </g>
      </g>
      <g
         inkscape:label=""
         transform="matrix(0.22577628,0,0,0.22577628,54.951527,36.163142)"
         id="g31">
        <g
           fill="#000000"
           fill-opacity="1"
           id="g4"
           transform="matrix(0.352778,0,0,0.352778,-0.884987,-0.800365)">
          <g
             id="use3"
             transform="translate(1.993,6.0640001)">
            <path
               d="m 2.875,-1.609375 c 0.03125,-0.109375 0.078125,-0.296875 0.078125,-0.3125 0,-0.09375 -0.0625,-0.1875 -0.1875,-0.1875 -0.078125,0 -0.203125,0.0625 -0.25,0.203125 -0.09375,-0.125 -0.28125,-0.296875 -0.59375,-0.296875 -0.703125,0 -1.40625,0.6875 -1.40625,1.390625 0,0.515625 0.375,0.875 0.875,0.875 0.40625,0 0.734375,-0.296875 0.796875,-0.359375 0.078125,0.25 0.359375,0.359375 0.578125,0.359375 0.203125,0 0.34375,-0.125 0.4375,-0.28125 0.140625,-0.203125 0.203125,-0.46875 0.203125,-0.5 0,-0.0625 -0.078125,-0.0625 -0.109375,-0.0625 -0.078125,0 -0.09375,0.03125 -0.109375,0.109375 -0.09375,0.359375 -0.21875,0.5625 -0.390625,0.5625 -0.140625,0 -0.203125,-0.109375 -0.203125,-0.265625 0,-0.078125 0.046875,-0.265625 0.078125,-0.40625 z M 2.21875,-0.65625 c -0.03125,0.0625 -0.03125,0.078125 -0.109375,0.171875 -0.1875,0.21875 -0.453125,0.375 -0.703125,0.375 -0.171875,0 -0.4375,-0.09375 -0.4375,-0.515625 0,-0.234375 0.125,-0.75 0.296875,-1.015625 0.1875,-0.265625 0.453125,-0.390625 0.65625,-0.390625 0.21875,0 0.4375,0.125 0.515625,0.4375 z m 0,0"
               id="path26" />
          </g>
        </g>
        <g
           fill="#000000"
           fill-opacity="1"
           id="g5"
           transform="matrix(0.352778,0,0,0.352778,-0.884987,-0.800365)">
          <g
             id="use4"
             transform="translate(5.8499999,2.55)">
            <path
               d="M 2.671875,4.15625 1.5625,2.21875 C 1.515625,2.15625 1.515625,2.140625 1.46875,2.140625 1.4375,2.140625 1.328125,2.1875 1.265625,2.234375 L 0.78125,2.515625 C 0.75,2.53125 0.71875,2.5625 0.71875,2.609375 0.71875,2.640625 0.75,2.6875 0.796875,2.6875 0.828125,2.6875 0.9375,2.625 1,2.59375 L 1.203125,2.46875 2.4375,4.625 c 0.046875,0.078125 0.046875,0.078125 0.125,0.078125 0.09375,0 0.125,-0.03125 0.15625,-0.09375 L 5.5625,-0.03125 c 0.046875,-0.0625 0.046875,-0.078125 0.046875,-0.109375 0,-0.078125 -0.0625,-0.140625 -0.140625,-0.140625 -0.078125,0 -0.109375,0.0625 -0.140625,0.109375 z m 0,0"
               id="path27" />
          </g>
        </g>
        <path
           fill="none"
           stroke-width="0.279"
           stroke-linecap="butt"
           stroke-linejoin="miter"
           stroke="#000000"
           stroke-opacity="1"
           stroke-miterlimit="10"
           d="M 8.8077812,0.1414063 H 12.753094"
           id="path28"
           transform="scale(0.352778)" />
        <g
           fill="#000000"
           fill-opacity="1"
           id="g30"
           transform="matrix(0.352778,0,0,0.352778,-0.884987,-0.800365)">
          <g
             id="g29"
             transform="translate(11.316,6.0640001)">
            <path
               d="m 3.09375,-1.953125 c -0.234375,0.0625 -0.234375,0.28125 -0.234375,0.296875 0,0.078125 0.0625,0.203125 0.234375,0.203125 0.140625,0 0.3125,-0.125 0.3125,-0.34375 0,-0.296875 -0.328125,-0.40625 -0.59375,-0.40625 -0.328125,0 -0.546875,0.203125 -0.640625,0.34375 -0.15625,-0.28125 -0.484375,-0.34375 -0.65625,-0.34375 -0.625,0 -0.984375,0.59375 -0.984375,0.765625 0,0.078125 0.078125,0.078125 0.109375,0.078125 0.046875,0 0.078125,0 0.109375,-0.0625 0.140625,-0.484375 0.546875,-0.609375 0.734375,-0.609375 0.171875,0 0.359375,0.0625 0.359375,0.328125 0,0.125 -0.09375,0.46875 -0.265625,1.140625 -0.0625,0.28125 -0.296875,0.453125 -0.515625,0.453125 -0.03125,0 -0.171875,0 -0.296875,-0.078125 0.21875,-0.09375 0.21875,-0.28125 0.21875,-0.296875 0,-0.140625 -0.109375,-0.203125 -0.21875,-0.203125 -0.125,0 -0.296875,0.09375 -0.296875,0.328125 0,0.3125 0.328125,0.421875 0.59375,0.421875 0.265625,0 0.5,-0.171875 0.609375,-0.34375 C 1.875,0.015625 2.1875,0.0625 2.34375,0.0625 c 0.625,0 0.984375,-0.59375 0.984375,-0.78125 0,-0.0625 -0.078125,-0.0625 -0.109375,-0.0625 -0.078125,0 -0.09375,0.03125 -0.109375,0.0625 C 2.96875,-0.265625 2.59375,-0.109375 2.375,-0.109375 c -0.15625,0 -0.359375,-0.0625 -0.359375,-0.34375 0,-0.0625 0,-0.09375 0.03125,-0.265625 0.09375,-0.34375 0.21875,-0.890625 0.265625,-0.984375 0.0625,-0.125 0.234375,-0.328125 0.484375,-0.328125 0.015625,0 0.1875,0 0.296875,0.078125 z m 0,0"
               id="path29" />
          </g>
        </g>
      </g>
    </g>
  </g>
</svg>
