<?xml version="1.0" encoding="UTF-8" standalone="no"?>
<!DOCTYPE svg PUBLIC "-//W3C//DTD SVG 1.1//EN"
 "http://www.w3.org/Graphics/SVG/1.1/DTD/svg11.dtd">
<!-- Generated by graphviz version 16.1.0 (0)
 -->
<!-- Title: HybridSystem Pages: 1 -->
<svg width="193pt" height="663pt"
 viewBox="0.00 0.00 193.00 663.00" xmlns="http://www.w3.org/2000/svg" xmlns:xlink="http://www.w3.org/1999/xlink">
<g id="graph0" class="graph" transform="scale(1 1) rotate(0) translate(15.84 646.84)">
<title>HybridSystem</title>
<polygon fill="#102832" stroke="none" points="-15.84,15.84 -15.84,-646.84 177.16,-646.84 177.16,15.84 -15.84,15.84"/>
<!-- start -->
<g id="node1" class="node">
<title>start</title>
<ellipse fill="#edf7fa" stroke="#edf7fa" stroke-width="1.5" cx="54.59" cy="-629.2" rx="1.8" ry="1.8"/>
</g>
<!-- location_0 -->
<g id="node2" class="node">
<title>location_0</title>
<path fill="#9a4b21" stroke="#9a4b21" stroke-width="1.5" d="M91.55,-578.4C91.55,-578.4 17.62,-578.4 17.62,-578.4 11.62,-578.4 5.62,-572.4 5.62,-566.4 5.62,-566.4 5.62,-540.12 5.62,-540.12 5.62,-534.12 11.62,-528.12 17.62,-528.12 17.62,-528.12 91.55,-528.12 91.55,-528.12 97.55,-528.12 103.55,-534.12 103.55,-540.12 103.55,-540.12 103.55,-566.4 103.55,-566.4 103.55,-572.4 97.55,-578.4 91.55,-578.4"/>
<text xml:space="preserve" text-anchor="middle" x="54.59" y="-557.41" font-family="DejaVu Sans" font-size="13.00" fill="#ffffff">No</text>
<text xml:space="preserve" text-anchor="middle" x="54.59" y="-540.91" font-family="DejaVu Sans" font-size="13.00" fill="#ffffff">generation</text>
</g>
<!-- start&#45;&gt;location_0 -->
<g id="edge1" class="edge">
<title>start&#45;&gt;location_0</title>
<path fill="none" stroke="#edf7fa" d="M54.59,-626.66C54.59,-621.46 54.59,-604.04 54.59,-587.59"/>
<polygon fill="#edf7fa" stroke="#edf7fa" points="57.04,-587.65 54.59,-580.65 52.14,-587.65 57.04,-587.65"/>
</g>
<!-- location_1 -->
<g id="node3" class="node">
<title>location_1</title>
<path fill="#9a6c04" stroke="#9a6c04" stroke-width="1.5" d="M91.55,-454.62C91.55,-454.62 17.62,-454.62 17.62,-454.62 11.62,-454.62 5.62,-448.62 5.62,-442.62 5.62,-442.62 5.62,-416.34 5.62,-416.34 5.62,-410.34 11.62,-404.34 17.62,-404.34 17.62,-404.34 91.55,-404.34 91.55,-404.34 97.55,-404.34 103.55,-410.34 103.55,-416.34 103.55,-416.34 103.55,-442.62 103.55,-442.62 103.55,-448.62 97.55,-454.62 91.55,-454.62"/>
<text xml:space="preserve" text-anchor="middle" x="54.59" y="-433.63" font-family="DejaVu Sans" font-size="13.00" fill="#ffffff">Gradual</text>
<text xml:space="preserve" text-anchor="middle" x="54.59" y="-417.13" font-family="DejaVu Sans" font-size="13.00" fill="#ffffff">generation</text>
</g>
<!-- location_0&#45;&gt;location_1 -->
<g id="edge2" class="edge">
<title>location_0&#45;&gt;location_1</title>
<path fill="none" stroke="#edf7fa" d="M20.52,-527.43C13.75,-520.69 7.58,-512.82 3.84,-504.12 -0.64,-493.71 -0.64,-489.03 3.84,-478.62 6.52,-472.36 10.47,-466.54 14.99,-461.26"/>
<polygon fill="#edf7fa" stroke="#edf7fa" points="16.52,-463.22 19.49,-456.42 12.93,-459.88 16.52,-463.22"/>
<text xml:space="preserve" text-anchor="middle" x="38.71" y="-494.62" font-family="DejaVu Sans" font-size="10.00" fill="#edf7fa"> &#160;speed_1_up &#160;</text>
<text xml:space="preserve" text-anchor="middle" x="38.71" y="-481.87" font-family="DejaVu Sans" font-size="10.00" fill="#edf7fa"> &#160;rising &#160;</text>
</g>
<!-- location_1&#45;&gt;location_0 -->
<g id="edge3" class="edge">
<title>location_1&#45;&gt;location_0</title>
<path fill="none" stroke="#edf7fa" d="M67.73,-455.32C70.95,-462.62 73.95,-470.77 75.59,-478.62 77.9,-489.71 77.9,-493.03 75.59,-504.12 74.51,-509.27 72.85,-514.55 70.93,-519.64"/>
<polygon fill="#edf7fa" stroke="#edf7fa" points="68.7,-518.62 68.3,-526.02 73.23,-520.48 68.7,-518.62"/>
<text xml:space="preserve" text-anchor="middle" x="119.32" y="-494.62" font-family="DejaVu Sans" font-size="10.00" fill="#edf7fa"> &#160;speed_1_down &#160;</text>
<text xml:space="preserve" text-anchor="middle" x="119.32" y="-481.87" font-family="DejaVu Sans" font-size="10.00" fill="#edf7fa"> &#160;falling &#160;</text>
</g>
<!-- location_2 -->
<g id="node4" class="node">
<title>location_2</title>
<path fill="#237d72" stroke="#237d72" stroke-width="1.5" d="M75.8,-330.84C75.8,-330.84 33.38,-330.84 33.38,-330.84 27.38,-330.84 21.38,-324.84 21.38,-318.84 21.38,-318.84 21.38,-276.06 21.38,-276.06 21.38,-270.06 27.38,-264.06 33.38,-264.06 33.38,-264.06 75.8,-264.06 75.8,-264.06 81.8,-264.06 87.8,-270.06 87.8,-276.06 87.8,-276.06 87.8,-318.84 87.8,-318.84 87.8,-324.84 81.8,-330.84 75.8,-330.84"/>
<text xml:space="preserve" text-anchor="middle" x="54.59" y="-309.85" font-family="DejaVu Sans" font-size="13.00" fill="#ffffff">Below</text>
<text xml:space="preserve" text-anchor="middle" x="54.59" y="-293.35" font-family="DejaVu Sans" font-size="13.00" fill="#ffffff">rated</text>
<text xml:space="preserve" text-anchor="middle" x="54.59" y="-276.85" font-family="DejaVu Sans" font-size="13.00" fill="#ffffff">power</text>
</g>
<!-- location_1&#45;&gt;location_2 -->
<g id="edge4" class="edge">
<title>location_1&#45;&gt;location_2</title>
<path fill="none" stroke="#edf7fa" d="M20.52,-403.65C13.75,-396.91 7.58,-389.04 3.84,-380.34 -0.64,-369.93 -0.23,-365.42 3.84,-354.84 6.57,-347.71 10.68,-340.91 15.38,-334.66"/>
<polygon fill="#edf7fa" stroke="#edf7fa" points="17.24,-336.27 19.74,-329.29 13.43,-333.18 17.24,-336.27"/>
<text xml:space="preserve" text-anchor="middle" x="38.71" y="-370.84" font-family="DejaVu Sans" font-size="10.00" fill="#edf7fa"> &#160;speed_2_up &#160;</text>
<text xml:space="preserve" text-anchor="middle" x="38.71" y="-358.09" font-family="DejaVu Sans" font-size="10.00" fill="#edf7fa"> &#160;rising &#160;</text>
</g>
<!-- location_2&#45;&gt;location_1 -->
<g id="edge5" class="edge">
<title>location_2&#45;&gt;location_1</title>
<path fill="none" stroke="#edf7fa" d="M70.09,-331.36C75.28,-346.25 78.97,-364.1 75.59,-380.34 74.51,-385.49 72.85,-390.77 70.93,-395.86"/>
<polygon fill="#edf7fa" stroke="#edf7fa" points="68.7,-394.84 68.3,-402.24 73.23,-396.7 68.7,-394.84"/>
<text xml:space="preserve" text-anchor="middle" x="118.89" y="-370.84" font-family="DejaVu Sans" font-size="10.00" fill="#edf7fa"> &#160;speed_2_down &#160;</text>
<text xml:space="preserve" text-anchor="middle" x="118.89" y="-358.09" font-family="DejaVu Sans" font-size="10.00" fill="#edf7fa"> &#160;falling &#160;</text>
</g>
<!-- location_3 -->
<g id="node5" class="node">
<title>location_3</title>
<path fill="#7253ad" stroke="#7253ad" stroke-width="1.5" d="M97.17,-190.56C97.17,-190.56 12,-190.56 12,-190.56 6,-190.56 0,-184.56 0,-178.56 0,-178.56 0,-135.78 0,-135.78 0,-129.78 6,-123.78 12,-123.78 12,-123.78 97.17,-123.78 97.17,-123.78 103.17,-123.78 109.17,-129.78 109.17,-135.78 109.17,-135.78 109.17,-178.56 109.17,-178.56 109.17,-184.56 103.17,-190.56 97.17,-190.56"/>
<text xml:space="preserve" text-anchor="middle" x="54.59" y="-169.57" font-family="DejaVu Sans" font-size="13.00" fill="#ffffff">Approaching</text>
<text xml:space="preserve" text-anchor="middle" x="54.59" y="-153.07" font-family="DejaVu Sans" font-size="13.00" fill="#ffffff">rated</text>
<text xml:space="preserve" text-anchor="middle" x="54.59" y="-136.57" font-family="DejaVu Sans" font-size="13.00" fill="#ffffff">power</text>
</g>
<!-- location_2&#45;&gt;location_3 -->
<g id="edge6" class="edge">
<title>location_2&#45;&gt;location_3</title>
<path fill="none" stroke="#edf7fa" d="M20.7,-266.79C13.82,-258.86 7.56,-249.77 3.84,-240.06 -1.78,-225.43 3.51,-210.55 12.48,-197.55"/>
<polygon fill="#edf7fa" stroke="#edf7fa" points="14.29,-199.21 16.55,-192.14 10.38,-196.26 14.29,-199.21"/>
<text xml:space="preserve" text-anchor="middle" x="38.71" y="-230.56" font-family="DejaVu Sans" font-size="10.00" fill="#edf7fa"> &#160;speed_3_up &#160;</text>
<text xml:space="preserve" text-anchor="middle" x="38.71" y="-217.81" font-family="DejaVu Sans" font-size="10.00" fill="#edf7fa"> &#160;rising &#160;</text>
</g>
<!-- location_3&#45;&gt;location_2 -->
<g id="edge7" class="edge">
<title>location_3&#45;&gt;location_2</title>
<path fill="none" stroke="#edf7fa" d="M69.04,-191.01C71.75,-198.6 74.18,-206.75 75.59,-214.56 78.02,-228.08 75.87,-242.65 72.16,-255.71"/>
<polygon fill="#edf7fa" stroke="#edf7fa" points="69.89,-254.76 70.13,-262.18 74.56,-256.23 69.89,-254.76"/>
<text xml:space="preserve" text-anchor="middle" x="118.62" y="-230.56" font-family="DejaVu Sans" font-size="10.00" fill="#edf7fa"> &#160;speed_3_down &#160;</text>
<text xml:space="preserve" text-anchor="middle" x="118.62" y="-217.81" font-family="DejaVu Sans" font-size="10.00" fill="#edf7fa"> &#160;falling &#160;</text>
</g>
<!-- location_4 -->
<g id="node6" class="node">
<title>location_4</title>
<path fill="#b03860" stroke="#b03860" stroke-width="1.5" d="M75.8,-50.28C75.8,-50.28 33.38,-50.28 33.38,-50.28 27.38,-50.28 21.38,-44.28 21.38,-38.28 21.38,-38.28 21.38,-12 21.38,-12 21.38,-6 27.38,0 33.38,0 33.38,0 75.8,0 75.8,0 81.8,0 87.8,-6 87.8,-12 87.8,-12 87.8,-38.28 87.8,-38.28 87.8,-44.28 81.8,-50.28 75.8,-50.28"/>
<text xml:space="preserve" text-anchor="middle" x="54.59" y="-29.29" font-family="DejaVu Sans" font-size="13.00" fill="#ffffff">Rated</text>
<text xml:space="preserve" text-anchor="middle" x="54.59" y="-12.79" font-family="DejaVu Sans" font-size="13.00" fill="#ffffff">power</text>
</g>
<!-- location_3&#45;&gt;location_4 -->
<g id="edge8" class="edge">
<title>location_3&#45;&gt;location_4</title>
<path fill="none" stroke="#edf7fa" d="M17.87,-123.13C12.13,-116.04 7.04,-108.14 3.84,-99.78 -0.23,-89.2 -0.64,-84.69 3.84,-74.28 6.56,-67.94 10.57,-62.05 15.16,-56.72"/>
<polygon fill="#edf7fa" stroke="#edf7fa" points="16.75,-58.6 19.75,-51.82 13.18,-55.25 16.75,-58.6"/>
<text xml:space="preserve" text-anchor="middle" x="38.71" y="-90.28" font-family="DejaVu Sans" font-size="10.00" fill="#edf7fa"> &#160;speed_4_up &#160;</text>
<text xml:space="preserve" text-anchor="middle" x="38.71" y="-77.53" font-family="DejaVu Sans" font-size="10.00" fill="#edf7fa"> &#160;rising &#160;</text>
</g>
<!-- location_4&#45;&gt;location_3 -->
<g id="edge9" class="edge">
<title>location_4&#45;&gt;location_3</title>
<path fill="none" stroke="#edf7fa" d="M67.73,-50.98C70.95,-58.28 73.95,-66.43 75.59,-74.28 78.39,-87.73 76.34,-102.28 72.61,-115.34"/>
<polygon fill="#edf7fa" stroke="#edf7fa" points="70.33,-114.4 70.55,-121.82 75,-115.89 70.33,-114.4"/>
<text xml:space="preserve" text-anchor="middle" x="118.89" y="-90.28" font-family="DejaVu Sans" font-size="10.00" fill="#edf7fa"> &#160;speed_4_down &#160;</text>
<text xml:space="preserve" text-anchor="middle" x="118.89" y="-77.53" font-family="DejaVu Sans" font-size="10.00" fill="#edf7fa"> &#160;falling &#160;</text>
</g>
</g>
</svg>
