<?xml version="1.0" encoding="UTF-8"?>
<svg id="flowcean_Logo_Weiß" data-name="flowcean Logo Weiß" xmlns="http://www.w3.org/2000/svg" version="1.1" viewBox="0 0 120.7 120.7">
  <defs>
    <style>
      .cls-1 {
        fill: #fff;
        stroke-width: 0px;
      }
    </style>
  </defs>
  <polygon class="cls-1" points="60.83 41.44 42.27 30.54 42.27 51.89 60.83 62.58 60.83 41.44"/>
  <path class="cls-1" d="M119.77,49.86c0-.09-.01-.17-.03-.26-.05-.38-.13-.76-.22-1.14-1.89-9.45-6.01-18.1-11.76-25.4l.03-.03c-.1-.13-.22-.23-.32-.34C96.39,8.88,79.39,0,60.35,0,27.07,0,0,27.07,0,60.35c0,4.77.57,9.4,1.62,13.85.38,1.99,1,4.11,1.86,6.38h.02c2.31,6.46,5.69,12.43,9.94,17.67,0,.01.01.03.02.04h0c11.07,13.65,27.97,22.4,46.88,22.4,20.99,0,39.96-11.07,50.82-27.91,2-2.7,3.68-5.66,4.67-8.77,1.99-4.63,3.43-9.56,4.2-14.72.44-2.94.66-5.95.66-8.94,0-3.58-.33-7.08-.93-10.49ZM90.28,10.28h0c4.7,2.83,8.96,6.29,12.68,10.27-.17-.02-.33-.03-.46-.04-7.92-.54-17.17,3.84-25.55,8.61l-14.68-8.48c9.25-5.6,19.22-10.94,28.01-10.36ZM2.02,60.33l-.02.02C2,28.17,28.17,2,60.35,2c9.51,0,18.49,2.3,26.43,6.36-9.26.83-19.18,6.66-28.21,12.21l-15.75,9.17,18.5,10.86,4.06-2.38.02.03c1.82-1.03,3.75-2.19,5.8-3.42.82-.49,1.67-1,2.52-1.51l3.25-1.91c8.38-4.83,17.7-9.43,25.4-8.91,1.19.08,2.43.33,3.52,1.41,4.44,5.54,7.9,11.9,10.09,18.82-2.08-1.93-4.8-3.25-7.59-3.44-9.42-.65-19.72,5.09-29.03,10.64v-18.79l-17.54,10.29v20.99l10.7-6.19.03.05c1.83-1.04,3.72-2.17,5.73-3.38.09-.06.19-.11.28-.17l.79-.46v-.02c9.33-5.58,19.74-11.59,28.9-10.98,4.19.29,8.29,3.73,9.32,7.61.08.41.15.82.22,1.23,1.08,9.94-8.15,19.94-16.44,25.51-10.44,7.01-22.12,9.43-32.04,6.64-8.92-2.5-15.81-8.9-22.47-15.09-1.39-1.29-2.78-2.58-4.18-3.83-4.62-4.13-10.84-9.03-17.91-10.31-6.29-1.14-13.68.93-18.38,5.15-1.92,1.72-3.33,3.85-4.2,6.18-.09-1.33-.15-2.67-.15-4.03ZM109.49,91.7l-.02.02c-2.88,3.86-6.48,7.15-9.65,9.39-9.72,6.87-20.96,9.12-30.07,6-6.72-2.3-12.2-7.26-17.69-12.57l-.83-.8c-4.47-4.33-9.09-8.82-14.54-11.99-6.12-3.56-11.62-4.74-16.36-3.52-3.67.95-6.61,3.31-8.08,6.48-.77,1.67-1.36,4.11-.85,7.35-1.9-2.92-3.55-6-4.9-9.25-.83-5.54,1.45-9.14,3.53-11.18,3.62-3.57,9.58-5.35,14.85-4.45,6.73,1.16,12.41,5.62,17.08,9.83,1.38,1.24,2.74,2.52,4.11,3.8,6.77,6.35,13.78,12.93,23.07,15.56,2.85.81,5.83,1.2,8.88,1.2,8.08,0,16.65-2.79,24.51-8.12,3.81-2.59,9.77-7.16,13.87-12.83-1.58,5.4-3.93,10.46-6.91,15.08ZM118.06,69c-.03.21-.08.42-.11.63-2.9,8.01-11.61,14.82-16.56,18.18-10.33,7-21.89,9.42-31.71,6.64-8.83-2.5-15.65-8.9-22.25-15.09-1.38-1.29-2.75-2.58-4.14-3.83-4.88-4.4-10.85-9.08-18.08-10.32-5.87-1.01-12.54,1-16.59,4.99-1.63,1.6-3.36,4.03-4.02,7.39-.32-1.05-.61-2.11-.88-3.18-.28-1.31-.47-2.57-.54-3.77-.24-4.18,1.4-8.18,4.51-10.96,4.27-3.83,10.98-5.7,16.69-4.67,6.58,1.19,12.51,5.88,16.93,9.84,1.39,1.24,2.77,2.52,4.15,3.8,6.84,6.35,13.91,12.92,23.29,15.56,2.87.81,5.88,1.2,8.96,1.2,8.16,0,16.81-2.79,24.74-8.11,6.71-4.5,13.49-11.27,16.19-18.81.02.62.05,1.24.05,1.86,0,2.9-.21,5.81-.64,8.65h.01Z"/>
</svg>
