<?xml version="1.0" encoding="UTF-8" standalone="no"?>
<!-- Created with Inkscape (http://www.inkscape.org/) -->

<svg
   version="1.1"
   id="svg1"
   width="541"
   height="160.93333"
   viewBox="0 0 541 160.93333"
   sodipodi:docname="flowcean_logo_text_blue.eps"
   xmlns:inkscape="http://www.inkscape.org/namespaces/inkscape"
   xmlns:sodipodi="http://sodipodi.sourceforge.net/DTD/sodipodi-0.dtd"
   xmlns="http://www.w3.org/2000/svg"
   xmlns:svg="http://www.w3.org/2000/svg">
  <defs
     id="defs1" />
  <sodipodi:namedview
     id="namedview1"
     pagecolor="#ffffff"
     bordercolor="#000000"
     borderopacity="0.25"
     inkscape:showpageshadow="2"
     inkscape:pageopacity="0.0"
     inkscape:pagecheckerboard="0"
     inkscape:deskcolor="#d1d1d1">
    <inkscape:page
       x="0"
       y="0"
       inkscape:label="1"
       id="page1"
       width="541"
       height="160.93333"
       margin="0"
       bleed="0" />
  </sodipodi:namedview>
  <g
     id="g1"
     inkscape:groupmode="layer"
     inkscape:label="1">
    <g
       id="group-R5">
      <path
         id="path2"
         d="m 1480.42,701.836 c 0,67.875 35.66,113.309 112.74,113.309 27.6,0 54.06,-5.172 80.52,-16.106 l -10.92,-35.656 c -23.01,9.777 -40.84,13.226 -65,13.226 -50.04,0 -70.17,-28.183 -70.17,-73.046 V 398.711 h -47.17 z m 1.15,-23.586 h 162.78 v -38.535 h -163.92 l 1.14,38.535"
         style="fill:#22547b;fill-opacity:1;fill-rule:nonzero;stroke:none"
         transform="matrix(0.13333333,0,0,-0.13333333,0,160.93333)" />
      <path
         id="path3"
         d="m 1827.78,492.465 v 277.246 h -98.94 v 38.535 h 146.68 v -319.23 c 0,-40.258 21.86,-57.52 55.21,-57.52 16.12,0 33.37,4.027 52.35,12.656 l 12.08,-35.664 c -25.88,-10.922 -44.29,-16.683 -74.77,-16.683 -59.82,0 -92.61,34.511 -92.61,100.66"
         style="fill:#22547b;fill-opacity:1;fill-rule:nonzero;stroke:none"
         transform="matrix(0.13333333,0,0,-0.13333333,0,160.93333)" />
      <path
         id="path4"
         d="m 2293.06,537.906 c 0,64.418 -35.67,107.559 -89.15,107.559 -53.5,0 -89.16,-43.141 -89.16,-107.559 0,-63.847 35.66,-106.41 89.16,-106.41 53.48,0 89.15,42.563 89.15,106.41 z m -227.2,0 c 0,93.754 64.42,147.25 138.05,147.25 73.62,0 138.04,-53.496 138.04,-147.25 0,-92.605 -64.42,-146.101 -138.04,-146.101 -73.63,0 -138.05,53.496 -138.05,146.101"
         style="fill:#22547b;fill-opacity:1;fill-rule:nonzero;stroke:none"
         transform="matrix(0.13333333,0,0,-0.13333333,0,160.93333)" />
      <path
         id="path5"
         d="m 2381.01,678.25 h 47.17 l 33.35,-162.195 c 5.18,-26.461 9.21,-50.625 12.66,-77.082 h 2.3 c 3.45,26.457 9.77,51.191 16.1,77.082 L 2527.1,661 h 47.17 l 33.36,-144.945 c 6.33,-26.461 13.8,-50.625 17.25,-77.082 h 2.31 c 4.6,26.457 7.48,50.621 12.65,77.082 l 33.36,162.195 h 43.72 L 2657.1,398.711 h -60.97 l -32.22,133.445 c -4.59,19.555 -9.19,47.168 -13.8,82.824 h -2.3 c -4.6,-35.656 -9.2,-63.269 -13.8,-82.824 l -31.06,-133.445 h -60.97 l -60.97,279.539"
         style="fill:#22547b;fill-opacity:1;fill-rule:nonzero;stroke:none"
         transform="matrix(0.13333333,0,0,-0.13333333,0,160.93333)" />
      <path
         id="path6"
         d="m 2767.47,537.906 c 0,93.754 71.34,147.25 155.88,147.25 45.44,0 78.81,-18.406 101.81,-40.84 l -23.58,-30.484 c -23.01,19.555 -47.17,31.633 -76.5,31.633 -64.42,0 -108.71,-43.141 -108.71,-107.559 0,-63.847 43.71,-106.41 107.56,-106.41 34.51,0 63.27,15.527 86.28,35.09 l 21.28,-31.063 c -31.06,-27.605 -69.6,-43.718 -111.01,-43.718 -87.43,0 -153.01,53.496 -153.01,146.101"
         style="fill:#22547b;fill-opacity:1;fill-rule:nonzero;stroke:none"
         transform="matrix(0.13333333,0,0,-0.13333333,0,160.93333)" />
      <path
         id="path7"
         d="m 3105.64,539.055 c 0,90.883 67.88,146.101 142.65,146.101 80.53,0 127.69,-52.34 127.69,-131.144 0,-10.934 -1.15,-21.285 -2.3,-28.762 h -236.41 v 36.813 h 208.23 l -12.09,-13.223 c 0,66.14 -32.77,98.926 -83.97,98.926 -51.77,0 -96.63,-39.114 -96.63,-108.711 0,-72.469 47.17,-109.282 109.28,-109.282 33.36,0 59.82,10.356 85.13,26.457 l 17.25,-31.062 c -27.6,-18.406 -63.27,-33.363 -108.13,-33.363 -83.98,0 -150.7,54.074 -150.7,147.25"
         style="fill:#22547b;fill-opacity:1;fill-rule:nonzero;stroke:none"
         transform="matrix(0.13333333,0,0,-0.13333333,0,160.93333)" />
      <path
         id="path8"
         d="m 3660.64,471.758 v 72.476 c -119.63,-9.207 -155.88,-32.785 -155.88,-69.597 0,-31.641 28.76,-44.285 60.98,-44.285 31.63,0 62.69,14.949 94.9,41.406 z m -203.03,-0.57 c 0,62.695 58.66,93.175 203.03,104.679 -1.72,37.965 -20.13,70.176 -74.2,70.176 -36.23,0 -71.89,-17.254 -97.78,-33.363 l -18.97,32.215 c 28.76,18.406 75.91,40.261 124.81,40.261 76.5,0 113.89,-45.441 113.89,-115.039 V 398.711 h -39.7 l -4.02,37.961 h -1.73 c -30.48,-24.16 -70.74,-44.867 -109.85,-44.867 -52.35,0 -95.48,29.34 -95.48,79.383"
         style="fill:#22547b;fill-opacity:1;fill-rule:nonzero;stroke:none"
         transform="matrix(0.13333333,0,0,-0.13333333,0,160.93333)" />
      <path
         id="path9"
         d="m 3810.14,678.25 h 39.11 l 4.03,-47.168 h 2.3 c 29.33,30.484 61.55,54.074 105.26,54.074 66.15,0 96.63,-39.113 96.63,-112.738 V 398.711 h -47.74 V 566.09 c 0,52.918 -18.41,77.648 -63.85,77.648 -33.36,0 -55.79,-16.679 -88,-50.035 V 398.711 h -47.74 V 678.25"
         style="fill:#22547b;fill-opacity:1;fill-rule:nonzero;stroke:none"
         transform="matrix(0.13333333,0,0,-0.13333333,0,160.93333)" />
      <path
         id="path10"
         d="M 608.313,792.563 422.656,901.508 V 688.047 L 608.313,581.129 v 211.434"
         style="fill:#22547b;fill-opacity:1;fill-rule:nonzero;stroke:none"
         transform="matrix(0.13333333,0,0,-0.13333333,0,160.93333)" />
      <path
         id="path11"
         d="m 611.898,579.07 h -0.007 l 0.004,-0.004 z"
         style="fill:#22547b;fill-opacity:1;fill-rule:nonzero;stroke:none"
         transform="matrix(0.13333333,0,0,-0.13333333,0,160.93333)" />
      <path
         id="path12"
         d="m 1180.59,516.973 c -0.32,-2.125 -0.75,-4.207 -1.09,-6.325 -29.03,-80.105 -116.08,-148.218 -165.56,-181.773 -103.319,-70.047 -218.917,-94.25 -317.139,-66.434 -88.25,25.012 -156.488,89.032 -222.485,150.942 -13.769,12.918 -27.5,25.793 -41.351,38.293 C 384.125,495.723 324.453,542.43 252.148,554.875 193.43,565.004 126.781,544.918 86.2344,504.953 69.9805,488.93 52.6484,464.699 46.0273,431.039 c -3.25,10.473 -6.1289,21.102 -8.789,31.816 -2.7852,13.075 -4.7188,25.661 -5.4219,37.668 -2.4453,41.825 13.9844,81.79 45.082,109.645 42.7066,38.258 109.8006,57.016 166.9336,46.695 65.797,-11.898 125.055,-58.812 169.332,-98.355 13.902,-12.41 27.672,-25.203 41.484,-38.043 68.399,-63.531 139.118,-129.227 232.942,-155.551 28.726,-8.059 58.797,-12.023 89.566,-12.023 81.582,0 168.071,27.867 247.394,81.125 67.08,45.039 134.87,112.718 161.93,188.097 0.2,-6.203 0.48,-12.386 0.48,-18.64 0,-28.95 -2.15,-58.051 -6.37,-86.5 z m -85.85,-227.192 c -28.84,-38.605 -64.83,-71.472 -96.533,-93.89 -97.223,-68.743 -209.629,-91.192 -300.727,-60.012 -67.222,23 -122.042,72.59 -176.906,125.715 l -8.285,8.031 c -44.676,43.34 -90.871,88.156 -145.402,119.867 -61.16,35.574 -116.188,47.41 -163.574,35.184 -36.704,-9.469 -66.129,-33.082 -80.754,-64.781 -7.7,-16.696 -13.563,-41.071 -8.524,-73.461 -18.9569,29.164 -35.4569,60.046 -49.0311,92.476 -8.2734,55.406 14.5391,91.367 35.2691,111.801 36.176,35.656 95.825,53.519 148.481,44.457 67.281,-11.582 124.101,-56.215 170.812,-98.344 13.758,-12.41 27.391,-25.195 41.071,-38.027 67.738,-63.551 137.781,-129.266 230.715,-155.594 28.468,-8.066 58.257,-12.035 88.75,-12.035 80.816,0 166.492,27.879 245.058,81.152 38.12,25.852 97.7,71.618 138.66,128.285 -15.78,-54.019 -39.31,-104.64 -69.08,-150.824 z M 20,603.473 c 0,321.73 261.746,583.477 583.48,583.477 95.106,0 184.883,-23.02 264.293,-63.55 -92.554,-8.26 -191.816,-66.57 -282.128,-122.12 l -157.5,-91.69 185.046,-108.586 40.559,23.797 0.172,-0.309 c 18.191,10.328 37.527,21.91 57.996,34.176 8.23,4.934 16.687,9.98 25.23,15.059 l 32.524,19.082 c 83.836,48.332 176.976,94.293 253.968,89.058 11.88,-0.816 24.26,-3.258 35.17,-14.144 44.4,-55.399 78.98,-118.973 100.93,-188.16 -20.84,19.308 -47.99,32.488 -75.93,34.41 C 989.602,820.488 886.59,763.109 793.461,707.57 V 895.461 L 618.066,792.563 V 582.637 l 107.032,61.922 0.289,-0.508 c 18.285,10.375 37.242,21.746 57.312,33.777 0.938,0.563 1.895,1.133 2.832,1.695 l 7.93,4.586 v 0.161 c 93.266,55.828 197.394,115.902 288.979,109.75 41.85,-2.875 82.94,-37.313 93.18,-76.082 0.81,-4.063 1.47,-8.176 2.19,-12.27 C 1188.58,606.227 1096.35,506.313 1013.4,450.617 909.027,380.543 792.23,356.328 692.988,384.172 603.832,409.188 534.91,473.203 468.262,535.117 454.352,548.051 440.484,560.926 426.484,573.43 380.25,614.719 318.109,663.754 247.395,676.539 184.465,687.898 110.613,667.227 63.5547,625.059 44.3711,607.879 30.2422,586.605 21.543,563.223 20.6328,576.535 20,589.93 20,603.473 Z m 882.824,500.597 c 46.957,-28.18 89.586,-62.82 126.786,-102.62 -1.73,0.17 -3.29,0.28 -4.6,0.37 -79.19,5.45 -171.67,-38.41 -255.522,-86.105 l -146.754,84.775 c 92.489,55.97 192.215,109.39 280.09,103.58 z M 1206.96,603.473 c 0,35.781 -3.31,70.781 -9.31,104.867 -0.1,0.863 -0.14,1.726 -0.25,2.594 -0.49,3.824 -1.29,7.601 -2.25,11.355 -18.94,94.481 -60.09,180.973 -117.64,253.988 l 0.33,0.278 c -1.04,1.273 -2.15,2.254 -3.23,3.398 C 963.934,1118.18 793.926,1206.95 603.48,1206.95 270.723,1206.95 0,936.23 0,603.473 0,555.789 5.73047,509.449 16.2344,464.926 20.0586,444.992 26.2109,423.871 34.793,401.105 l 0.1953,0.075 c 23.0976,-64.715 56.9375,-124.34 99.3827,-176.766 0.07,-0.144 0.125,-0.285 0.199,-0.434 l 0.102,0.051 C 245.406,87.4805 414.387,0 603.48,0 c 209.915,0 399.64,110.66 508.17,279.113 20,26.985 36.77,56.637 46.73,87.688 h -0.01 c 19.94,46.324 34.34,95.629 42.01,147.234 4.36,29.418 6.58,59.508 6.58,89.438"
         style="fill:#22547b;fill-opacity:1;fill-rule:nonzero;stroke:none"
         transform="matrix(0.13333333,0,0,-0.13333333,0,160.93333)" />
    </g>
  </g>
</svg>
