<?xml version="1.0" encoding="UTF-8" standalone="no"?>
<!-- Created with Inkscape (http://www.inkscape.org/) -->

<svg
   width="37cm"
   height="13cm"
   viewBox="0 0 370 130"
   version="1.1"
   id="svg1"
   inkscape:version="1.4.2 (ebf0e940d0, 2025-05-08)"
   sodipodi:docname="pipeline-light.svg"
   xml:space="preserve"
   xmlns:inkscape="http://www.inkscape.org/namespaces/inkscape"
   xmlns:sodipodi="http://sodipodi.sourceforge.net/DTD/sodipodi-0.dtd"
   xmlns="http://www.w3.org/2000/svg"
   xmlns:svg="http://www.w3.org/2000/svg"><sodipodi:namedview
     id="namedview1"
     pagecolor="#ffffff"
     bordercolor="#000000"
     borderopacity="0.25"
     inkscape:showpageshadow="2"
     inkscape:pageopacity="0.0"
     inkscape:pagecheckerboard="0"
     inkscape:deskcolor="#d1d1d1"
     inkscape:document-units="mm"
     inkscape:zoom="0.53026558"
     inkscape:cx="452.60339"
     inkscape:cy="166.8975"
     inkscape:window-width="1920"
     inkscape:window-height="1050"
     inkscape:window-x="0"
     inkscape:window-y="0"
     inkscape:window-maximized="0"
     inkscape:current-layer="text214-6" /><defs
     id="defs1"><clipPath
       clipPathUnits="userSpaceOnUse"
       id="clipPath112"><path
         d="m 3708.72,884.84 -66.72,-66.71 67.4,-67.396 66.71,66.716 z"
         fill-rule="evenodd"
         clip-rule="evenodd"
         id="path112" /></clipPath><clipPath
       clipPathUnits="userSpaceOnUse"
       id="clipPath110"><path
         d="m 3708.72,884.84 -66.72,-66.71 67.4,-67.396 66.71,66.716 z"
         fill-rule="evenodd"
         clip-rule="evenodd"
         id="path110" /></clipPath><clipPath
       clipPathUnits="userSpaceOnUse"
       id="clipPath109"><path
         d="m 3708.72,884.84 -66.72,-66.71 67.4,-67.396 66.71,66.716 z"
         fill-rule="evenodd"
         clip-rule="evenodd"
         id="path109" /></clipPath><clipPath
       clipPathUnits="userSpaceOnUse"
       id="clipPath108"><path
         d="m 3708.72,884.84 -66.72,-66.71 67.4,-67.396 66.71,66.716 z"
         fill-rule="evenodd"
         clip-rule="evenodd"
         id="path108" /></clipPath><clipPath
       clipPathUnits="userSpaceOnUse"
       id="clipPath107"><path
         d="m 3708.72,884.84 -66.72,-66.71 67.4,-67.396 66.71,66.716 z"
         fill-rule="evenodd"
         clip-rule="evenodd"
         id="path107" /></clipPath><clipPath
       clipPathUnits="userSpaceOnUse"
       id="clipPath118"><path
         d="m 4023.47,750.734 66.71,66.716 -67.39,67.39 -66.72,-66.71 z"
         fill-rule="evenodd"
         clip-rule="evenodd"
         id="path118" /></clipPath><clipPath
       clipPathUnits="userSpaceOnUse"
       id="clipPath116"><path
         d="m 4023.47,750.734 66.71,66.716 -67.39,67.39 -66.72,-66.71 z"
         fill-rule="evenodd"
         clip-rule="evenodd"
         id="path116" /></clipPath><clipPath
       clipPathUnits="userSpaceOnUse"
       id="clipPath115"><path
         d="m 4023.47,750.734 66.71,66.716 -67.39,67.39 -66.72,-66.71 z"
         fill-rule="evenodd"
         clip-rule="evenodd"
         id="path115" /></clipPath><clipPath
       clipPathUnits="userSpaceOnUse"
       id="clipPath114"><path
         d="m 4023.47,750.734 66.71,66.716 -67.39,67.39 -66.72,-66.71 z"
         fill-rule="evenodd"
         clip-rule="evenodd"
         id="path114" /></clipPath><clipPath
       clipPathUnits="userSpaceOnUse"
       id="clipPath113"><path
         d="m 4023.47,750.734 66.71,66.716 -67.39,67.39 -66.72,-66.71 z"
         fill-rule="evenodd"
         clip-rule="evenodd"
         id="path113" /></clipPath></defs><g
     inkscape:label="Layer 1"
     inkscape:groupmode="layer"
     id="layer1"><g
       id="g118"
       transform="matrix(0.43386811,0,0,0.43386811,-50.165765,-14.079781)"
       style="fill:#212121;fill-opacity:1"><path
         d="m 408.89113,100.23781 c 0,6.11146 -17.33836,11.0653 -38.72931,11.0653 -21.39103,0 -38.7294,-4.95384 -38.7294,-11.0653 0,-6.111453 17.33837,-11.065973 38.7294,-11.065973 21.39094,0 38.72931,4.95452 38.72931,11.065973 z"
         id="path28"
         style="stroke-width:0.344015;fill:#212121;fill-opacity:1" /><path
         d="m 397.82758,127.90189 c -1.66159,0 -2.76586,-1.10773 -2.76586,-2.76588 0,-1.6616 1.10427,-2.76589 2.76586,-2.76589 1.65815,0 2.76593,1.10429 2.76593,2.76589 0,1.65815 -1.10778,2.76588 -2.76593,2.76588 z m -27.66576,-11.067 c -21.30154,0 -38.7294,-4.97793 -38.7294,-11.06426 v 22.13126 c 0,6.08568 17.42786,11.06702 38.7294,11.06702 21.30145,0 38.72931,-4.98134 38.72931,-11.06702 v -22.13126 c 0,6.08633 -17.42784,11.06426 -38.72931,11.06426 z"
         id="path29"
         style="stroke-width:0.344015;fill:#212121;fill-opacity:1" /><path
         d="m 397.82758,155.56771 c -1.66159,0 -2.76586,-1.10774 -2.76586,-2.7659 0,-1.66159 1.10427,-2.76932 2.76586,-2.76932 1.65815,0 2.76593,1.10773 2.76593,2.76932 0,1.65816 -1.10778,2.7659 -2.76593,2.7659 z m -27.66576,-11.06702 c -21.30154,0 -38.7294,-4.97791 -38.7294,-11.067 v 22.13402 c 0,6.08566 17.42786,11.06356 38.7294,11.06356 21.30145,0 38.72931,-4.9779 38.72931,-11.06356 v -22.13402 c 0,6.08909 -17.42784,11.067 -38.72931,11.067 z"
         id="path30"
         style="stroke-width:0.344015;fill:#212121;fill-opacity:1" /><path
         d="m 397.82758,183.23007 c -1.66159,0 -2.76586,-1.10429 -2.76586,-2.76588 0,-1.65817 1.10427,-2.7659 2.76586,-2.7659 1.65815,0 2.76593,1.10773 2.76593,2.7659 0,1.66159 -1.10778,2.76588 -2.76593,2.76588 z m -27.66576,-11.06356 c -21.30154,0 -38.7294,-4.98136 -38.7294,-11.06702 v 22.13058 c 0,6.08909 17.42786,11.06702 38.7294,11.06702 21.30145,0 38.72931,-4.97793 38.72931,-11.06702 v -22.13058 c 0,6.08566 -17.42784,11.06702 -38.72931,11.06702 z"
         id="path31"
         style="stroke-width:0.344015;fill:#212121;fill-opacity:1" /></g><path
       d="M 66.536447,28.527418 77.185926,47.414283 66.536447,66.301146 Z"
       stroke="#005b7f"
       stroke-width="0.417179"
       stroke-miterlimit="8"
       fill="#005b7f"
       fill-rule="evenodd"
       id="path33"
       style="fill:#1d6083;fill-opacity:1" /><path
       d="m 143.70022,28.527418 10.55844,18.886865 -10.55844,18.886863 z"
       stroke="#005b7f"
       stroke-width="0.417179"
       stroke-miterlimit="8"
       fill="#005b7f"
       fill-rule="evenodd"
       id="path34"
       style="fill:#1d6083;fill-opacity:1" /><path
       d="m 220.77247,28.527418 10.64944,18.886865 -10.64944,18.886863 z"
       stroke="#005b7f"
       stroke-width="0.417179"
       stroke-miterlimit="8"
       fill="#005b7f"
       fill-rule="evenodd"
       id="path35"
       style="fill:#1d6083;fill-opacity:1" /><path
       d="m 297.93623,28.527418 10.55846,18.886865 -10.55846,18.886863 z"
       stroke="#005b7f"
       stroke-width="0.417179"
       stroke-miterlimit="8"
       fill="#005b7f"
       fill-rule="evenodd"
       id="path36"
       style="fill:#1d6083;fill-opacity:1" /><g
       id="g127"
       transform="matrix(0.26458333,0,0,0.26458333,9.0180567,2.2202368)"><path
         id="rect124-8"
         style="fill:none;stroke:#212121;stroke-width:9.44882;stroke-linejoin:round;stroke-opacity:1"
         d="m 162.30224,123.45784 h -55.8347 V 71.30763 m -87.544015,1.429408 h 90.917355 l 54.91735,54.075102 V 268.88725 H 18.923525 Z"
         sodipodi:nodetypes="ccccccccc" /><path
         id="path124-2"
         style="fill:none;fill-opacity:1;stroke:#212121;stroke-width:3.77953;stroke-linecap:round;stroke-linejoin:round;stroke-dasharray:none;stroke-opacity:1"
         d="m 128.24514,187.53111 c 6.38245,8.76999 0.0463,15.98461 -6.6948,17.8737 0.97236,10.27199 -11.19348,21.8471 -23.415824,12.89555 m -12.690477,0.43116 c -9.213848,6.46541 -24.651097,0.81014 -23.392297,-13.98355 -4.002424,1.05847 -15.005982,-7.74842 -6.024765,-17.31636 M 125.2726,176.52635 c 11.39861,-11.27807 1.43968,-24.34488 -7.53083,-23.35432 -3.02198,-19.2825 -23.550351,-18.2726 -26.019056,1.64018 -2.897203,-24.30065 -26.935423,-16.52017 -25.02638,-1.35491 -6.696288,-1.8945 -22.437329,9.88493 -8.532845,22.79698" /><path
         id="path126"
         style="fill:none;fill-opacity:1;stroke:#212121;stroke-width:3.77953;stroke-linecap:round;stroke-linejoin:round;stroke-dasharray:none;stroke-opacity:1"
         d="m 44.959647,181.69643 h 18.703574 v -3.90146 m -18.703574,3.90146 c 1e-6,2.46253 -1.996276,4.45881 -4.458808,4.45881 -2.462532,0 -4.458809,-1.99628 -4.458808,-4.45881 -1e-6,-2.46253 1.996276,-4.45881 4.458808,-4.45881 2.462532,0 4.458809,1.99628 4.458808,4.45881 z"
         sodipodi:nodetypes="cccsssss" /><path
         id="path126-4"
         style="fill:none;fill-opacity:1;stroke:#212121;stroke-width:3.77953;stroke-linecap:round;stroke-linejoin:round;stroke-dasharray:none;stroke-opacity:1"
         d="m 138.7456,181.69643 h -18.70357 v 3.90146 m 18.70357,-3.90146 c 0,-2.46253 1.99628,-4.45881 4.45881,-4.45881 2.46253,0 4.45881,1.99628 4.45881,4.45881 0,2.46253 -1.99628,4.45881 -4.45881,4.45881 -2.46253,0 -4.45881,-1.99628 -4.45881,-4.45881 z"
         sodipodi:nodetypes="cccsssss" /><path
         id="path126-4-4"
         style="fill:none;fill-opacity:1;stroke:#212121;stroke-width:3.77953;stroke-linecap:round;stroke-linejoin:round;stroke-dasharray:none;stroke-opacity:1"
         d="m 91.700365,230.24157 v -18.70358 m 0,18.70358 c 2.46253,0 4.45881,1.99627 4.45881,4.45881 0,2.46253 -1.99628,4.4588 -4.45881,4.4588 -2.46253,0 -4.45881,-1.99627 -4.45881,-4.4588 0,-2.46254 1.99628,-4.45881 4.45881,-4.45881 z"
         sodipodi:nodetypes="ccsssss" /><path
         d="m 94.636794,200.79881 h 5.03226 L 88.598082,166.12654 h -6.038713 l -11.121294,34.67227 h 4.830969 L 78.88582,192.093 h 13.134198 z m -14.593555,-12.58065 5.434841,-18.11613 5.384519,18.11613 z m 29.740651,-22.09162 h -4.78064 v 34.67227 h 4.78064 z"
         id="text127"
         style="font-size:50.3226px;font-family:'Fira Sans';-inkscape-font-specification:'Fira Sans';stroke-width:3.78013;fill:#212121;fill-opacity:1"
         aria-label="AI" /></g><g
       id="g137"
       transform="matrix(0.26458333,0,0,0.26458333,19.323988,2.091005)"
       style="stroke:#212121;stroke-opacity:1"><circle
         style="fill:none;fill-opacity:1;stroke:#212121;stroke-width:7.55906;stroke-linecap:round;stroke-linejoin:round;stroke-dasharray:none;stroke-opacity:1"
         id="path128"
         cx="569.79846"
         cy="101.80944"
         r="10.218102" /><circle
         style="fill:none;fill-opacity:1;stroke:#212121;stroke-width:7.55906;stroke-linecap:round;stroke-linejoin:round;stroke-dasharray:none;stroke-opacity:1"
         id="path128-72"
         cx="611.69708"
         cy="138.11234"
         r="10.218102" /><circle
         style="fill:none;fill-opacity:1;stroke:#212121;stroke-width:7.55906;stroke-linecap:round;stroke-linejoin:round;stroke-dasharray:none;stroke-opacity:1"
         id="path128-72-7"
         cx="569.77991"
         cy="240.79172"
         r="10.218102" /><circle
         style="fill:none;fill-opacity:1;stroke:#212121;stroke-width:7.55906;stroke-linecap:round;stroke-linejoin:round;stroke-dasharray:none;stroke-opacity:1"
         id="path128-7"
         cy="138.27704"
         cx="568.09613"
         r="8.2181025" /><path
         style="fill:none;fill-opacity:1;stroke:#212121;stroke-width:7.55906;stroke-linecap:butt;stroke-linejoin:round;stroke-dasharray:none;stroke-opacity:1"
         d="m 576.85827,109.61235 25.82393,25.26658"
         id="path129"
         sodipodi:nodetypes="cc" /><circle
         style="fill:none;fill-opacity:1;stroke:#212121;stroke-width:7.55906;stroke-linecap:round;stroke-linejoin:round;stroke-dasharray:none;stroke-opacity:1"
         id="path128-7-1"
         cy="171.35464"
         cx="568.34283"
         r="8.2181025" /><path
         style="fill:none;fill-opacity:1;stroke:#212121;stroke-width:7.55906;stroke-linecap:butt;stroke-linejoin:round;stroke-dasharray:none;stroke-opacity:1"
         d="m 576.73344,171.35465 h 22.75285"
         id="path130-0"
         sodipodi:nodetypes="cc" /><circle
         style="fill:none;fill-opacity:1;stroke:#212121;stroke-width:7.55906;stroke-linecap:round;stroke-linejoin:round;stroke-dasharray:none;stroke-opacity:1"
         id="path128-7-1-1"
         cy="205.05446"
         cx="568.67004"
         r="8.2181025" /><circle
         style="fill:none;fill-opacity:1;stroke:#212121;stroke-width:7.55906;stroke-linecap:round;stroke-linejoin:round;stroke-dasharray:none;stroke-opacity:1"
         id="path128-7-1-1-0"
         cy="205.16434"
         cx="611.46625"
         r="8.2181025" /><path
         style="fill:none;fill-opacity:1;stroke:#212121;stroke-width:7.55906;stroke-linecap:butt;stroke-linejoin:round;stroke-dasharray:none;stroke-opacity:1"
         d="m 577.06066,205.05446 h 26.75285 m 15.44336,0 h 16.75285"
         id="path130-0-5"
         sodipodi:nodetypes="cccc" /><path
         style="fill:none;fill-opacity:1;stroke:#212121;stroke-width:7.55906;stroke-linecap:butt;stroke-linejoin:round;stroke-dasharray:none;stroke-opacity:1"
         d="m 577.75948,235.29218 27.14036,-25.74557"
         id="path130-0-5-1"
         sodipodi:nodetypes="cc" /><rect
         style="fill:none;fill-opacity:1;stroke:#212121;stroke-width:7.55906;stroke-linecap:butt;stroke-linejoin:round;stroke-dasharray:none;stroke-opacity:1"
         id="rect130"
         width="30.60895"
         height="25.091457"
         x="597.47302"
         y="159.96222" /><path
         style="fill:none;fill-opacity:1;stroke:#212121;stroke-width:7.55906;stroke-linecap:butt;stroke-linejoin:round;stroke-dasharray:none;stroke-opacity:1"
         d="m 575.25687,138.52266 h 26.75285 m 19.44336,0 h 14.55664"
         id="path130-0-5-9"
         sodipodi:nodetypes="cccc" /><path
         style="fill:none;fill-opacity:1;stroke:#212121;stroke-width:7.55906;stroke-linecap:round;stroke-linejoin:round;stroke-dasharray:none;stroke-opacity:1"
         d="m 646.64274,125.80631 v 91.17001"
         id="path130"
         sodipodi:nodetypes="cc" /><path
         style="fill:none;fill-opacity:1;stroke:#212121;stroke-width:7.55906;stroke-linecap:butt;stroke-linejoin:round;stroke-dasharray:none;stroke-opacity:1"
         d="m 646.64274,131.53483 h 13.07504 l 31.39744,-31.39744 h 15.60583"
         id="path131"
         sodipodi:nodetypes="cccc" /><path
         style="fill:none;fill-opacity:1;stroke:#212121;stroke-width:7.55906;stroke-linecap:butt;stroke-linejoin:round;stroke-dasharray:none;stroke-opacity:1"
         d="m 646.64274,151.2279 h 21.43531 l 22.66561,-22.66561 h 15.60582"
         id="path132"
         sodipodi:nodetypes="cccc" /><path
         style="fill:none;fill-opacity:1;stroke:#212121;stroke-width:7.55906;stroke-linecap:butt;stroke-linejoin:round;stroke-dasharray:none;stroke-opacity:1"
         d="m 646.64274,172.03567 h 45.58719 l 13.00485,-13.00486"
         id="path133"
         sodipodi:nodetypes="ccc" /><path
         style="fill:none;fill-opacity:1;stroke:#212121;stroke-width:7.55906;stroke-linecap:butt;stroke-linejoin:round;stroke-dasharray:none;stroke-opacity:1"
         d="m 676.99566,172.22145 22.20115,22.20115 h 6.59532"
         id="path134"
         sodipodi:nodetypes="ccc" /><path
         style="fill:none;fill-opacity:1;stroke:#212121;stroke-width:7.55906;stroke-linecap:butt;stroke-linejoin:round;stroke-dasharray:none;stroke-opacity:1"
         d="m 646.64274,191.91452 h 22.17844 l 36.13492,36.13492"
         id="path135"
         sodipodi:nodetypes="ccc" /><path
         style="fill:none;fill-opacity:1;stroke:#212121;stroke-width:7.55906;stroke-linecap:round;stroke-linejoin:round;stroke-dasharray:none;stroke-opacity:1"
         d="m 646.64274,211.4218 h 13.81818 l 32.9766,32.9766"
         id="path136"
         sodipodi:nodetypes="ccc" /><circle
         style="fill:none;fill-opacity:1;stroke:#212121;stroke-width:9.22447;stroke-linecap:butt;stroke-linejoin:round;stroke-dasharray:none;stroke-opacity:1"
         id="path137"
         cx="706.61359"
         cy="97.678558"
         r="4.6490474" /><circle
         style="fill:none;fill-opacity:1;stroke:#212121;stroke-width:9.22447;stroke-linecap:butt;stroke-linejoin:round;stroke-dasharray:none;stroke-opacity:1"
         id="path137-7"
         cx="706.61359"
         cy="127.00441"
         r="4.6490474" /><circle
         style="fill:none;fill-opacity:1;stroke:#212121;stroke-width:9.22447;stroke-linecap:butt;stroke-linejoin:round;stroke-dasharray:none;stroke-opacity:1"
         id="path137-73"
         cx="706.61359"
         cy="159.13577"
         r="4.6490474" /><circle
         style="fill:none;fill-opacity:1;stroke:#212121;stroke-width:9.22447;stroke-linecap:butt;stroke-linejoin:round;stroke-dasharray:none;stroke-opacity:1"
         id="path137-5"
         cx="706.61359"
         cy="194.52989"
         r="4.6490474" /><circle
         style="fill:none;fill-opacity:1;stroke:#212121;stroke-width:9.22447;stroke-linecap:butt;stroke-linejoin:round;stroke-dasharray:none;stroke-opacity:1"
         id="path137-3"
         cx="706.61359"
         cy="224.03389"
         r="4.6490474" /></g><g
       id="g213"
       transform="matrix(0.26458333,0,0,0.26458333,20.620426,-0.39277047)"
       style="stroke:#212121;stroke-opacity:1"><g
         id="g145"
         style="stroke:#212121;stroke-opacity:1"><path
           id="path139-4"
           style="fill:none;fill-opacity:1;stroke:#212121;stroke-width:7.55906;stroke-linecap:butt;stroke-linejoin:round;stroke-dasharray:none;stroke-opacity:1"
           d="m 939.77953,130.77953 12.07593,12.07593 m -1.57203,-21.72451 12.07593,12.07593 m 2.34936,-3.8107 29.19059,29.39957 -16.61141,16.49333 -29.19059,-29.39956 z m -0.84048,-45.18126 a 55.177746,56.29245 0 0 1 -55.17775,56.29245 55.177746,56.29245 0 0 1 -55.17775,-56.29245 55.177746,56.29245 0 0 1 55.17775,-56.29245 55.177746,56.29245 0 0 1 55.17775,56.29245 z" /><path
           id="path142"
           style="fill:none;stroke:#212121;stroke-width:5.66929;stroke-linecap:round;stroke-linejoin:round;stroke-opacity:1"
           d="m 885.64211,106.07047 a 14.026667,14.026667 0 0 1 -9.43718,-14.445557 14.026667,14.026667 0 0 1 11.71465,-12.668917 m -9.88767,3.445566 a 10.868344,11.518587 0 0 1 -3.56845,-12.593359 10.868344,11.518587 0 0 1 9.89442,-7.932939 m 10.17135,7.949233 c -11.00924,-0.952729 -11.79454,-13.18228 -7.08721,-18.485285 4.70733,-5.303005 18.06561,-6.695623 19.92348,2.408384 v 55.259114 c -3.04728,10.52061 -14.80963,8.30849 -19.05299,3.01951 -4.24336,-5.28899 -2.63978,-16.113636 7.48259,-17.331793" /><path
           id="path145"
           style="fill:none;fill-opacity:1;stroke:#212121;stroke-width:5.66929;stroke-linecap:round;stroke-linejoin:round;stroke-dasharray:none;stroke-opacity:1"
           d="M 917.93077,113.79249 V 94.340133 c 7.00035,-0.524931 12.44313,-6.305105 12.5466,-13.324347 0.10347,-7.019245 -5.56476,-12.957332 -12.5466,-13.688362 v -19.23247 l 8.20078,1.738212 1.58576,6.513698 4.72155,2.8299 6.04263,-1.801488 6.17401,9.212229 -3.43233,5.333311 0.974,5.200009 5.64853,3.466139 -2.40392,11.584271 -5.5397,0.720595 -3.11518,4.973014 1.64952,5.988226 -9.52938,6.68821 -4.80784,-3.17893 -5.95635,2.25001"
           sodipodi:nodetypes="ccsccccccccccccccccc" /></g><g
         id="g155"
         style="stroke:#212121;stroke-opacity:1"><g
           id="g210"
           style="stroke:#212121;stroke-opacity:1"><path
             style="fill:none;fill-opacity:1;stroke:#212121;stroke-width:5.66929;stroke-linecap:butt;stroke-linejoin:bevel;stroke-dasharray:none;stroke-opacity:1"
             d="m 872.57712,254.9523 23.07098,-18.58495 m 15.90527,-1.79968 21.83791,10.62384 m 15.49498,-2.27578 19.425,-17.89548"
             id="path150"
             sodipodi:nodetypes="cccccc" /><circle
             style="fill:none;fill-opacity:1;stroke:#212121;stroke-width:5.66929;stroke-linecap:butt;stroke-linejoin:bevel;stroke-dasharray:none;stroke-opacity:1"
             id="path151"
             cx="865.1955"
             cy="260.89862"
             r="9.4787693" /><circle
             style="fill:none;fill-opacity:1;stroke:#212121;stroke-width:5.66929;stroke-linecap:butt;stroke-linejoin:bevel;stroke-dasharray:none;stroke-opacity:1"
             id="path151-8"
             cx="903.02972"
             cy="230.42104"
             r="9.4787693" /><circle
             style="fill:none;fill-opacity:1;stroke:#212121;stroke-width:5.66929;stroke-linecap:butt;stroke-linejoin:bevel;stroke-dasharray:none;stroke-opacity:1"
             id="path151-8-6"
             cx="941.91492"
             cy="249.33815"
             r="9.4787693" /><circle
             style="fill:none;fill-opacity:1;stroke:#212121;stroke-width:5.66929;stroke-linecap:butt;stroke-linejoin:bevel;stroke-dasharray:none;stroke-opacity:1"
             id="path151-8-8"
             cx="975.28259"
             cy="218.59782"
             r="9.4787693" /><path
             id="rect155"
             style="fill:none;stroke:#212121;stroke-width:5.66929;stroke-linejoin:round;stroke-opacity:1"
             d="m 963.64084,331.56393 v -84.31005 h 21.03578 v 84.31005 m -54.25898,10e-6 v -54.7598 h 19.03237 v 54.7598 m -56.26235,-2e-5 v -72.12267 h 19.53322 v 72.12267 m -57.93184,0 V 285.3186 h 20.53492 v 46.24532 m -28.2061,2.83465 H 992.3478" /></g></g></g><g
       id="g214"
       transform="matrix(0.26458333,0,0,0.26458333,6.5123568,0.20944289)"><g
         id="g123"
         transform="matrix(1.217407,0,0,1.217407,-280.76484,45.008506)"
         style="stroke-width:0.821418;stroke:#212121;stroke-opacity:1"><g
           id="g121"
           style="stroke-width:0.821418;stroke:#212121;stroke-opacity:1"><path
             d="m 1260.9926,122.12587 c 0,3.32663 -2.6936,6.02029 -6.0204,6.02029 -3.3232,0 -6.0201,-2.69366 -6.0201,-6.02029"
             stroke="#000000"
             stroke-width="1.94275"
             stroke-miterlimit="8"
             fill="#cdeaf7"
             fill-rule="evenodd"
             id="path54"
             style="fill:none;stroke:#212121;stroke-opacity:1"
             sodipodi:nodetypes="csc" /><path
             d="m 1292.6421,122.12587 c 0,3.32663 -2.6937,6.02029 -6.0203,6.02029 -3.3267,0 -6.0203,-2.69366 -6.0203,-6.02029"
             stroke="#000000"
             stroke-width="1.94275"
             stroke-miterlimit="8"
             fill="#cdeaf7"
             fill-rule="evenodd"
             id="path55"
             style="fill:none;stroke:#212121;stroke-opacity:1"
             sodipodi:nodetypes="csc" /><path
             d="m 1297.2863,102.45287 c 3.3232,0 6.0203,3.23444 6.0203,7.22435 0,3.99059 -2.6971,7.22433 -6.0203,7.22433"
             stroke="#000000"
             stroke-width="1.94275"
             stroke-miterlimit="8"
             fill="#cdeaf7"
             fill-rule="evenodd"
             id="path56"
             style="fill:none;stroke:#212121;stroke-opacity:1"
             sodipodi:nodetypes="csc" /><path
             d="m 1244.6518,116.90155 c -3.3267,0 -6.0204,-3.23374 -6.0204,-7.22433 0,-3.98991 2.6937,-7.22435 6.0204,-7.22435"
             stroke="#000000"
             stroke-width="1.94275"
             stroke-miterlimit="8"
             fill="#cdeaf7"
             fill-rule="evenodd"
             id="path57"
             style="fill:none;stroke:#212121;stroke-opacity:1"
             sodipodi:nodetypes="csc" /><path
             id="rect57"
             style="fill:none;stroke:#212121;stroke-width:1.94275;stroke-miterlimit:8;stroke-opacity:1"
             d="m 1244.4797,97.40049 h 52.9786 v 24.55344 h -52.9786 z"
             sodipodi:nodetypes="ccccc" /><g
             id="g122"
             transform="translate(0,4)"
             style="stroke-width:0.821418;stroke:#212121;stroke-opacity:1;fill:none"><rect
               x="1251.7041"
               y="74.479568"
               width="39.561897"
               height="18.232841"
               stroke="#000000"
               stroke-width="1.94275"
               stroke-miterlimit="8"
               fill="#cdeaf7"
               id="rect58"
               style="fill:none;stroke:#212121;stroke-opacity:1" /><path
               id="rect59"
               style="fill:none;stroke:#212121;stroke-width:1.94275;stroke-miterlimit:8;stroke-opacity:1"
               d="M 1271.4851,74.479568 V 92.71241 Z"
               sodipodi:nodetypes="ccc" /></g><path
             d="m 3753.1936,796.73075 5.304,5.304 c -7.0317,8.18151 -7.9437,19.97872 -2.2542,29.14384 l -5.4098,5.40976 c -8.5201,-12.23459 -7.5437,-28.71358 2.36,-39.8576 z"
             id="path69"
             style="stroke-width:0.821418;stroke:#212121;stroke-opacity:1;fill:#212121;fill-opacity:1"
             clip-path="url(#clipPath109)"
             transform="matrix(0.3440165,0,0,0.3440165,-58.48275,-171.26715)" /><path
             d="m 3737.8661,786.70703 c 0.8884,-0.88834 1.7768,-1.77676 2.7714,-2.53238 l 5.304,5.30401 c -0.9722,0.78977 -1.9019,1.63039 -2.7848,2.51895 -14.4003,14.44419 -14.3944,37.818 0.013,52.25458 l -5.3038,5.30377 c -17.3348,-17.36408 -17.3342,-45.48485 1e-4,-62.84893 z"
             id="path70"
             style="stroke-width:0.821418;stroke:#212121;stroke-opacity:1;fill:#212121;fill-opacity:1"
             clip-path="url(#clipPath108)"
             transform="matrix(0.3440165,0,0,0.3440165,-58.48275,-171.33793)" /><path
             d="m 3724.2091,773.04997 c 0.8883,-0.88835 1.7767,-1.77677 2.7452,-2.55855 l 5.3033,5.3033 c -0.8751,0.87512 -1.8696,1.65747 -2.758,2.54582 -21.2364,21.23644 -21.2366,55.66711 -1e-4,76.90359 0,0.004 0.01,0.009 0.013,0.0133 0.4507,0.45078 0.8883,0.88834 1.3259,1.3259 l -5.3038,5.30377 -1.3259,-1.3259 c -24.1652,-24.16517 -24.1655,-63.34564 10e-5,-87.51122 z"
             id="path71"
             style="stroke-width:0.821418;stroke:#212121;stroke-opacity:1;fill:#212121;fill-opacity:1"
             clip-path="url(#clipPath107)"
             transform="matrix(0.3440165,0,0,0.3440165,-58.48275,-171.10536)" /><path
             d="m 3978.9964,838.85025 -5.304,-5.304 c 7.0317,-8.18151 7.9437,-19.97872 2.2542,-29.14384 l 5.4098,-5.40976 c 8.5201,12.23459 7.5437,28.71358 -2.36,39.8576 z"
             id="path76"
             style="stroke-width:0.821418;stroke:#212121;stroke-opacity:1;fill:#212121;fill-opacity:1"
             clip-path="url(#clipPath115)"
             transform="matrix(0.3440165,0,0,0.3440165,-58.48275,-172.04528)" /><path
             d="m 3994.3239,848.87397 c -0.8884,0.88834 -1.7768,1.77676 -2.7714,2.53238 l -5.304,-5.30401 c 0.9722,-0.78977 1.9019,-1.63039 2.7848,-2.51895 14.4003,-14.44419 14.3944,-37.818 -0.013,-52.25458 l 5.3038,-5.30377 c 17.3348,17.36408 17.3342,45.48485 -10e-5,62.84893 z"
             id="path77"
             style="stroke-width:0.821418;stroke:#212121;stroke-opacity:1;fill:#212121;fill-opacity:1"
             clip-path="url(#clipPath114)"
             transform="matrix(0.3440165,0,0,0.3440165,-58.48275,-171.9745)" /><path
             d="m 4007.9809,862.53103 c -0.8883,0.88835 -1.7767,1.77677 -2.7452,2.55855 l -5.3033,-5.3033 c 0.8751,-0.87512 1.8696,-1.65747 2.758,-2.54582 21.2364,-21.23644 21.2366,-55.66711 1e-4,-76.90359 0,-0.004 -0.01,-0.009 -0.013,-0.0133 -0.4507,-0.45078 -0.8883,-0.88834 -1.3259,-1.3259 l 5.3038,-5.30377 1.3259,1.3259 c 24.1652,24.16517 24.1655,63.34564 -10e-5,87.51122 z"
             id="path78"
             style="stroke-width:0.821418;stroke:#212121;stroke-opacity:1;fill:#212121;fill-opacity:1"
             clip-path="url(#clipPath113)"
             transform="matrix(0.3440165,0,0,0.3440165,-58.48275,-172.20707)" /></g></g><path
         id="path196"
         style="fill:none;fill-opacity:1;stroke:#212121;stroke-width:1.88975;stroke-linecap:butt;stroke-linejoin:round;stroke-dasharray:none;stroke-opacity:1"
         inkscape:transform-center-x="-1.0595517e-05"
         inkscape:transform-center-y="-34.157584"
         d="m 1267.1896,240.34841 v 10.65014 m 0,-10.65026 a 6.7111845,6.7111845 0 0 1 -6.7112,-6.71119 6.7111845,6.7111845 0 0 1 6.7112,-6.71119 6.7111845,6.7111845 0 0 1 6.7112,6.71119 6.7111845,6.7111845 0 0 1 -6.7112,6.71119 z m 39.4828,39.48277 a 6.7111845,6.7111845 0 0 1 6.7112,-6.71119 6.7111845,6.7111845 0 0 1 6.7113,6.71119 6.7111845,6.7111845 0 0 1 -6.7113,6.71119 6.7111845,6.7111845 0 0 1 -6.7112,-6.71119 z m -10e-5,3e-5 h -10.6501 m -28.8326,39.48268 v -10.65014 m 0,10.6502 a 6.7111845,6.7111845 0 0 1 6.7112,6.71119 6.7111845,6.7111845 0 0 1 -6.7112,6.71118 6.7111845,6.7111845 0 0 1 -6.7112,-6.71118 6.7111845,6.7111845 0 0 1 6.7112,-6.71119 z m -39.4827,-39.48277 10.6502,-0.003 m -10.6502,0.003 a 6.7111845,6.7111845 0 0 1 -6.7112,6.71119 6.7111845,6.7111845 0 0 1 -6.7112,-6.71119 6.7111845,6.7111845 0 0 1 6.7112,-6.71119 6.7111845,6.7111845 0 0 1 6.7112,6.71119 z m 28.613,1.94669 13.5087,-17.07607 -2.2063,12.05079 h 10.1439 l -14.7484,18.67484 2.5085,-13.64956 z m 6.4319,-30.77925 -1.0819,5.95675 a 23.532726,23.532726 0 0 0 -0.2289,0.0683 23.532726,23.532726 0 0 0 -0.2764,0.0654 23.532726,23.532726 0 0 0 -0.5885,0.19322 23.532726,23.532726 0 0 0 -0.03,0.009 23.532726,23.532726 0 0 0 -0.03,0.009 23.532726,23.532726 0 0 0 -1.5159,0.48749 23.532726,23.532726 0 0 0 -0.3388,0.11597 23.532726,23.532726 0 0 0 -0.1636,0.0683 23.532726,23.532726 0 0 0 -0.2109,0.0861 23.532726,23.532726 0 0 0 -0.5202,0.24076 23.532726,23.532726 0 0 0 -1.3703,0.65394 23.532726,23.532726 0 0 0 0,0.003 23.532726,23.532726 0 0 0 -0.5885,0.29428 23.532726,23.532726 0 0 0 -0.2379,0.13681 23.532726,23.532726 0 0 0 -0.015,0.003 23.532726,23.532726 0 0 0 -0.3003,0.18131 23.532726,23.532726 0 0 0 -0.015,0.006 23.532726,23.532726 0 0 0 -0.015,0.003 23.532726,23.532726 0 0 0 0,0.003 23.532726,23.532726 0 0 0 -0.3062,0.16646 l -4.9788,-3.44504 -3.1359,3.13889 -3.1419,3.13888 3.4481,4.97584 a 23.532726,23.532726 0 0 0 -0.1217,0.22888 23.532726,23.532726 0 0 0 -0.015,0.0152 23.532726,23.532726 0 0 0 -0.1217,0.19322 23.532726,23.532726 0 0 0 -0.044,0.0683 23.532726,23.532726 0 0 0 0,0.003 23.532726,23.532726 0 0 0 -0.2617,0.53207 23.532726,23.532726 0 0 0 -0.015,0.0208 23.532726,23.532726 0 0 0 -0.7312,1.42975 23.532726,23.532726 0 0 0 -0.1545,0.31211 23.532726,23.532726 0 0 0 -0.065,0.16348 23.532726,23.532726 0 0 0 -0.087,0.19915 23.532726,23.532726 0 0 0 -0.1992,0.53503 23.532726,23.532726 0 0 0 -0.5202,1.47433 23.532726,23.532726 0 0 0 -0.1902,0.56774 23.532726,23.532726 0 0 0 -0.053,0.15456 23.532726,23.532726 0 0 0 0,0.003 23.532726,23.532726 0 0 0 -0.034,0.14565 23.532726,23.532726 0 0 0 -0.093,0.36858 23.532726,23.532726 0 0 0 -0.097,0.3359 l -5.9568,1.08195 v 4.43784 4.44081 l 5.9568,1.08197 a 23.532726,23.532726 0 0 0 0.081,0.27345 23.532726,23.532726 0 0 0 0.047,0.21104 23.532726,23.532726 0 0 0 0.1932,0.60045 23.532726,23.532726 0 0 0 0.015,0.0356 23.532726,23.532726 0 0 0 0,0.003 23.532726,23.532726 0 0 0 0,0.003 23.532726,23.532726 0 0 0 0,0.009 23.532726,23.532726 0 0 0 0.4993,1.54864 23.532726,23.532726 0 0 0 0.1126,0.32399 23.532726,23.532726 0 0 0 0.068,0.16943 23.532726,23.532726 0 0 0 0.084,0.20212 23.532726,23.532726 0 0 0 0.2408,0.52018 23.532726,23.532726 0 0 0 0.015,0.0268 23.532726,23.532726 0 0 0 0.6511,1.36137 23.532726,23.532726 0 0 0 0.2882,0.57665 23.532726,23.532726 0 0 0 0.059,0.1248 23.532726,23.532726 0 0 0 0,0.003 23.532726,23.532726 0 0 0 0.081,0.1219 23.532726,23.532726 0 0 0 0,0.009 23.532726,23.532726 0 0 0 0.1962,0.32399 23.532726,23.532726 0 0 0 0.1665,0.30319 23.532726,23.532726 0 0 0 0,0.003 l -3.4482,4.97585 3.1389,3.13888 3.1389,3.13889 4.976,-3.44803 a 23.532726,23.532726 0 0 0 0.1035,0.0565 23.532726,23.532726 0 0 0 0.05,0.0297 23.532726,23.532726 0 0 0 0.072,0.0387 23.532726,23.532726 0 0 0 0.214,0.13377 23.532726,23.532726 0 0 0 0.5648,0.28834 23.532726,23.532726 0 0 0 1.5129,0.77282 23.532726,23.532726 0 0 0 0.2734,0.13378 23.532726,23.532726 0 0 0 0.1547,0.0654 23.532726,23.532726 0 0 0 0.2317,0.10105 23.532726,23.532726 0 0 0 0.087,0.0417 23.532726,23.532726 0 0 0 0.4042,0.13667 23.532726,23.532726 0 0 0 0.021,0.006 23.532726,23.532726 0 0 0 0.7133,0.29724 23.532726,23.532726 0 0 0 0.755,0.22591 23.532726,23.532726 0 0 0 0.6035,0.19915 23.532726,23.532726 0 0 0 0.1339,0.0475 23.532726,23.532726 0 0 0 0.143,0.0297 23.532726,23.532726 0 0 0 0,0.003 23.532726,23.532726 0 0 0 0.3715,0.0922 23.532726,23.532726 0 0 0 0.33,0.098 l 1.0819,5.95675 h 4.4378 4.4378 l 1.0821,-5.95675 a 23.532726,23.532726 0 0 0 0.2289,-0.0683 23.532726,23.532726 0 0 0 0.2794,-0.0654 23.532726,23.532726 0 0 0 0.5944,-0.19617 23.532726,23.532726 0 0 0 1.5724,-0.50533 23.532726,23.532726 0 0 0 0.015,-0.003 23.532726,23.532726 0 0 0 0.3151,-0.11003 23.532726,23.532726 0 0 0 0.1783,-0.0743 23.532726,23.532726 0 0 0 0.1933,-0.0773 23.532726,23.532726 0 0 0 0.5231,-0.24078 23.532726,23.532726 0 0 0 1.4149,-0.67474 23.532726,23.532726 0 0 0 0.5351,-0.27049 23.532726,23.532726 0 0 0 0,-0.003 23.532726,23.532726 0 0 0 0.2704,-0.15158 23.532726,23.532726 0 0 0 0.3091,-0.1843 23.532726,23.532726 0 0 0 0.3152,-0.16943 l 4.9758,3.44506 3.1389,-3.13592 3.1389,-3.14185 -3.448,-4.97288 a 23.532726,23.532726 0 0 0 0,-0.003 23.532726,23.532726 0 0 0 0.1309,-0.24078 23.532726,23.532726 0 0 0 0.1278,-0.20509 23.532726,23.532726 0 0 0 0.038,-0.0595 23.532726,23.532726 0 0 0 0,-0.003 23.532726,23.532726 0 0 0 0.22,-0.44587 23.532726,23.532726 0 0 0 0.024,-0.0475 23.532726,23.532726 0 0 0 0.015,-0.0208 23.532726,23.532726 0 0 0 0.746,-1.45352 23.532726,23.532726 0 0 0 0.1546,-0.31507 23.532726,23.532726 0 0 0 0.078,-0.18132 23.532726,23.532726 0 0 0 0.087,-0.20807 23.532726,23.532726 0 0 0 0.041,-0.0861 23.532726,23.532726 0 0 0 0.1461,-0.43398 23.532726,23.532726 0 0 0 0,-0.006 23.532726,23.532726 0 0 0 0,-0.009 23.532726,23.532726 0 0 0 0.4993,-1.40893 23.532726,23.532726 0 0 0 0.015,-0.0209 23.532726,23.532726 0 0 0 0,-0.003 23.532726,23.532726 0 0 0 0.205,-0.61827 23.532726,23.532726 0 0 0 0.081,-0.28237 23.532726,23.532726 0 0 0 0,-0.003 23.532726,23.532726 0 0 0 0.093,-0.36859 23.532726,23.532726 0 0 0 0.097,-0.32993 l 5.9567,-1.08196 v -4.43783 -4.44081 l -5.9538,-1.08197 a 23.532726,23.532726 0 0 0 -0.072,-0.23483 23.532726,23.532726 0 0 0 -0.062,-0.26156 23.532726,23.532726 0 0 0 0,-0.009 23.532726,23.532726 0 0 0 -0.2052,-0.63314 23.532726,23.532726 0 0 0 0,-0.0122 23.532726,23.532726 0 0 0 -0.4935,-1.52784 23.532726,23.532726 0 0 0 -0.1157,-0.33588 23.532726,23.532726 0 0 0 -0.056,-0.1426 23.532726,23.532726 0 0 0 -0.093,-0.22887 23.532726,23.532726 0 0 0 -0.035,-0.10106 23.532726,23.532726 0 0 0 -0.208,-0.42504 23.532726,23.532726 0 0 0 -0.6659,-1.39408 23.532726,23.532726 0 0 0 -0.2735,-0.54395 23.532726,23.532726 0 0 0 -0.143,-0.25563 23.532726,23.532726 0 0 0 -0.2021,-0.34183 23.532726,23.532726 0 0 0 -0.1665,-0.30319 l 3.4451,-4.97881 -3.1359,-3.13592 -3.1419,-3.14185 -4.9758,3.44801 a 23.532726,23.532726 0 0 0 -0.2289,-0.1248 23.532726,23.532726 0 0 0 -0.208,-0.13073 23.532726,23.532726 0 0 0 -0.6035,-0.30615 23.532726,23.532726 0 0 0 -1.1086,-0.6034 23.532726,23.532726 0 0 0 -0.3449,-0.1426 23.532726,23.532726 0 0 0 -0.2972,-0.14869 23.532726,23.532726 0 0 0 -0.1813,-0.0743 23.532726,23.532726 0 0 0 -0.1843,-0.0773 23.532726,23.532726 0 0 0 -0.5351,-0.19915 23.532726,23.532726 0 0 0 -1.4446,-0.51126 23.532726,23.532726 0 0 0 -0.6212,-0.20806 23.532726,23.532726 0 0 0 -0.015,-0.003 23.532726,23.532726 0 0 0 -0.2675,-0.0743 23.532726,23.532726 0 0 0 -0.015,-0.003 23.532726,23.532726 0 0 0 -0.3626,-0.0921 23.532726,23.532726 0 0 0 -0.333,-0.0982 l -1.0819,-5.95675 h -4.4378 z" /><g
         id="g212"><g
           id="g177"
           transform="matrix(1.5519301,0,0,1.547889,-636.75429,19.879429)"
           style="stroke-width:0.645199"><g
             id="g176"
             style="stroke-width:0.645199"><circle
               style="fill:none;fill-opacity:1;stroke:#212121;stroke-width:1.21927;stroke-linecap:butt;stroke-linejoin:round;stroke-dasharray:none;stroke-opacity:1"
               id="path155"
               cx="1255.6187"
               cy="31.262907"
               r="3.7256315" /><path
               id="rect156"
               style="fill:#212121;fill-opacity:1;stroke-width:1.95084;stroke-linejoin:round"
               d="m 1254.2716,25.325533 h 2.6942 l 0.4295,2.211742 h -3.5532 z"
               sodipodi:nodetypes="ccccc"
               inkscape:transform-center-y="-4.7820433" /><path
               id="rect156-5"
               style="fill:#212121;fill-opacity:1;stroke-width:1.95084;stroke-linejoin:round"
               d="m 1260.0442,27.102867 1.3471,2.333246 -1.7006,1.477829 -1.7766,-3.077162 z"
               sodipodi:nodetypes="ccccc"
               inkscape:transform-center-y="-2.2050428"
               inkscape:transform-center-x="-4.034" /><path
               id="rect156-8"
               style="fill:#212121;fill-opacity:1;stroke-width:1.95084;stroke-linejoin:round"
               d="m 1249.8461,29.436113 1.3471,-2.333246 2.1301,0.733913 -1.7766,3.077162 z"
               sodipodi:nodetypes="ccccc"
               inkscape:transform-center-y="-2.2050428"
               inkscape:transform-center-x="4.034" /><path
               id="rect156-81"
               style="fill:#212121;fill-opacity:1;stroke-width:1.95084;stroke-linejoin:round"
               d="m 1251.1932,35.324027 -1.3471,-2.333245 1.7006,-1.477829 1.7766,3.077161 z"
               sodipodi:nodetypes="ccccc"
               inkscape:transform-center-y="2.2050427"
               inkscape:transform-center-x="4.034" /><path
               id="rect156-3"
               style="fill:#212121;fill-opacity:1;stroke-width:1.95084;stroke-linejoin:round"
               d="m 1261.3913,32.990782 -1.3471,2.333245 -2.1301,-0.733913 1.7766,-3.077161 z"
               sodipodi:nodetypes="ccccc"
               inkscape:transform-center-y="2.2050427"
               inkscape:transform-center-x="-4.034" /><path
               id="rect156-4"
               style="fill:#212121;fill-opacity:1;stroke-width:1.95084;stroke-linejoin:round"
               d="m 1256.9658,37.101362 h -2.6942 l -0.4295,-2.211742 h 3.5532 z"
               sodipodi:nodetypes="ccccc"
               inkscape:transform-center-y="4.7820437" /></g><circle
             style="fill:none;fill-opacity:1;stroke:#212121;stroke-width:1.46313;stroke-linecap:butt;stroke-linejoin:round;stroke-dasharray:none;stroke-opacity:1"
             id="path156"
             cx="1255.6187"
             cy="31.213448"
             r="9.6942091" /><circle
             style="fill:none;fill-opacity:1;stroke:#212121;stroke-width:1.46313;stroke-linecap:butt;stroke-linejoin:round;stroke-dasharray:none;stroke-opacity:1"
             id="path157"
             cx="1282.2245"
             cy="12.108302"
             r="4.090095" /><path
             id="path159"
             style="fill:none;fill-opacity:1;stroke:#212121;stroke-width:1.46313;stroke-linecap:butt;stroke-linejoin:round;stroke-dasharray:none;stroke-opacity:1"
             d="m 1277.284,23.204206 h 9.7596 m 2.8685,-3.701269 c 3.5294,-4.167234 3.1177,-10.3826811 -0.9306,-14.0479619 -4.0482,-3.6652807 -10.2739,-3.4593345 -14.071,0.4654658 -3.7972,3.9248003 -3.3923,9.9918901 -2e-4,14.0787531 l 2.3737,3.205012 v 7.410766 h 9.7596 v -7.410766 z m -12.6281,6.891349 h 9.7596"
             sodipodi:nodetypes="cccsscccccccc" /><path
             id="rect159"
             style="fill:none;stroke:#212121;stroke-width:1.46313;stroke-linejoin:round;stroke-opacity:1"
             d="m 1278.7014,30.614972 7.0462,-1e-6 v 2.126038 c 0,1.177825 -0.9482,1.968545 -2.126,1.968545 h -2.7941 c -1.1779,0 -2.1261,-0.79072 -2.1261,-1.968545 z"
             sodipodi:nodetypes="ccssssc" /><path
             style="fill:none;fill-opacity:1;stroke:#212121;stroke-width:1.46313;stroke-linecap:butt;stroke-linejoin:round;stroke-dasharray:none;stroke-opacity:1"
             d="M 1260.1052,22.619942 1272.2131,12.55517"
             id="path160" /><path
             style="fill:none;fill-opacity:1;stroke:#212121;stroke-width:1.46313;stroke-linecap:butt;stroke-linejoin:round;stroke-dasharray:none;stroke-opacity:1"
             d="m 1264.8221,28.168218 9.328,-9.191975"
             id="path161" /><rect
             style="fill:none;fill-opacity:1;stroke:#212121;stroke-width:1.46313;stroke-linecap:butt;stroke-linejoin:round;stroke-dasharray:none;stroke-opacity:1"
             id="rect161"
             width="37.798187"
             height="6.7005877"
             x="1243.0449"
             y="55.26553"
             ry="0"
             rx="0" /><path
             style="fill:none;fill-opacity:1;stroke:#212121;stroke-width:1.46313;stroke-linecap:butt;stroke-linejoin:round;stroke-dasharray:none;stroke-opacity:1"
             d="M 1250.1464,55.26553 V 39.215446"
             id="path162" /><path
             style="fill:none;fill-opacity:1;stroke:#212121;stroke-width:1.46313;stroke-linecap:butt;stroke-linejoin:round;stroke-dasharray:none;stroke-opacity:1"
             d="M 1260.7413,55.26553 V 39.443627"
             id="path163" /></g><g
           id="g211"
           transform="matrix(1.4121281,0,0,1.4121281,-585.26406,-323.40327)"
           style="stroke-width:0.708151"><path
             style="fill:#212121;fill-opacity:1;stroke:#212121;stroke-width:1.33824;stroke-linecap:butt;stroke-linejoin:round;stroke-dasharray:none;stroke-opacity:1"
             d="m 1256.4113,247.9778 8.8595,8.3516 h 12.2669 l 9.1149,-8.3516 z"
             id="path197"
             sodipodi:nodetypes="ccccc" /><path
             id="path200"
             style="fill:none;fill-opacity:1;stroke:#212121;stroke-width:1.33824;stroke-linecap:butt;stroke-linejoin:round;stroke-dasharray:none;stroke-opacity:1"
             d="m 1271.4041,256.3294 10e-5,9.57512 24.064,16.95191 m -24.064,-16.95191 -24.064,16.95191"
             sodipodi:nodetypes="ccccc" /><path
             id="rect209"
             style="fill:#212121;fill-opacity:1;stroke:none;stroke-width:0.267648;stroke-linecap:round;stroke-linejoin:round;stroke-dasharray:none;stroke-opacity:1"
             d="m 1240.828,282.08772 c -0.9871,0 -1.7812,0.79412 -1.7812,1.78125 v 24.26953 c 0,0.98715 0.7941,1.78124 1.7812,1.78126 h 61.1524 c 0.9871,0 1.7812,-0.7941 1.7812,-1.78126 v -24.26953 c 0,-0.98713 -0.7941,-1.78125 -1.7812,-1.78125 z m 9.375,8.07422 c 1.0153,0 1.834,0.81675 1.834,1.83203 v 8.01953 c 0,1.01529 -0.8187,1.83204 -1.834,1.83204 -1.0153,0 -1.832,-0.81675 -1.832,-1.83204 v -8.01953 c 0,-1.01528 0.8167,-1.83203 1.832,-1.83203 z m 8.5254,0 c 1.0153,0 1.834,0.81675 1.834,1.83203 v 8.01953 c 0,1.01529 -0.8187,1.83204 -1.834,1.83204 -1.0153,0 -1.832,-0.81675 -1.832,-1.83204 v -8.01953 c 0,-1.01528 0.8167,-1.83203 1.832,-1.83203 z m 8.5274,0 c 1.0153,0 1.832,0.81675 1.832,1.83203 v 8.01953 c 0,1.01529 -0.8167,1.83204 -1.832,1.83204 -1.0152,0 -1.834,-0.81675 -1.834,-1.83204 v -8.01953 c 0,-1.01528 0.8188,-1.83203 1.834,-1.83203 z m 8.5253,0 c 1.0154,0 1.8321,0.81675 1.8321,1.83203 v 8.01953 c 0,1.01529 -0.8167,1.83204 -1.8321,1.83204 -1.0153,0 -1.832,-0.81675 -1.832,-1.83204 v -8.01953 c 0,-1.01528 0.8167,-1.83203 1.832,-1.83203 z m 8.5254,0 c 1.0153,0 1.8321,0.81675 1.8321,1.83203 v 8.01953 c 0,1.01529 -0.8168,1.83204 -1.8321,1.83204 -1.0153,0 -1.832,-0.81675 -1.832,-1.83204 v -8.01953 c 0,-1.01528 0.8167,-1.83203 1.832,-1.83203 z m 8.5254,0 c 1.0153,0 1.834,0.81675 1.834,1.83203 v 8.01953 c 0,1.01529 -0.8187,1.83204 -1.834,1.83204 -1.0152,0 -1.832,-0.81675 -1.832,-1.83204 v -8.01953 c 0,-1.01528 0.8168,-1.83203 1.832,-1.83203 z" /></g></g></g><g
       id="text214"
       style="font-size:12.7px;font-family:'Fira Sans';-inkscape-font-specification:'Fira Sans';fill:#212121;stroke-width:0.264999"
       aria-label="Specify&#10;Experiment"><path
         style="text-align:center;text-anchor:middle"
         d="m 15.309039,96.522158 c -1.6129,0 -2.7559,0.9398 -2.7559,2.286 0,1.358902 0.889,2.006602 2.5908,2.527302 1.4859,0.4572 1.8923,0.8382 1.8923,1.6891 0,1.0541 -0.8509,1.5621 -1.8796,1.5621 -0.9525,0 -1.6383,-0.3429 -2.286,-0.889 l -0.6731,0.7493 c 0.7239,0.7112 1.7145,1.1303 2.9718,1.1303 1.9685,0 3.1242,-1.0668 3.1242,-2.5908 0,-1.6764 -1.1938,-2.2225 -2.5908,-2.6543 -1.5748,-0.482602 -1.9177,-0.838202 -1.9177,-1.574802 0,-0.8382 0.6985,-1.2446 1.5748,-1.2446 0.7239,0 1.3335,0.2286 1.9939,0.762 l 0.6604,-0.7366 c -0.7366,-0.6604 -1.4986,-1.016 -2.7051,-1.016 z m 7.7724,2.0574 c -0.762,0 -1.4859,0.3683 -1.9812,1.0541 l -0.0889,-0.9017 h -1.0033 v 9.398002 l 1.1684,-0.1397 v -3.175 c 0.4318,0.5207 1.0287,0.762 1.7526,0.762 1.7272,0 2.6289,-1.4732 2.6289,-3.5052 0,-2.108202 -0.6985,-3.492502 -2.4765,-3.492502 z m -0.4318,6.045202 c -0.6096,0 -1.1303,-0.2921 -1.4732,-0.8128 v -3.2639 c 0.3556,-0.5334 0.9017,-1.041402 1.6129,-1.041402 1.0033,0 1.5113,0.825502 1.5113,2.565402 0,1.7526 -0.5842,2.5527 -1.651,2.5527 z m 9.956798,-2.7432 c 0,-2.044702 -0.9525,-3.302002 -2.7559,-3.302002 -1.7272,0 -2.7813,1.485902 -2.7813,3.568702 0,2.1209 1.0922,3.429 2.9591,3.429 0.9271,0 1.6764,-0.3175 2.3368,-0.8382 l -0.508,-0.6985 c -0.5842,0.4064 -1.0795,0.5842 -1.7399,0.5842 -0.9652,0 -1.6891,-0.5969 -1.8034,-2.1463 h 4.2672 c 0.0127,-0.1524 0.0254,-0.3683 0.0254,-0.5969 z m -1.1557,-0.2667 h -3.1369 c 0.0889,-1.4859 0.6731,-2.108202 1.5621,-2.108202 1.0541,0 1.5748,0.723902 1.5748,2.032002 z m 5.52449,-3.035302 c -1.8161,0 -2.921,1.422402 -2.921,3.556002 0,2.159 1.1176,3.4417 2.921,3.4417 0.7747,0 1.4478,-0.254 2.0447,-0.7366 l -0.5334,-0.762 c -0.508,0.3302 -0.9017,0.508 -1.4605,0.508 -1.0541,0 -1.7145,-0.7239 -1.7145,-2.4765 0,-1.7399 0.6604,-2.565402 1.7145,-2.565402 0.5588,0 0.9779,0.1651 1.4351,0.495302 l 0.5588,-0.736602 c -0.6223,-0.5207 -1.2573,-0.7239 -2.0447,-0.7239 z m 4.203709,-3.0607 c -0.4826,0 -0.8128,0.3429 -0.8128,0.8001 0,0.4445 0.3302,0.7874 0.8128,0.7874 0.4953,0 0.8255,-0.3429 0.8255,-0.7874 0,-0.4572 -0.3302,-0.8001 -0.8255,-0.8001 z m 0.5969,3.2131 h -1.1684 v 6.692902 h 1.1684 z m 4.686294,-1.8923 c 0.3429,0 0.7366,0.0635 1.1684,0.254 l 0.3683,-0.8509 c -0.5334,-0.2286 -0.9652,-0.3429 -1.6002,-0.3429 -1.3589,0 -2.0955,0.8001 -2.0955,1.9177 v 0.9144 h -1.1938 v 0.9017 h 1.1938 v 5.791202 h 1.1684 v -5.791202 h 1.4986 l 0.127,-0.9017 h -1.6256 v -0.9271 c 0,-0.6477 0.254,-0.9652 0.9906,-0.9652 z m 6.89609,1.8923 h -1.2065 l -1.7526,5.842002 -1.7907,-5.842002 h -1.2446 l 2.2479,6.692902 h 0.3937 c -0.381,1.0414 -0.762,1.5621 -2.1209,1.7907 l 0.127,0.9144 c 1.8542,-0.2032 2.6416,-1.2446 3.1115,-2.667 z"
         id="path1" /><path
         style="text-align:center;text-anchor:middle"
         d="M 5.7586397,112.54956 H 1.0215398 v 8.7503 h 4.8386999 v -0.9652 H 2.2280398 v -2.9972 h 2.9463999 v -0.9652 H 2.2280398 v -2.8575 h 3.3908999 z m 4.5592983,5.1689 2.0574,-3.1115 h -1.3208 l -1.4097003,2.4511 -1.3969999,-2.4511 h -1.3716 l 2.0701,3.1623 -2.3368,3.5306 h 1.3208 l 1.6636999,-2.8321 1.6383003,2.8321 h 1.4097 z m 6.667508,-3.2639 c -0.762,0 -1.4859,0.3683 -1.9812,1.0541 l -0.0889,-0.9017 h -1.0033 v 9.398 l 1.1684,-0.1397 v -3.175 c 0.4318,0.5207 1.0287,0.762 1.7526,0.762 1.7272,0 2.6289,-1.4732 2.6289,-3.5052 0,-2.1082 -0.6985,-3.4925 -2.4765,-3.4925 z m -0.4318,6.0452 c -0.6096,0 -1.1303,-0.2921 -1.4732,-0.8128 v -3.2639 c 0.3556,-0.5334 0.9017,-1.0414 1.6129,-1.0414 1.0033,0 1.5113,0.8255 1.5113,2.5654 0,1.7526 -0.5842,2.5527 -1.651,2.5527 z m 9.956796,-2.7432 c 0,-2.0447 -0.9525,-3.302 -2.755899,-3.302 -1.7272,0 -2.7813,1.4859 -2.7813,3.5687 0,2.1209 1.0922,3.429 2.959099,3.429 0.9271,0 1.6764,-0.3175 2.3368,-0.8382 l -0.508,-0.6985 c -0.5842,0.4064 -1.0795,0.5842 -1.7399,0.5842 -0.965199,0 -1.689099,-0.5969 -1.803399,-2.1463 h 4.267199 c 0.0127,-0.1524 0.0254,-0.3683 0.0254,-0.5969 z m -1.1557,-0.2667 h -3.136899 c 0.0889,-1.4859 0.6731,-2.1082 1.5621,-2.1082 1.054099,0 1.574799,0.7239 1.574799,2.032 z m 5.994392,-3.0353 c -0.8128,0 -1.4351,0.508 -1.7907,1.5113 l -0.1143,-1.3589 h -1.0033 v 6.6929 h 1.1684 v -3.8227 c 0.2794,-1.2827 0.762,-1.8796 1.6002,-1.8796 0.2413,0 0.381,0.0254 0.5842,0.0762 l 0.2159,-1.143 c -0.2032,-0.0508 -0.4445,-0.0762 -0.6604,-0.0762 z m 2.565396,-3.0607 c -0.4826,0 -0.8128,0.3429 -0.8128,0.8001 0,0.4445 0.3302,0.7874 0.8128,0.7874 0.4953,0 0.8255,-0.3429 0.8255,-0.7874 0,-0.4572 -0.3302,-0.8001 -0.8255,-0.8001 z m 0.5969,3.2131 h -1.1684 v 6.6929 h 1.1684 z m 9.131295,-0.1524 c -0.9017,0 -1.5113,0.4826 -1.9939,1.2065 -0.254,-0.762 -0.8636,-1.2065 -1.6891,-1.2065 -0.8763,0 -1.4859,0.4572 -1.9304,1.1303 l -0.1016,-0.9779 h -1.0033 v 6.6929 h 1.1684 v -4.7498 c 0.4445,-0.7112 0.8509,-1.1811 1.5748,-1.1811 0.508,0 0.9398,0.2921 0.9398,1.2954 v 4.6355 h 1.1684 v -4.7498 c 0.4572,-0.7112 0.8509,-1.1811 1.5748,-1.1811 0.508,0 0.9398,0.2921 0.9398,1.2954 v 4.6355 h 1.1684 v -4.8006 c 0,-1.2573 -0.7239,-2.0447 -1.8161,-2.0447 z m 9.220203,3.302 c 0,-2.0447 -0.9525,-3.302 -2.7559,-3.302 -1.7272,0 -2.7813,1.4859 -2.7813,3.5687 0,2.1209 1.0922,3.429 2.9591,3.429 0.9271,0 1.6764,-0.3175 2.3368,-0.8382 l -0.508,-0.6985 c -0.5842,0.4064 -1.0795,0.5842 -1.7399,0.5842 -0.9652,0 -1.6891,-0.5969 -1.8034,-2.1463 h 4.2672 c 0.0127,-0.1524 0.0254,-0.3683 0.0254,-0.5969 z m -1.1557,-0.2667 h -3.1369 c 0.0889,-1.4859 0.6731,-2.1082 1.5621,-2.1082 1.0541,0 1.5748,0.7239 1.5748,2.032 z m 6.235689,-3.0353 c -0.8763,0 -1.5875,0.4572 -2.0447,1.143 l -0.1016,-0.9906 h -1.0033 v 6.6929 h 1.1684 v -4.7498 c 0.4445,-0.7112 0.9525,-1.1811 1.7018,-1.1811 0.6477,0 1.0541,0.2921 1.0541,1.2954 v 4.6355 h 1.1684 v -4.8006 c 0,-1.27 -0.7112,-2.0447 -1.9431,-2.0447 z m 7.226308,5.7404 c -0.3302,0.2032 -0.5969,0.2921 -0.889,0.2921 -0.5842,0 -0.8001,-0.3175 -0.8001,-0.9906 v -3.9878 h 1.4605 l 0.127,-0.9017 h -1.5875 v -1.651 l -1.1684,0.1397 v 1.5113 h -1.1684 v 0.9017 h 1.1684 v 4.0386 c 0,1.2446 0.6731,1.905 1.8034,1.905 0.5715,0 1.0541,-0.1524 1.4986,-0.4572 z"
         id="path2" /></g><g
       id="text214-0"
       style="font-size:12.7px;font-family:'Fira Sans';-inkscape-font-specification:'Fira Sans';fill:#212121;stroke-width:0.264999"
       aria-label="Collect&#10;Data"><path
         style="text-align:center;text-anchor:middle"
         d="m 94.738456,97.608019 c -1.9812,0 -3.6322,1.5621 -3.6322,4.521201 0,2.9464 1.5367,4.5339 3.6576,4.5339 1.1811,0 2.032,-0.4826 2.5019,-0.9779 l -0.6096,-0.7747 c -0.4953,0.3683 -1.0287,0.7366 -1.8542,0.7366 -1.3589,0 -2.413,-0.9906 -2.413,-3.5179 0,-2.641601 1.1049,-3.530601 2.4257,-3.530601 0.6096,0 1.143,0.2032 1.6891,0.6477 l 0.6604,-0.7747 c -0.6985,-0.5588 -1.3208,-0.8636 -2.4257,-0.8636 z m 6.375394,2.0574 c -1.905004,0 -2.997204,1.435101 -2.997204,3.505201 0,2.1209 1.0795,3.4925 2.984504,3.4925 1.8923,0 2.9845,-1.4351 2.9845,-3.5052 0,-2.1209 -1.0668,-3.492501 -2.9718,-3.492501 z m 0,0.939801 c 1.1049,0 1.7145,0.8128 1.7145,2.5527 0,1.7526 -0.6096,2.5654 -1.7272,2.5654 -1.117604,0 -1.727204,-0.8128 -1.727204,-2.5527 0,-1.7526 0.6223,-2.5654 1.739904,-2.5654 z m 6.23569,6.0579 c 0.3429,0 0.6731,-0.0889 0.9271,-0.2286 l -0.3048,-0.8128 c -0.127,0.0508 -0.2667,0.0762 -0.4318,0.0762 -0.3048,0 -0.4191,-0.1778 -0.4191,-0.5334 v -8.178801 l -1.1684,0.1397 v 8.064501 c 0,0.9525 0.5461,1.4732 1.397,1.4732 z m 3.72109,0 c 0.3429,0 0.6731,-0.0889 0.9271,-0.2286 l -0.3048,-0.8128 c -0.127,0.0508 -0.2667,0.0762 -0.4318,0.0762 -0.3048,0 -0.4191,-0.1778 -0.4191,-0.5334 v -8.178801 l -1.1684,0.1397 v 8.064501 c 0,0.9525 0.5461,1.4732 1.397,1.4732 z m 7.31519,-3.6957 c 0,-2.0447 -0.9525,-3.302001 -2.7559,-3.302001 -1.7272,0 -2.7813,1.485901 -2.7813,3.568701 0,2.1209 1.0922,3.429 2.9591,3.429 0.9271,0 1.6764,-0.3175 2.3368,-0.8382 l -0.508,-0.6985 c -0.5842,0.4064 -1.0795,0.5842 -1.7399,0.5842 -0.9652,0 -1.6891,-0.5969 -1.8034,-2.1463 h 4.2672 c 0.0127,-0.1524 0.0254,-0.3683 0.0254,-0.5969 z m -1.1557,-0.2667 h -3.1369 c 0.0889,-1.4859 0.6731,-2.1082 1.5621,-2.1082 1.0541,0 1.5748,0.7239 1.5748,2.032 z m 5.52449,-3.035301 c -1.8161,0 -2.921,1.422401 -2.921,3.556001 0,2.159 1.1176,3.4417 2.921,3.4417 0.7747,0 1.4478,-0.254 2.0447,-0.7366 l -0.5334,-0.762 c -0.508,0.3302 -0.9017,0.508 -1.4605,0.508 -1.0541,0 -1.7145,-0.7239 -1.7145,-2.4765 0,-1.7399 0.6604,-2.5654 1.7145,-2.5654 0.5588,0 0.9779,0.1651 1.4351,0.4953 l 0.5588,-0.7366 c -0.6223,-0.520701 -1.2573,-0.723901 -2.0447,-0.723901 z m 6.56591,5.740401 c -0.3302,0.2032 -0.5969,0.2921 -0.889,0.2921 -0.5842,0 -0.8001,-0.3175 -0.8001,-0.9906 v -3.9878 h 1.4605 l 0.127,-0.901701 h -1.5875 v -1.651 l -1.1684,0.1397 v 1.5113 h -1.1684 v 0.901701 h 1.1684 v 4.0386 c 0,1.2446 0.6731,1.905 1.8034,1.905 0.5715,0 1.0541,-0.1524 1.4986,-0.4572 z"
         id="path3" /><path
         style="text-align:center;text-anchor:middle"
         d="m 99.958137,113.63542 h -1.8288 v 8.7503 h 2.095503 c 1.8923,0 4.1148,-0.8509 4.1148,-4.4196 0,-3.6322 -2.1463,-4.3307 -4.381503,-4.3307 z m 0.266703,0.9652 c 1.397,0 2.8321,0.4064 2.8321,3.3655 0,2.8829 -1.3716,3.4671 -2.7432,3.4671 h -0.977903 v -6.8326 z m 10.40128,6.223 v -3.0607 c 0,-1.397 -0.7366,-2.2225 -2.3495,-2.2225 -0.7493,0 -1.4859,0.1524 -2.3114,0.4572 l 0.2921,0.8509 c 0.6858,-0.2286 1.3081,-0.3556 1.8034,-0.3556 0.9271,0 1.397,0.3556 1.397,1.3208 v 0.4953 h -1.0287 c -1.8669,0 -2.9464,0.7747 -2.9464,2.2098 0,1.1938 0.8001,2.0193 2.1336,2.0193 0.8128,0 1.524,-0.3048 1.9939,-1.0033 0.2032,0.6604 0.635,0.9271 1.3081,1.0033 l 0.2667,-0.8128 c -0.3429,-0.127 -0.5588,-0.3175 -0.5588,-0.9017 z m -2.7432,0.8382 c -0.762,0 -1.1557,-0.4191 -1.1557,-1.2065 0,-0.9144 0.6223,-1.3716 1.8542,-1.3716 h 0.8763 v 1.5367 c -0.381,0.6985 -0.889,1.0414 -1.5748,1.0414 z m 8.07721,-0.381 c -0.3302,0.2032 -0.5969,0.2921 -0.889,0.2921 -0.5842,0 -0.8001,-0.3175 -0.8001,-0.9906 v -3.9878 h 1.4605 l 0.127,-0.9017 h -1.5875 v -1.651 l -1.1684,0.1397 v 1.5113 h -1.1684 v 0.9017 h 1.1684 v 4.0386 c 0,1.2446 0.6731,1.905 1.8034,1.905 0.5715,0 1.0541,-0.1524 1.4986,-0.4572 z m 6.1595,-0.4572 v -3.0607 c 0,-1.397 -0.7366,-2.2225 -2.3495,-2.2225 -0.7493,0 -1.4859,0.1524 -2.3114,0.4572 l 0.2921,0.8509 c 0.6858,-0.2286 1.3081,-0.3556 1.8034,-0.3556 0.9271,0 1.397,0.3556 1.397,1.3208 v 0.4953 h -1.0287 c -1.8669,0 -2.9464,0.7747 -2.9464,2.2098 0,1.1938 0.8001,2.0193 2.1336,2.0193 0.8128,0 1.524,-0.3048 1.9939,-1.0033 0.2032,0.6604 0.635,0.9271 1.3081,1.0033 l 0.2667,-0.8128 c -0.3429,-0.127 -0.5588,-0.3175 -0.5588,-0.9017 z m -2.7432,0.8382 c -0.762,0 -1.1557,-0.4191 -1.1557,-1.2065 0,-0.9144 0.6223,-1.3716 1.8542,-1.3716 h 0.8763 v 1.5367 c -0.381,0.6985 -0.889,1.0414 -1.5748,1.0414 z"
         id="path4" /></g><g
       id="text214-6"
       style="font-size:12.7px;font-family:'Fira Sans';-inkscape-font-specification:'Fira Sans';fill:#212121;stroke-width:0.264999"
       aria-label="Learn&#10;Model"><path
         style="text-align:center;text-anchor:middle"
         d="m 173.48203,97.373067 h -1.2065 v 8.750303 h 4.6609 l 0.1397,-1.0541 h -3.5941 z m 10.10919,5.207003 c 0,-2.0447 -0.9525,-3.302003 -2.7559,-3.302003 -1.7272,0 -2.7813,1.485903 -2.7813,3.568703 0,2.1209 1.0922,3.429 2.9591,3.429 0.9271,0 1.6764,-0.3175 2.3368,-0.8382 l -0.508,-0.6985 c -0.5842,0.4064 -1.0795,0.5842 -1.7399,0.5842 -0.9652,0 -1.6891,-0.5969 -1.8034,-2.1463 h 4.2672 c 0.0127,-0.1524 0.0254,-0.3683 0.0254,-0.5969 z m -1.1557,-0.2667 h -3.1369 c 0.0889,-1.4859 0.6731,-2.1082 1.5621,-2.1082 1.0541,0 1.5748,0.7239 1.5748,2.032 z m 7.59459,2.2479 v -3.0607 c 0,-1.397 -0.7366,-2.222503 -2.3495,-2.222503 -0.7493,0 -1.4859,0.1524 -2.3114,0.4572 l 0.2921,0.850903 c 0.6858,-0.2286 1.3081,-0.3556 1.8034,-0.3556 0.9271,0 1.397,0.3556 1.397,1.3208 v 0.4953 h -1.0287 c -1.8669,0 -2.9464,0.7747 -2.9464,2.2098 0,1.1938 0.8001,2.0193 2.1336,2.0193 0.8128,0 1.524,-0.3048 1.9939,-1.0033 0.2032,0.6604 0.635,0.9271 1.3081,1.0033 l 0.2667,-0.8128 c -0.3429,-0.127 -0.5588,-0.3175 -0.5588,-0.9017 z m -2.7432,0.8382 c -0.762,0 -1.1557,-0.4191 -1.1557,-1.2065 0,-0.9144 0.6223,-1.3716 1.8542,-1.3716 h 0.8763 v 1.5367 c -0.381,0.6985 -0.889,1.0414 -1.5748,1.0414 z m 8.05181,-6.121403 c -0.8128,0 -1.4351,0.508 -1.7907,1.511303 l -0.1143,-1.358903 h -1.0033 v 6.692903 h 1.1684 v -3.8227 c 0.2794,-1.2827 0.762,-1.8796 1.6002,-1.8796 0.2413,0 0.381,0.0254 0.5842,0.0762 l 0.2159,-1.143003 c -0.2032,-0.0508 -0.4445,-0.0762 -0.6604,-0.0762 z m 5.14349,0 c -0.8763,0 -1.5875,0.4572 -2.0447,1.143003 l -0.1016,-0.990603 h -1.0033 v 6.692903 h 1.1684 v -4.7498 c 0.4445,-0.7112 0.9525,-1.1811 1.7018,-1.1811 0.6477,0 1.0541,0.2921 1.0541,1.2954 v 4.6355 h 1.1684 v -4.8006 c 0,-1.27 -0.7112,-2.044703 -1.9431,-2.044703 z"
         id="path5" /><path
         style="text-align:center;text-anchor:middle"
         d="m 177.77464,113.24807 h -1.6383 l -1.7526,6.3627 -1.8415,-6.3627 h -1.6256 l -0.7239,8.7503 h 1.143 l 0.2921,-3.8608 c 0.1016,-1.2827 0.1651,-2.6416 0.1651,-3.6703 l 1.9939,6.5405 h 1.1303 l 1.8923,-6.5278 c 0.0127,0.7239 0.1016,2.1971 0.2159,3.5687 l 0.3048,3.9497 h 1.1684 z m 5.3975,1.905 c -1.905,0 -2.9972,1.4351 -2.9972,3.5052 0,2.1209 1.0795,3.4925 2.9845,3.4925 1.8923,0 2.9845,-1.4351 2.9845,-3.5052 0,-2.1209 -1.0668,-3.4925 -2.9718,-3.4925 z m 0,0.9398 c 1.1049,0 1.7145,0.8128 1.7145,2.5527 0,1.7526 -0.6096,2.5654 -1.7272,2.5654 -1.1176,0 -1.7272,-0.8128 -1.7272,-2.5527 0,-1.7526 0.6223,-2.5654 1.7399,-2.5654 z m 8.9154,-3.6195 v 3.5052 c -0.4445,-0.4699 -1.016,-0.8255 -1.8034,-0.8255 -1.6383,0 -2.6289,1.4859 -2.6289,3.5306 0,2.0828 0.9017,3.4671 2.5273,3.4671 0.8255,0 1.4986,-0.4064 1.9304,-1.0795 l 0.1143,0.9271 h 1.0287 v -9.3853 z m -1.651,8.7503 c -0.9652,0 -1.524,-0.8001 -1.524,-2.5654 0,-1.7399 0.6223,-2.5781 1.6256,-2.5781 0.6604,0 1.1303,0.3429 1.5494,0.8763 v 3.2766 c -0.4445,0.6223 -0.9017,0.9906 -1.651,0.9906 z m 10.28699,-2.7686 c 0,-2.0447 -0.9525,-3.302 -2.7559,-3.302 -1.7272,0 -2.7813,1.4859 -2.7813,3.5687 0,2.1209 1.0922,3.429 2.9591,3.429 0.9271,0 1.6764,-0.3175 2.3368,-0.8382 l -0.508,-0.6985 c -0.5842,0.4064 -1.0795,0.5842 -1.7399,0.5842 -0.9652,0 -1.6891,-0.5969 -1.8034,-2.1463 h 4.2672 c 0.0127,-0.1524 0.0254,-0.3683 0.0254,-0.5969 z m -1.1557,-0.2667 h -3.1369 c 0.0889,-1.4859 0.6731,-2.1082 1.5621,-2.1082 1.0541,0 1.5748,0.7239 1.5748,2.032 z m 4.41959,3.9624 c 0.3429,0 0.6731,-0.0889 0.9271,-0.2286 l -0.3048,-0.8128 c -0.127,0.0508 -0.2667,0.0762 -0.4318,0.0762 -0.3048,0 -0.4191,-0.1778 -0.4191,-0.5334 v -8.1788 l -1.1684,0.1397 v 8.0645 c 0,0.9525 0.5461,1.4732 1.397,1.4732 z"
         id="path6" /></g><path
       style="font-size:12.7px;font-family:'Fira Sans';-inkscape-font-specification:'Fira Sans';text-align:center;text-anchor:middle;fill:#212121;stroke-width:0.264999"
       d="m 245.69784,105.69792 h -4.7371 v 8.7503 h 4.8387 v -0.9652 h -3.6322 v -2.9972 h 2.9464 v -0.9652 h -2.9464 v -2.8575 h 3.3909 z m 6.90879,2.0574 h -1.2319 l -1.7399,5.6515 -1.7526,-5.6515 h -1.27 l 2.3114,6.6929 h 1.4097 z m 5.84201,5.1308 v -3.0607 c 0,-1.397 -0.7366,-2.2225 -2.3495,-2.2225 -0.7493,0 -1.4859,0.1524 -2.3114,0.4572 l 0.2921,0.8509 c 0.6858,-0.2286 1.3081,-0.3556 1.8034,-0.3556 0.9271,0 1.397,0.3556 1.397,1.3208 v 0.4953 h -1.0287 c -1.8669,0 -2.9464,0.7747 -2.9464,2.2098 0,1.1938 0.8001,2.0193 2.1336,2.0193 0.8128,0 1.524,-0.3048 1.9939,-1.0033 0.2032,0.6604 0.635,0.9271 1.3081,1.0033 l 0.2667,-0.8128 c -0.3429,-0.127 -0.5588,-0.3175 -0.5588,-0.9017 z m -2.7432,0.8382 c -0.762,0 -1.1557,-0.4191 -1.1557,-1.2065 0,-0.9144 0.6223,-1.3716 1.8542,-1.3716 h 0.8763 v 1.5367 c -0.381,0.6985 -0.889,1.0414 -1.5748,1.0414 z m 6.47701,0.8763 c 0.3429,0 0.6731,-0.0889 0.9271,-0.2286 l -0.3048,-0.8128 c -0.127,0.0508 -0.2667,0.0762 -0.4318,0.0762 -0.3048,0 -0.4191,-0.1778 -0.4191,-0.5334 v -8.1788 l -1.1684,0.1397 v 8.0645 c 0,0.9525 0.5461,1.4732 1.397,1.4732 z m 7.36599,-6.8453 h -1.1684 v 4.7752 c -0.4064,0.6731 -0.9525,1.1557 -1.6764,1.1557 -0.7239,0 -1.0287,-0.3429 -1.0287,-1.2573 v -4.6736 h -1.1684 v 4.8006 c 0,1.3081 0.6985,2.0447 1.8669,2.0447 0.9525,0 1.5748,-0.381 2.0828,-1.1938 l 0.0889,1.0414 h 1.0033 z m 6.92151,5.1308 v -3.0607 c 0,-1.397 -0.7366,-2.2225 -2.3495,-2.2225 -0.7493,0 -1.4859,0.1524 -2.3114,0.4572 l 0.2921,0.8509 c 0.6858,-0.2286 1.3081,-0.3556 1.8034,-0.3556 0.9271,0 1.397,0.3556 1.397,1.3208 v 0.4953 h -1.0287 c -1.8669,0 -2.9464,0.7747 -2.9464,2.2098 0,1.1938 0.8001,2.0193 2.1336,2.0193 0.8128,0 1.524,-0.3048 1.9939,-1.0033 0.2032,0.6604 0.635,0.9271 1.3081,1.0033 l 0.2667,-0.8128 c -0.3429,-0.127 -0.5588,-0.3175 -0.5588,-0.9017 z m -2.7432,0.8382 c -0.762,0 -1.1557,-0.4191 -1.1557,-1.2065 0,-0.9144 0.6223,-1.3716 1.8542,-1.3716 h 0.8763 v 1.5367 c -0.381,0.6985 -0.889,1.0414 -1.5748,1.0414 z m 8.07721,-0.381 c -0.3302,0.2032 -0.5969,0.2921 -0.889,0.2921 -0.5842,0 -0.8001,-0.3175 -0.8001,-0.9906 v -3.9878 h 1.4605 l 0.127,-0.9017 h -1.5875 v -1.651 l -1.1684,0.1397 v 1.5113 h -1.1684 v 0.9017 h 1.1684 v 4.0386 c 0,1.2446 0.6731,1.905 1.8034,1.905 0.5715,0 1.0541,-0.1524 1.4986,-0.4572 z m 6.57859,-2.4384 c 0,-2.0447 -0.9525,-3.302 -2.7559,-3.302 -1.7272,0 -2.7813,1.4859 -2.7813,3.5687 0,2.1209 1.0922,3.429 2.9591,3.429 0.9271,0 1.6764,-0.3175 2.3368,-0.8382 l -0.508,-0.6985 c -0.5842,0.4064 -1.0795,0.5842 -1.7399,0.5842 -0.9652,0 -1.6891,-0.5969 -1.8034,-2.1463 h 4.2672 c 0.0127,-0.1524 0.0254,-0.3683 0.0254,-0.5969 z m -1.1557,-0.2667 h -3.1369 c 0.0889,-1.4859 0.6731,-2.1082 1.5621,-2.1082 1.0541,0 1.5748,0.7239 1.5748,2.032 z"
       id="text214-4"
       aria-label="Evaluate" /><g
       id="text214-48"
       style="font-size:12.7px;font-family:'Fira Sans';-inkscape-font-specification:'Fira Sans';fill:#212121;stroke-width:0.264999"
       aria-label="Apply in&#10;Domain"><path
         style="text-align:center;text-anchor:middle"
         d="m 324.89232,106.70121 h 1.27 l -2.794,-8.7503 h -1.524 l -2.8067,8.7503 h 1.2192 l 0.6604,-2.1971 h 3.3147 z m -3.683,-3.175 1.3716,-4.572 1.3589,4.572 z m 9.3091,-3.6703 c -0.762,0 -1.4859,0.3683 -1.9812,1.0541 l -0.0889,-0.9017 h -1.0033 v 9.398 l 1.1684,-0.1397 v -3.175 c 0.4318,0.5207 1.0287,0.762 1.7526,0.762 1.7272,0 2.6289,-1.4732 2.6289,-3.5052 0,-2.1082 -0.6985,-3.4925 -2.4765,-3.4925 z m -0.4318,6.0452 c -0.6096,0 -1.1303,-0.2921 -1.4732,-0.8128 v -3.2639 c 0.3556,-0.5334 0.9017,-1.0414 1.6129,-1.0414 1.0033,0 1.5113,0.8255 1.5113,2.5654 0,1.7526 -0.5842,2.5527 -1.651,2.5527 z m 7.97559,-6.0452 c -0.762,0 -1.4859,0.3683 -1.9812,1.0541 l -0.0889,-0.9017 h -1.0033 v 9.398 l 1.1684,-0.1397 v -3.175 c 0.4318,0.5207 1.0287,0.762 1.7526,0.762 1.7272,0 2.6289,-1.4732 2.6289,-3.5052 0,-2.1082 -0.6985,-3.4925 -2.4765,-3.4925 z m -0.4318,6.0452 c -0.6096,0 -1.1303,-0.2921 -1.4732,-0.8128 v -3.2639 c 0.3556,-0.5334 0.9017,-1.0414 1.6129,-1.0414 1.0033,0 1.5113,0.8255 1.5113,2.5654 0,1.7526 -0.5842,2.5527 -1.651,2.5527 z m 6.2357,0.9525 c 0.3429,0 0.6731,-0.0889 0.9271,-0.2286 l -0.3048,-0.8128 c -0.127,0.0508 -0.2667,0.0762 -0.4318,0.0762 -0.3048,0 -0.4191,-0.1778 -0.4191,-0.5334 v -8.1788 l -1.1684,0.1397 v 8.0645 c 0,0.9525 0.5461,1.4732 1.397,1.4732 z m 7.30249,-6.8453 h -1.2065 l -1.7526,5.842 -1.7907,-5.842 h -1.2446 l 2.2479,6.6929 h 0.3937 c -0.381,1.0414 -0.762,1.5621 -2.1209,1.7907 l 0.127,0.9144 c 1.8542,-0.2032 2.6416,-1.2446 3.1115,-2.667 z m 5.2705,-3.2131 c -0.4826,0 -0.8128,0.3429 -0.8128,0.8001 0,0.4445 0.3302,0.7874 0.8128,0.7874 0.4953,0 0.8255,-0.3429 0.8255,-0.7874 0,-0.4572 -0.3302,-0.8001 -0.8255,-0.8001 z m 0.5969,3.2131 h -1.1684 v 6.6929 h 1.1684 z m 5.56259,-0.1524 c -0.8763,0 -1.5875,0.4572 -2.0447,1.143 l -0.1016,-0.9906 h -1.0033 v 6.6929 h 1.1684 v -4.7498 c 0.4445,-0.7112 0.9525,-1.1811 1.7018,-1.1811 0.6477,0 1.0541,0.2921 1.0541,1.2954 v 4.6355 h 1.1684 v -4.8006 c 0,-1.27 -0.7112,-2.0447 -1.9431,-2.0447 z"
         id="path7" /><path
         style="text-align:center;text-anchor:middle"
         d="m 323.21591,113.82591 h -1.8288 v 8.7503 h 2.0955 c 1.8923,0 4.1148,-0.8509 4.1148,-4.4196 0,-3.6322 -2.1463,-4.3307 -4.3815,-4.3307 z m 0.2667,0.9652 c 1.397,0 2.8321,0.4064 2.8321,3.3655 0,2.8829 -1.3716,3.4671 -2.7432,3.4671 h -0.9779 v -6.8326 z m 8.53439,0.9398 c -1.905,0 -2.9972,1.4351 -2.9972,3.5052 0,2.1209 1.0795,3.4925 2.9845,3.4925 1.8923,0 2.9845,-1.4351 2.9845,-3.5052 0,-2.1209 -1.0668,-3.4925 -2.9718,-3.4925 z m 0,0.9398 c 1.1049,0 1.7145,0.8128 1.7145,2.5527 0,1.7526 -0.6096,2.5654 -1.7272,2.5654 -1.1176,0 -1.7272,-0.8128 -1.7272,-2.5527 0,-1.7526 0.6223,-2.5654 1.7399,-2.5654 z m 11.62049,-0.9398 c -0.9017,0 -1.5113,0.4826 -1.9939,1.2065 -0.254,-0.762 -0.8636,-1.2065 -1.6891,-1.2065 -0.8763,0 -1.4859,0.4572 -1.9304,1.1303 l -0.1016,-0.9779 h -1.0033 v 6.6929 h 1.1684 v -4.7498 c 0.4445,-0.7112 0.8509,-1.1811 1.5748,-1.1811 0.508,0 0.9398,0.2921 0.9398,1.2954 v 4.6355 h 1.1684 v -4.7498 c 0.4572,-0.7112 0.8509,-1.1811 1.5748,-1.1811 0.508,0 0.9398,0.2921 0.9398,1.2954 v 4.6355 h 1.1684 v -4.8006 c 0,-1.2573 -0.7239,-2.0447 -1.8161,-2.0447 z m 8.67411,5.2832 v -3.0607 c 0,-1.397 -0.7366,-2.2225 -2.3495,-2.2225 -0.7493,0 -1.4859,0.1524 -2.3114,0.4572 l 0.2921,0.8509 c 0.6858,-0.2286 1.3081,-0.3556 1.8034,-0.3556 0.9271,0 1.397,0.3556 1.397,1.3208 v 0.4953 h -1.0287 c -1.8669,0 -2.9464,0.7747 -2.9464,2.2098 0,1.1938 0.8001,2.0193 2.1336,2.0193 0.8128,0 1.524,-0.3048 1.9939,-1.0033 0.2032,0.6604 0.635,0.9271 1.3081,1.0033 l 0.2667,-0.8128 c -0.3429,-0.127 -0.5588,-0.3175 -0.5588,-0.9017 z m -2.7432,0.8382 c -0.762,0 -1.1557,-0.4191 -1.1557,-1.2065 0,-0.9144 0.6223,-1.3716 1.8542,-1.3716 h 0.8763 v 1.5367 c -0.381,0.6985 -0.889,1.0414 -1.5748,1.0414 z m 5.71501,-9.1821 c -0.4826,0 -0.8128,0.3429 -0.8128,0.8001 0,0.4445 0.3302,0.7874 0.8128,0.7874 0.4953,0 0.8255,-0.3429 0.8255,-0.7874 0,-0.4572 -0.3302,-0.8001 -0.8255,-0.8001 z m 0.5969,3.2131 h -1.1684 v 6.6929 h 1.1684 z m 5.56259,-0.1524 c -0.8763,0 -1.5875,0.4572 -2.0447,1.143 l -0.1016,-0.9906 h -1.0033 v 6.6929 h 1.1684 v -4.7498 c 0.4445,-0.7112 0.9525,-1.1811 1.7018,-1.1811 0.6477,0 1.0541,0.2921 1.0541,1.2954 v 4.6355 h 1.1684 v -4.8006 c 0,-1.27 -0.7112,-2.0447 -1.9431,-2.0447 z"
         id="path8" /></g></g></svg>
