<?xml version="1.0" encoding="UTF-8" standalone="no"?>
<!-- Created with Inkscape (http://www.inkscape.org/) -->

<svg
   width="37cm"
   height="13cm"
   viewBox="0 0 370 130"
   version="1.1"
   id="svg1"
   inkscape:version="1.4.2 (ebf0e940d0, 2025-05-08)"
   sodipodi:docname="pipeline-light.svg"
   xml:space="preserve"
   xmlns:inkscape="http://www.inkscape.org/namespaces/inkscape"
   xmlns:sodipodi="http://sodipodi.sourceforge.net/DTD/sodipodi-0.dtd"
   xmlns="http://www.w3.org/2000/svg"
   xmlns:svg="http://www.w3.org/2000/svg"><sodipodi:namedview
     id="namedview1"
     pagecolor="#ffffff"
     bordercolor="#000000"
     borderopacity="0.25"
     inkscape:showpageshadow="2"
     inkscape:pageopacity="0.0"
     inkscape:pagecheckerboard="0"
     inkscape:deskcolor="#d1d1d1"
     inkscape:document-units="mm"
     inkscape:zoom="0.37495439"
     inkscape:cx="608.07396"
     inkscape:cy="244.02968"
     inkscape:window-width="1920"
     inkscape:window-height="1024"
     inkscape:window-x="0"
     inkscape:window-y="0"
     inkscape:window-maximized="0"
     inkscape:current-layer="layer1" /><defs
     id="defs1"><clipPath
       clipPathUnits="userSpaceOnUse"
       id="clipPath112"><path
         d="m 3708.72,884.84 -66.72,-66.71 67.4,-67.396 66.71,66.716 z"
         fill-rule="evenodd"
         clip-rule="evenodd"
         id="path112" /></clipPath><clipPath
       clipPathUnits="userSpaceOnUse"
       id="clipPath110"><path
         d="m 3708.72,884.84 -66.72,-66.71 67.4,-67.396 66.71,66.716 z"
         fill-rule="evenodd"
         clip-rule="evenodd"
         id="path110" /></clipPath><clipPath
       clipPathUnits="userSpaceOnUse"
       id="clipPath109"><path
         d="m 3708.72,884.84 -66.72,-66.71 67.4,-67.396 66.71,66.716 z"
         fill-rule="evenodd"
         clip-rule="evenodd"
         id="path109" /></clipPath><clipPath
       clipPathUnits="userSpaceOnUse"
       id="clipPath108"><path
         d="m 3708.72,884.84 -66.72,-66.71 67.4,-67.396 66.71,66.716 z"
         fill-rule="evenodd"
         clip-rule="evenodd"
         id="path108" /></clipPath><clipPath
       clipPathUnits="userSpaceOnUse"
       id="clipPath107"><path
         d="m 3708.72,884.84 -66.72,-66.71 67.4,-67.396 66.71,66.716 z"
         fill-rule="evenodd"
         clip-rule="evenodd"
         id="path107" /></clipPath><clipPath
       clipPathUnits="userSpaceOnUse"
       id="clipPath118"><path
         d="m 4023.47,750.734 66.71,66.716 -67.39,67.39 -66.72,-66.71 z"
         fill-rule="evenodd"
         clip-rule="evenodd"
         id="path118" /></clipPath><clipPath
       clipPathUnits="userSpaceOnUse"
       id="clipPath116"><path
         d="m 4023.47,750.734 66.71,66.716 -67.39,67.39 -66.72,-66.71 z"
         fill-rule="evenodd"
         clip-rule="evenodd"
         id="path116" /></clipPath><clipPath
       clipPathUnits="userSpaceOnUse"
       id="clipPath115"><path
         d="m 4023.47,750.734 66.71,66.716 -67.39,67.39 -66.72,-66.71 z"
         fill-rule="evenodd"
         clip-rule="evenodd"
         id="path115" /></clipPath><clipPath
       clipPathUnits="userSpaceOnUse"
       id="clipPath114"><path
         d="m 4023.47,750.734 66.71,66.716 -67.39,67.39 -66.72,-66.71 z"
         fill-rule="evenodd"
         clip-rule="evenodd"
         id="path114" /></clipPath><clipPath
       clipPathUnits="userSpaceOnUse"
       id="clipPath113"><path
         d="m 4023.47,750.734 66.71,66.716 -67.39,67.39 -66.72,-66.71 z"
         fill-rule="evenodd"
         clip-rule="evenodd"
         id="path113" /></clipPath></defs><g
     inkscape:label="Layer 1"
     inkscape:groupmode="layer"
     id="layer1"><g
       id="g118"
       transform="matrix(0.43386811,0,0,0.43386811,-50.165765,-14.079781)"
       style="fill:#212121;fill-opacity:1"><path
         d="m 408.89113,100.23781 c 0,6.11146 -17.33836,11.0653 -38.72931,11.0653 -21.39103,0 -38.7294,-4.95384 -38.7294,-11.0653 0,-6.111453 17.33837,-11.065973 38.7294,-11.065973 21.39094,0 38.72931,4.95452 38.72931,11.065973 z"
         id="path28"
         style="stroke-width:0.344015;fill:#212121;fill-opacity:1" /><path
         d="m 397.82758,127.90189 c -1.66159,0 -2.76586,-1.10773 -2.76586,-2.76588 0,-1.6616 1.10427,-2.76589 2.76586,-2.76589 1.65815,0 2.76593,1.10429 2.76593,2.76589 0,1.65815 -1.10778,2.76588 -2.76593,2.76588 z m -27.66576,-11.067 c -21.30154,0 -38.7294,-4.97793 -38.7294,-11.06426 v 22.13126 c 0,6.08568 17.42786,11.06702 38.7294,11.06702 21.30145,0 38.72931,-4.98134 38.72931,-11.06702 v -22.13126 c 0,6.08633 -17.42784,11.06426 -38.72931,11.06426 z"
         id="path29"
         style="stroke-width:0.344015;fill:#212121;fill-opacity:1" /><path
         d="m 397.82758,155.56771 c -1.66159,0 -2.76586,-1.10774 -2.76586,-2.7659 0,-1.66159 1.10427,-2.76932 2.76586,-2.76932 1.65815,0 2.76593,1.10773 2.76593,2.76932 0,1.65816 -1.10778,2.7659 -2.76593,2.7659 z m -27.66576,-11.06702 c -21.30154,0 -38.7294,-4.97791 -38.7294,-11.067 v 22.13402 c 0,6.08566 17.42786,11.06356 38.7294,11.06356 21.30145,0 38.72931,-4.9779 38.72931,-11.06356 v -22.13402 c 0,6.08909 -17.42784,11.067 -38.72931,11.067 z"
         id="path30"
         style="stroke-width:0.344015;fill:#212121;fill-opacity:1" /><path
         d="m 397.82758,183.23007 c -1.66159,0 -2.76586,-1.10429 -2.76586,-2.76588 0,-1.65817 1.10427,-2.7659 2.76586,-2.7659 1.65815,0 2.76593,1.10773 2.76593,2.7659 0,1.66159 -1.10778,2.76588 -2.76593,2.76588 z m -27.66576,-11.06356 c -21.30154,0 -38.7294,-4.98136 -38.7294,-11.06702 v 22.13058 c 0,6.08909 17.42786,11.06702 38.7294,11.06702 21.30145,0 38.72931,-4.97793 38.72931,-11.06702 v -22.13058 c 0,6.08566 -17.42784,11.06702 -38.72931,11.06702 z"
         id="path31"
         style="stroke-width:0.344015;fill:#212121;fill-opacity:1" /></g><path
       d="M 66.536447,28.527418 77.185926,47.414283 66.536447,66.301146 Z"
       stroke="#005b7f"
       stroke-width="0.417179"
       stroke-miterlimit="8"
       fill="#005b7f"
       fill-rule="evenodd"
       id="path33"
       style="fill:#1d6083;fill-opacity:1" /><path
       d="m 143.70022,28.527418 10.55844,18.886865 -10.55844,18.886863 z"
       stroke="#005b7f"
       stroke-width="0.417179"
       stroke-miterlimit="8"
       fill="#005b7f"
       fill-rule="evenodd"
       id="path34"
       style="fill:#1d6083;fill-opacity:1" /><path
       d="m 220.77247,28.527418 10.64944,18.886865 -10.64944,18.886863 z"
       stroke="#005b7f"
       stroke-width="0.417179"
       stroke-miterlimit="8"
       fill="#005b7f"
       fill-rule="evenodd"
       id="path35"
       style="fill:#1d6083;fill-opacity:1" /><path
       d="m 297.93623,28.527418 10.55846,18.886865 -10.55846,18.886863 z"
       stroke="#005b7f"
       stroke-width="0.417179"
       stroke-miterlimit="8"
       fill="#005b7f"
       fill-rule="evenodd"
       id="path36"
       style="fill:#1d6083;fill-opacity:1" /><g
       id="g127"
       transform="matrix(0.26458333,0,0,0.26458333,9.0180567,2.2202368)"><path
         id="rect124-8"
         style="fill:none;stroke:#212121;stroke-width:9.44882;stroke-linejoin:round;stroke-opacity:1"
         d="m 162.30224,123.45784 h -55.8347 V 71.30763 m -87.544015,1.429408 h 90.917355 l 54.91735,54.075102 V 268.88725 H 18.923525 Z"
         sodipodi:nodetypes="ccccccccc" /><path
         id="path124-2"
         style="fill:none;fill-opacity:1;stroke:#212121;stroke-width:3.77953;stroke-linecap:round;stroke-linejoin:round;stroke-dasharray:none;stroke-opacity:1"
         d="m 128.24514,187.53111 c 6.38245,8.76999 0.0463,15.98461 -6.6948,17.8737 0.97236,10.27199 -11.19348,21.8471 -23.415824,12.89555 m -12.690477,0.43116 c -9.213848,6.46541 -24.651097,0.81014 -23.392297,-13.98355 -4.002424,1.05847 -15.005982,-7.74842 -6.024765,-17.31636 M 125.2726,176.52635 c 11.39861,-11.27807 1.43968,-24.34488 -7.53083,-23.35432 -3.02198,-19.2825 -23.550351,-18.2726 -26.019056,1.64018 -2.897203,-24.30065 -26.935423,-16.52017 -25.02638,-1.35491 -6.696288,-1.8945 -22.437329,9.88493 -8.532845,22.79698" /><path
         id="path126"
         style="fill:none;fill-opacity:1;stroke:#212121;stroke-width:3.77953;stroke-linecap:round;stroke-linejoin:round;stroke-dasharray:none;stroke-opacity:1"
         d="m 44.959647,181.69643 h 18.703574 v -3.90146 m -18.703574,3.90146 c 1e-6,2.46253 -1.996276,4.45881 -4.458808,4.45881 -2.462532,0 -4.458809,-1.99628 -4.458808,-4.45881 -1e-6,-2.46253 1.996276,-4.45881 4.458808,-4.45881 2.462532,0 4.458809,1.99628 4.458808,4.45881 z"
         sodipodi:nodetypes="cccsssss" /><path
         id="path126-4"
         style="fill:none;fill-opacity:1;stroke:#212121;stroke-width:3.77953;stroke-linecap:round;stroke-linejoin:round;stroke-dasharray:none;stroke-opacity:1"
         d="m 138.7456,181.69643 h -18.70357 v 3.90146 m 18.70357,-3.90146 c 0,-2.46253 1.99628,-4.45881 4.45881,-4.45881 2.46253,0 4.45881,1.99628 4.45881,4.45881 0,2.46253 -1.99628,4.45881 -4.45881,4.45881 -2.46253,0 -4.45881,-1.99628 -4.45881,-4.45881 z"
         sodipodi:nodetypes="cccsssss" /><path
         id="path126-4-4"
         style="fill:none;fill-opacity:1;stroke:#212121;stroke-width:3.77953;stroke-linecap:round;stroke-linejoin:round;stroke-dasharray:none;stroke-opacity:1"
         d="m 91.700365,230.24157 v -18.70358 m 0,18.70358 c 2.46253,0 4.45881,1.99627 4.45881,4.45881 0,2.46253 -1.99628,4.4588 -4.45881,4.4588 -2.46253,0 -4.45881,-1.99627 -4.45881,-4.4588 0,-2.46254 1.99628,-4.45881 4.45881,-4.45881 z"
         sodipodi:nodetypes="ccsssss" /><path
         d="m 94.636794,200.79881 h 5.03226 L 88.598082,166.12654 h -6.038713 l -11.121294,34.67227 h 4.830969 L 78.88582,192.093 h 13.134198 z m -14.593555,-12.58065 5.434841,-18.11613 5.384519,18.11613 z m 29.740651,-22.09162 h -4.78064 v 34.67227 h 4.78064 z"
         id="text127"
         style="font-size:50.3226px;font-family:'Fira Sans';-inkscape-font-specification:'Fira Sans';stroke-width:3.78013;fill:#212121;fill-opacity:1"
         aria-label="AI" /></g><g
       id="g137"
       transform="matrix(0.26458333,0,0,0.26458333,19.323988,2.091005)"
       style="stroke:#212121;stroke-opacity:1"><circle
         style="fill:none;fill-opacity:1;stroke:#212121;stroke-width:7.55906;stroke-linecap:round;stroke-linejoin:round;stroke-dasharray:none;stroke-opacity:1"
         id="path128"
         cx="569.79846"
         cy="101.80944"
         r="10.218102" /><circle
         style="fill:none;fill-opacity:1;stroke:#212121;stroke-width:7.55906;stroke-linecap:round;stroke-linejoin:round;stroke-dasharray:none;stroke-opacity:1"
         id="path128-72"
         cx="611.69708"
         cy="138.11234"
         r="10.218102" /><circle
         style="fill:none;fill-opacity:1;stroke:#212121;stroke-width:7.55906;stroke-linecap:round;stroke-linejoin:round;stroke-dasharray:none;stroke-opacity:1"
         id="path128-72-7"
         cx="569.77991"
         cy="240.79172"
         r="10.218102" /><circle
         style="fill:none;fill-opacity:1;stroke:#212121;stroke-width:7.55906;stroke-linecap:round;stroke-linejoin:round;stroke-dasharray:none;stroke-opacity:1"
         id="path128-7"
         cy="138.27704"
         cx="568.09613"
         r="8.2181025" /><path
         style="fill:none;fill-opacity:1;stroke:#212121;stroke-width:7.55906;stroke-linecap:butt;stroke-linejoin:round;stroke-dasharray:none;stroke-opacity:1"
         d="m 576.85827,109.61235 25.82393,25.26658"
         id="path129"
         sodipodi:nodetypes="cc" /><circle
         style="fill:none;fill-opacity:1;stroke:#212121;stroke-width:7.55906;stroke-linecap:round;stroke-linejoin:round;stroke-dasharray:none;stroke-opacity:1"
         id="path128-7-1"
         cy="171.35464"
         cx="568.34283"
         r="8.2181025" /><path
         style="fill:none;fill-opacity:1;stroke:#212121;stroke-width:7.55906;stroke-linecap:butt;stroke-linejoin:round;stroke-dasharray:none;stroke-opacity:1"
         d="m 576.73344,171.35465 h 22.75285"
         id="path130-0"
         sodipodi:nodetypes="cc" /><circle
         style="fill:none;fill-opacity:1;stroke:#212121;stroke-width:7.55906;stroke-linecap:round;stroke-linejoin:round;stroke-dasharray:none;stroke-opacity:1"
         id="path128-7-1-1"
         cy="205.05446"
         cx="568.67004"
         r="8.2181025" /><circle
         style="fill:none;fill-opacity:1;stroke:#212121;stroke-width:7.55906;stroke-linecap:round;stroke-linejoin:round;stroke-dasharray:none;stroke-opacity:1"
         id="path128-7-1-1-0"
         cy="205.16434"
         cx="611.46625"
         r="8.2181025" /><path
         style="fill:none;fill-opacity:1;stroke:#212121;stroke-width:7.55906;stroke-linecap:butt;stroke-linejoin:round;stroke-dasharray:none;stroke-opacity:1"
         d="m 577.06066,205.05446 h 26.75285 m 15.44336,0 h 16.75285"
         id="path130-0-5"
         sodipodi:nodetypes="cccc" /><path
         style="fill:none;fill-opacity:1;stroke:#212121;stroke-width:7.55906;stroke-linecap:butt;stroke-linejoin:round;stroke-dasharray:none;stroke-opacity:1"
         d="m 577.75948,235.29218 27.14036,-25.74557"
         id="path130-0-5-1"
         sodipodi:nodetypes="cc" /><rect
         style="fill:none;fill-opacity:1;stroke:#212121;stroke-width:7.55906;stroke-linecap:butt;stroke-linejoin:round;stroke-dasharray:none;stroke-opacity:1"
         id="rect130"
         width="30.60895"
         height="25.091457"
         x="597.47302"
         y="159.96222" /><path
         style="fill:none;fill-opacity:1;stroke:#212121;stroke-width:7.55906;stroke-linecap:butt;stroke-linejoin:round;stroke-dasharray:none;stroke-opacity:1"
         d="m 575.25687,138.52266 h 26.75285 m 19.44336,0 h 14.55664"
         id="path130-0-5-9"
         sodipodi:nodetypes="cccc" /><path
         style="fill:none;fill-opacity:1;stroke:#212121;stroke-width:7.55906;stroke-linecap:round;stroke-linejoin:round;stroke-dasharray:none;stroke-opacity:1"
         d="m 646.64274,125.80631 v 91.17001"
         id="path130"
         sodipodi:nodetypes="cc" /><path
         style="fill:none;fill-opacity:1;stroke:#212121;stroke-width:7.55906;stroke-linecap:butt;stroke-linejoin:round;stroke-dasharray:none;stroke-opacity:1"
         d="m 646.64274,131.53483 h 13.07504 l 31.39744,-31.39744 h 15.60583"
         id="path131"
         sodipodi:nodetypes="cccc" /><path
         style="fill:none;fill-opacity:1;stroke:#212121;stroke-width:7.55906;stroke-linecap:butt;stroke-linejoin:round;stroke-dasharray:none;stroke-opacity:1"
         d="m 646.64274,151.2279 h 21.43531 l 22.66561,-22.66561 h 15.60582"
         id="path132"
         sodipodi:nodetypes="cccc" /><path
         style="fill:none;fill-opacity:1;stroke:#212121;stroke-width:7.55906;stroke-linecap:butt;stroke-linejoin:round;stroke-dasharray:none;stroke-opacity:1"
         d="m 646.64274,172.03567 h 45.58719 l 13.00485,-13.00486"
         id="path133"
         sodipodi:nodetypes="ccc" /><path
         style="fill:none;fill-opacity:1;stroke:#212121;stroke-width:7.55906;stroke-linecap:butt;stroke-linejoin:round;stroke-dasharray:none;stroke-opacity:1"
         d="m 676.99566,172.22145 22.20115,22.20115 h 6.59532"
         id="path134"
         sodipodi:nodetypes="ccc" /><path
         style="fill:none;fill-opacity:1;stroke:#212121;stroke-width:7.55906;stroke-linecap:butt;stroke-linejoin:round;stroke-dasharray:none;stroke-opacity:1"
         d="m 646.64274,191.91452 h 22.17844 l 36.13492,36.13492"
         id="path135"
         sodipodi:nodetypes="ccc" /><path
         style="fill:none;fill-opacity:1;stroke:#212121;stroke-width:7.55906;stroke-linecap:round;stroke-linejoin:round;stroke-dasharray:none;stroke-opacity:1"
         d="m 646.64274,211.4218 h 13.81818 l 32.9766,32.9766"
         id="path136"
         sodipodi:nodetypes="ccc" /><circle
         style="fill:none;fill-opacity:1;stroke:#212121;stroke-width:9.22447;stroke-linecap:butt;stroke-linejoin:round;stroke-dasharray:none;stroke-opacity:1"
         id="path137"
         cx="706.61359"
         cy="97.678558"
         r="4.6490474" /><circle
         style="fill:none;fill-opacity:1;stroke:#212121;stroke-width:9.22447;stroke-linecap:butt;stroke-linejoin:round;stroke-dasharray:none;stroke-opacity:1"
         id="path137-7"
         cx="706.61359"
         cy="127.00441"
         r="4.6490474" /><circle
         style="fill:none;fill-opacity:1;stroke:#212121;stroke-width:9.22447;stroke-linecap:butt;stroke-linejoin:round;stroke-dasharray:none;stroke-opacity:1"
         id="path137-73"
         cx="706.61359"
         cy="159.13577"
         r="4.6490474" /><circle
         style="fill:none;fill-opacity:1;stroke:#212121;stroke-width:9.22447;stroke-linecap:butt;stroke-linejoin:round;stroke-dasharray:none;stroke-opacity:1"
         id="path137-5"
         cx="706.61359"
         cy="194.52989"
         r="4.6490474" /><circle
         style="fill:none;fill-opacity:1;stroke:#212121;stroke-width:9.22447;stroke-linecap:butt;stroke-linejoin:round;stroke-dasharray:none;stroke-opacity:1"
         id="path137-3"
         cx="706.61359"
         cy="224.03389"
         r="4.6490474" /></g><g
       id="g213"
       transform="matrix(0.26458333,0,0,0.26458333,20.620426,-0.39277047)"
       style="stroke:#212121;stroke-opacity:1"><g
         id="g145"
         style="stroke:#212121;stroke-opacity:1"><path
           id="path139-4"
           style="fill:none;fill-opacity:1;stroke:#212121;stroke-width:7.55906;stroke-linecap:butt;stroke-linejoin:round;stroke-dasharray:none;stroke-opacity:1"
           d="m 939.77953,130.77953 12.07593,12.07593 m -1.57203,-21.72451 12.07593,12.07593 m 2.34936,-3.8107 29.19059,29.39957 -16.61141,16.49333 -29.19059,-29.39956 z m -0.84048,-45.18126 a 55.177746,56.29245 0 0 1 -55.17775,56.29245 55.177746,56.29245 0 0 1 -55.17775,-56.29245 55.177746,56.29245 0 0 1 55.17775,-56.29245 55.177746,56.29245 0 0 1 55.17775,56.29245 z" /><path
           id="path142"
           style="fill:none;stroke:#212121;stroke-width:5.66929;stroke-linecap:round;stroke-linejoin:round;stroke-opacity:1"
           d="m 885.64211,106.07047 a 14.026667,14.026667 0 0 1 -9.43718,-14.445557 14.026667,14.026667 0 0 1 11.71465,-12.668917 m -9.88767,3.445566 a 10.868344,11.518587 0 0 1 -3.56845,-12.593359 10.868344,11.518587 0 0 1 9.89442,-7.932939 m 10.17135,7.949233 c -11.00924,-0.952729 -11.79454,-13.18228 -7.08721,-18.485285 4.70733,-5.303005 18.06561,-6.695623 19.92348,2.408384 v 55.259114 c -3.04728,10.52061 -14.80963,8.30849 -19.05299,3.01951 -4.24336,-5.28899 -2.63978,-16.113636 7.48259,-17.331793" /><path
           id="path145"
           style="fill:none;fill-opacity:1;stroke:#212121;stroke-width:5.66929;stroke-linecap:round;stroke-linejoin:round;stroke-dasharray:none;stroke-opacity:1"
           d="M 917.93077,113.79249 V 94.340133 c 7.00035,-0.524931 12.44313,-6.305105 12.5466,-13.324347 0.10347,-7.019245 -5.56476,-12.957332 -12.5466,-13.688362 v -19.23247 l 8.20078,1.738212 1.58576,6.513698 4.72155,2.8299 6.04263,-1.801488 6.17401,9.212229 -3.43233,5.333311 0.974,5.200009 5.64853,3.466139 -2.40392,11.584271 -5.5397,0.720595 -3.11518,4.973014 1.64952,5.988226 -9.52938,6.68821 -4.80784,-3.17893 -5.95635,2.25001"
           sodipodi:nodetypes="ccsccccccccccccccccc" /></g><g
         id="g155"
         style="stroke:#212121;stroke-opacity:1"><g
           id="g210"
           style="stroke:#212121;stroke-opacity:1"><path
             style="fill:none;fill-opacity:1;stroke:#212121;stroke-width:5.66929;stroke-linecap:butt;stroke-linejoin:bevel;stroke-dasharray:none;stroke-opacity:1"
             d="m 872.57712,254.9523 23.07098,-18.58495 m 15.90527,-1.79968 21.83791,10.62384 m 15.49498,-2.27578 19.425,-17.89548"
             id="path150"
             sodipodi:nodetypes="cccccc" /><circle
             style="fill:none;fill-opacity:1;stroke:#212121;stroke-width:5.66929;stroke-linecap:butt;stroke-linejoin:bevel;stroke-dasharray:none;stroke-opacity:1"
             id="path151"
             cx="865.1955"
             cy="260.89862"
             r="9.4787693" /><circle
             style="fill:none;fill-opacity:1;stroke:#212121;stroke-width:5.66929;stroke-linecap:butt;stroke-linejoin:bevel;stroke-dasharray:none;stroke-opacity:1"
             id="path151-8"
             cx="903.02972"
             cy="230.42104"
             r="9.4787693" /><circle
             style="fill:none;fill-opacity:1;stroke:#212121;stroke-width:5.66929;stroke-linecap:butt;stroke-linejoin:bevel;stroke-dasharray:none;stroke-opacity:1"
             id="path151-8-6"
             cx="941.91492"
             cy="249.33815"
             r="9.4787693" /><circle
             style="fill:none;fill-opacity:1;stroke:#212121;stroke-width:5.66929;stroke-linecap:butt;stroke-linejoin:bevel;stroke-dasharray:none;stroke-opacity:1"
             id="path151-8-8"
             cx="975.28259"
             cy="218.59782"
             r="9.4787693" /><path
             id="rect155"
             style="fill:none;stroke:#212121;stroke-width:5.66929;stroke-linejoin:round;stroke-opacity:1"
             d="m 963.64084,331.56393 v -84.31005 h 21.03578 v 84.31005 m -54.25898,10e-6 v -54.7598 h 19.03237 v 54.7598 m -56.26235,-2e-5 v -72.12267 h 19.53322 v 72.12267 m -57.93184,0 V 285.3186 h 20.53492 v 46.24532 m -28.2061,2.83465 H 992.3478" /></g></g></g><g
       id="g214"
       transform="matrix(0.26458333,0,0,0.26458333,6.5123568,0.20944289)"><g
         id="g123"
         transform="matrix(1.217407,0,0,1.217407,-280.76484,45.008506)"
         style="stroke-width:0.821418;stroke:#212121;stroke-opacity:1"><g
           id="g121"
           style="stroke-width:0.821418;stroke:#212121;stroke-opacity:1"><path
             d="m 1260.9926,122.12587 c 0,3.32663 -2.6936,6.02029 -6.0204,6.02029 -3.3232,0 -6.0201,-2.69366 -6.0201,-6.02029"
             stroke="#000000"
             stroke-width="1.94275"
             stroke-miterlimit="8"
             fill="#cdeaf7"
             fill-rule="evenodd"
             id="path54"
             style="fill:none;stroke:#212121;stroke-opacity:1"
             sodipodi:nodetypes="csc" /><path
             d="m 1292.6421,122.12587 c 0,3.32663 -2.6937,6.02029 -6.0203,6.02029 -3.3267,0 -6.0203,-2.69366 -6.0203,-6.02029"
             stroke="#000000"
             stroke-width="1.94275"
             stroke-miterlimit="8"
             fill="#cdeaf7"
             fill-rule="evenodd"
             id="path55"
             style="fill:none;stroke:#212121;stroke-opacity:1"
             sodipodi:nodetypes="csc" /><path
             d="m 1297.2863,102.45287 c 3.3232,0 6.0203,3.23444 6.0203,7.22435 0,3.99059 -2.6971,7.22433 -6.0203,7.22433"
             stroke="#000000"
             stroke-width="1.94275"
             stroke-miterlimit="8"
             fill="#cdeaf7"
             fill-rule="evenodd"
             id="path56"
             style="fill:none;stroke:#212121;stroke-opacity:1"
             sodipodi:nodetypes="csc" /><path
             d="m 1244.6518,116.90155 c -3.3267,0 -6.0204,-3.23374 -6.0204,-7.22433 0,-3.98991 2.6937,-7.22435 6.0204,-7.22435"
             stroke="#000000"
             stroke-width="1.94275"
             stroke-miterlimit="8"
             fill="#cdeaf7"
             fill-rule="evenodd"
             id="path57"
             style="fill:none;stroke:#212121;stroke-opacity:1"
             sodipodi:nodetypes="csc" /><path
             id="rect57"
             style="fill:none;stroke:#212121;stroke-width:1.94275;stroke-miterlimit:8;stroke-opacity:1"
             d="m 1244.4797,97.40049 h 52.9786 v 24.55344 h -52.9786 z"
             sodipodi:nodetypes="ccccc" /><g
             id="g122"
             transform="translate(0,4)"
             style="stroke-width:0.821418;stroke:#212121;stroke-opacity:1;fill:none"><rect
               x="1251.7041"
               y="74.479568"
               width="39.561897"
               height="18.232841"
               stroke="#000000"
               stroke-width="1.94275"
               stroke-miterlimit="8"
               fill="#cdeaf7"
               id="rect58"
               style="fill:none;stroke:#212121;stroke-opacity:1" /><path
               id="rect59"
               style="fill:none;stroke:#212121;stroke-width:1.94275;stroke-miterlimit:8;stroke-opacity:1"
               d="M 1271.4851,74.479568 V 92.71241 Z"
               sodipodi:nodetypes="ccc" /></g><path
             d="m 3753.1936,796.73075 5.304,5.304 c -7.0317,8.18151 -7.9437,19.97872 -2.2542,29.14384 l -5.4098,5.40976 c -8.5201,-12.23459 -7.5437,-28.71358 2.36,-39.8576 z"
             id="path69"
             style="stroke-width:0.821418;stroke:#212121;stroke-opacity:1;fill:#212121;fill-opacity:1"
             clip-path="url(#clipPath109)"
             transform="matrix(0.3440165,0,0,0.3440165,-58.48275,-171.26715)" /><path
             d="m 3737.8661,786.70703 c 0.8884,-0.88834 1.7768,-1.77676 2.7714,-2.53238 l 5.304,5.30401 c -0.9722,0.78977 -1.9019,1.63039 -2.7848,2.51895 -14.4003,14.44419 -14.3944,37.818 0.013,52.25458 l -5.3038,5.30377 c -17.3348,-17.36408 -17.3342,-45.48485 1e-4,-62.84893 z"
             id="path70"
             style="stroke-width:0.821418;stroke:#212121;stroke-opacity:1;fill:#212121;fill-opacity:1"
             clip-path="url(#clipPath108)"
             transform="matrix(0.3440165,0,0,0.3440165,-58.48275,-171.33793)" /><path
             d="m 3724.2091,773.04997 c 0.8883,-0.88835 1.7767,-1.77677 2.7452,-2.55855 l 5.3033,5.3033 c -0.8751,0.87512 -1.8696,1.65747 -2.758,2.54582 -21.2364,21.23644 -21.2366,55.66711 -1e-4,76.90359 0,0.004 0.01,0.009 0.013,0.0133 0.4507,0.45078 0.8883,0.88834 1.3259,1.3259 l -5.3038,5.30377 -1.3259,-1.3259 c -24.1652,-24.16517 -24.1655,-63.34564 10e-5,-87.51122 z"
             id="path71"
             style="stroke-width:0.821418;stroke:#212121;stroke-opacity:1;fill:#212121;fill-opacity:1"
             clip-path="url(#clipPath107)"
             transform="matrix(0.3440165,0,0,0.3440165,-58.48275,-171.10536)" /><path
             d="m 3978.9964,838.85025 -5.304,-5.304 c 7.0317,-8.18151 7.9437,-19.97872 2.2542,-29.14384 l 5.4098,-5.40976 c 8.5201,12.23459 7.5437,28.71358 -2.36,39.8576 z"
             id="path76"
             style="stroke-width:0.821418;stroke:#212121;stroke-opacity:1;fill:#212121;fill-opacity:1"
             clip-path="url(#clipPath115)"
             transform="matrix(0.3440165,0,0,0.3440165,-58.48275,-172.04528)" /><path
             d="m 3994.3239,848.87397 c -0.8884,0.88834 -1.7768,1.77676 -2.7714,2.53238 l -5.304,-5.30401 c 0.9722,-0.78977 1.9019,-1.63039 2.7848,-2.51895 14.4003,-14.44419 14.3944,-37.818 -0.013,-52.25458 l 5.3038,-5.30377 c 17.3348,17.36408 17.3342,45.48485 -10e-5,62.84893 z"
             id="path77"
             style="stroke-width:0.821418;stroke:#212121;stroke-opacity:1;fill:#212121;fill-opacity:1"
             clip-path="url(#clipPath114)"
             transform="matrix(0.3440165,0,0,0.3440165,-58.48275,-171.9745)" /><path
             d="m 4007.9809,862.53103 c -0.8883,0.88835 -1.7767,1.77677 -2.7452,2.55855 l -5.3033,-5.3033 c 0.8751,-0.87512 1.8696,-1.65747 2.758,-2.54582 21.2364,-21.23644 21.2366,-55.66711 1e-4,-76.90359 0,-0.004 -0.01,-0.009 -0.013,-0.0133 -0.4507,-0.45078 -0.8883,-0.88834 -1.3259,-1.3259 l 5.3038,-5.30377 1.3259,1.3259 c 24.1652,24.16517 24.1655,63.34564 -10e-5,87.51122 z"
             id="path78"
             style="stroke-width:0.821418;stroke:#212121;stroke-opacity:1;fill:#212121;fill-opacity:1"
             clip-path="url(#clipPath113)"
             transform="matrix(0.3440165,0,0,0.3440165,-58.48275,-172.20707)" /></g></g><path
         id="path196"
         style="fill:none;fill-opacity:1;stroke:#212121;stroke-width:1.88975;stroke-linecap:butt;stroke-linejoin:round;stroke-dasharray:none;stroke-opacity:1"
         inkscape:transform-center-x="-1.0595517e-05"
         inkscape:transform-center-y="-34.157584"
         d="m 1267.1896,240.34841 v 10.65014 m 0,-10.65026 a 6.7111845,6.7111845 0 0 1 -6.7112,-6.71119 6.7111845,6.7111845 0 0 1 6.7112,-6.71119 6.7111845,6.7111845 0 0 1 6.7112,6.71119 6.7111845,6.7111845 0 0 1 -6.7112,6.71119 z m 39.4828,39.48277 a 6.7111845,6.7111845 0 0 1 6.7112,-6.71119 6.7111845,6.7111845 0 0 1 6.7113,6.71119 6.7111845,6.7111845 0 0 1 -6.7113,6.71119 6.7111845,6.7111845 0 0 1 -6.7112,-6.71119 z m -10e-5,3e-5 h -10.6501 m -28.8326,39.48268 v -10.65014 m 0,10.6502 a 6.7111845,6.7111845 0 0 1 6.7112,6.71119 6.7111845,6.7111845 0 0 1 -6.7112,6.71118 6.7111845,6.7111845 0 0 1 -6.7112,-6.71118 6.7111845,6.7111845 0 0 1 6.7112,-6.71119 z m -39.4827,-39.48277 10.6502,-0.003 m -10.6502,0.003 a 6.7111845,6.7111845 0 0 1 -6.7112,6.71119 6.7111845,6.7111845 0 0 1 -6.7112,-6.71119 6.7111845,6.7111845 0 0 1 6.7112,-6.71119 6.7111845,6.7111845 0 0 1 6.7112,6.71119 z m 28.613,1.94669 13.5087,-17.07607 -2.2063,12.05079 h 10.1439 l -14.7484,18.67484 2.5085,-13.64956 z m 6.4319,-30.77925 -1.0819,5.95675 a 23.532726,23.532726 0 0 0 -0.2289,0.0683 23.532726,23.532726 0 0 0 -0.2764,0.0654 23.532726,23.532726 0 0 0 -0.5885,0.19322 23.532726,23.532726 0 0 0 -0.03,0.009 23.532726,23.532726 0 0 0 -0.03,0.009 23.532726,23.532726 0 0 0 -1.5159,0.48749 23.532726,23.532726 0 0 0 -0.3388,0.11597 23.532726,23.532726 0 0 0 -0.1636,0.0683 23.532726,23.532726 0 0 0 -0.2109,0.0861 23.532726,23.532726 0 0 0 -0.5202,0.24076 23.532726,23.532726 0 0 0 -1.3703,0.65394 23.532726,23.532726 0 0 0 0,0.003 23.532726,23.532726 0 0 0 -0.5885,0.29428 23.532726,23.532726 0 0 0 -0.2379,0.13681 23.532726,23.532726 0 0 0 -0.015,0.003 23.532726,23.532726 0 0 0 -0.3003,0.18131 23.532726,23.532726 0 0 0 -0.015,0.006 23.532726,23.532726 0 0 0 -0.015,0.003 23.532726,23.532726 0 0 0 0,0.003 23.532726,23.532726 0 0 0 -0.3062,0.16646 l -4.9788,-3.44504 -3.1359,3.13889 -3.1419,3.13888 3.4481,4.97584 a 23.532726,23.532726 0 0 0 -0.1217,0.22888 23.532726,23.532726 0 0 0 -0.015,0.0152 23.532726,23.532726 0 0 0 -0.1217,0.19322 23.532726,23.532726 0 0 0 -0.044,0.0683 23.532726,23.532726 0 0 0 0,0.003 23.532726,23.532726 0 0 0 -0.2617,0.53207 23.532726,23.532726 0 0 0 -0.015,0.0208 23.532726,23.532726 0 0 0 -0.7312,1.42975 23.532726,23.532726 0 0 0 -0.1545,0.31211 23.532726,23.532726 0 0 0 -0.065,0.16348 23.532726,23.532726 0 0 0 -0.087,0.19915 23.532726,23.532726 0 0 0 -0.1992,0.53503 23.532726,23.532726 0 0 0 -0.5202,1.47433 23.532726,23.532726 0 0 0 -0.1902,0.56774 23.532726,23.532726 0 0 0 -0.053,0.15456 23.532726,23.532726 0 0 0 0,0.003 23.532726,23.532726 0 0 0 -0.034,0.14565 23.532726,23.532726 0 0 0 -0.093,0.36858 23.532726,23.532726 0 0 0 -0.097,0.3359 l -5.9568,1.08195 v 4.43784 4.44081 l 5.9568,1.08197 a 23.532726,23.532726 0 0 0 0.081,0.27345 23.532726,23.532726 0 0 0 0.047,0.21104 23.532726,23.532726 0 0 0 0.1932,0.60045 23.532726,23.532726 0 0 0 0.015,0.0356 23.532726,23.532726 0 0 0 0,0.003 23.532726,23.532726 0 0 0 0,0.003 23.532726,23.532726 0 0 0 0,0.009 23.532726,23.532726 0 0 0 0.4993,1.54864 23.532726,23.532726 0 0 0 0.1126,0.32399 23.532726,23.532726 0 0 0 0.068,0.16943 23.532726,23.532726 0 0 0 0.084,0.20212 23.532726,23.532726 0 0 0 0.2408,0.52018 23.532726,23.532726 0 0 0 0.015,0.0268 23.532726,23.532726 0 0 0 0.6511,1.36137 23.532726,23.532726 0 0 0 0.2882,0.57665 23.532726,23.532726 0 0 0 0.059,0.1248 23.532726,23.532726 0 0 0 0,0.003 23.532726,23.532726 0 0 0 0.081,0.1219 23.532726,23.532726 0 0 0 0,0.009 23.532726,23.532726 0 0 0 0.1962,0.32399 23.532726,23.532726 0 0 0 0.1665,0.30319 23.532726,23.532726 0 0 0 0,0.003 l -3.4482,4.97585 3.1389,3.13888 3.1389,3.13889 4.976,-3.44803 a 23.532726,23.532726 0 0 0 0.1035,0.0565 23.532726,23.532726 0 0 0 0.05,0.0297 23.532726,23.532726 0 0 0 0.072,0.0387 23.532726,23.532726 0 0 0 0.214,0.13377 23.532726,23.532726 0 0 0 0.5648,0.28834 23.532726,23.532726 0 0 0 1.5129,0.77282 23.532726,23.532726 0 0 0 0.2734,0.13378 23.532726,23.532726 0 0 0 0.1547,0.0654 23.532726,23.532726 0 0 0 0.2317,0.10105 23.532726,23.532726 0 0 0 0.087,0.0417 23.532726,23.532726 0 0 0 0.4042,0.13667 23.532726,23.532726 0 0 0 0.021,0.006 23.532726,23.532726 0 0 0 0.7133,0.29724 23.532726,23.532726 0 0 0 0.755,0.22591 23.532726,23.532726 0 0 0 0.6035,0.19915 23.532726,23.532726 0 0 0 0.1339,0.0475 23.532726,23.532726 0 0 0 0.143,0.0297 23.532726,23.532726 0 0 0 0,0.003 23.532726,23.532726 0 0 0 0.3715,0.0922 23.532726,23.532726 0 0 0 0.33,0.098 l 1.0819,5.95675 h 4.4378 4.4378 l 1.0821,-5.95675 a 23.532726,23.532726 0 0 0 0.2289,-0.0683 23.532726,23.532726 0 0 0 0.2794,-0.0654 23.532726,23.532726 0 0 0 0.5944,-0.19617 23.532726,23.532726 0 0 0 1.5724,-0.50533 23.532726,23.532726 0 0 0 0.015,-0.003 23.532726,23.532726 0 0 0 0.3151,-0.11003 23.532726,23.532726 0 0 0 0.1783,-0.0743 23.532726,23.532726 0 0 0 0.1933,-0.0773 23.532726,23.532726 0 0 0 0.5231,-0.24078 23.532726,23.532726 0 0 0 1.4149,-0.67474 23.532726,23.532726 0 0 0 0.5351,-0.27049 23.532726,23.532726 0 0 0 0,-0.003 23.532726,23.532726 0 0 0 0.2704,-0.15158 23.532726,23.532726 0 0 0 0.3091,-0.1843 23.532726,23.532726 0 0 0 0.3152,-0.16943 l 4.9758,3.44506 3.1389,-3.13592 3.1389,-3.14185 -3.448,-4.97288 a 23.532726,23.532726 0 0 0 0,-0.003 23.532726,23.532726 0 0 0 0.1309,-0.24078 23.532726,23.532726 0 0 0 0.1278,-0.20509 23.532726,23.532726 0 0 0 0.038,-0.0595 23.532726,23.532726 0 0 0 0,-0.003 23.532726,23.532726 0 0 0 0.22,-0.44587 23.532726,23.532726 0 0 0 0.024,-0.0475 23.532726,23.532726 0 0 0 0.015,-0.0208 23.532726,23.532726 0 0 0 0.746,-1.45352 23.532726,23.532726 0 0 0 0.1546,-0.31507 23.532726,23.532726 0 0 0 0.078,-0.18132 23.532726,23.532726 0 0 0 0.087,-0.20807 23.532726,23.532726 0 0 0 0.041,-0.0861 23.532726,23.532726 0 0 0 0.1461,-0.43398 23.532726,23.532726 0 0 0 0,-0.006 23.532726,23.532726 0 0 0 0,-0.009 23.532726,23.532726 0 0 0 0.4993,-1.40893 23.532726,23.532726 0 0 0 0.015,-0.0209 23.532726,23.532726 0 0 0 0,-0.003 23.532726,23.532726 0 0 0 0.205,-0.61827 23.532726,23.532726 0 0 0 0.081,-0.28237 23.532726,23.532726 0 0 0 0,-0.003 23.532726,23.532726 0 0 0 0.093,-0.36859 23.532726,23.532726 0 0 0 0.097,-0.32993 l 5.9567,-1.08196 v -4.43783 -4.44081 l -5.9538,-1.08197 a 23.532726,23.532726 0 0 0 -0.072,-0.23483 23.532726,23.532726 0 0 0 -0.062,-0.26156 23.532726,23.532726 0 0 0 0,-0.009 23.532726,23.532726 0 0 0 -0.2052,-0.63314 23.532726,23.532726 0 0 0 0,-0.0122 23.532726,23.532726 0 0 0 -0.4935,-1.52784 23.532726,23.532726 0 0 0 -0.1157,-0.33588 23.532726,23.532726 0 0 0 -0.056,-0.1426 23.532726,23.532726 0 0 0 -0.093,-0.22887 23.532726,23.532726 0 0 0 -0.035,-0.10106 23.532726,23.532726 0 0 0 -0.208,-0.42504 23.532726,23.532726 0 0 0 -0.6659,-1.39408 23.532726,23.532726 0 0 0 -0.2735,-0.54395 23.532726,23.532726 0 0 0 -0.143,-0.25563 23.532726,23.532726 0 0 0 -0.2021,-0.34183 23.532726,23.532726 0 0 0 -0.1665,-0.30319 l 3.4451,-4.97881 -3.1359,-3.13592 -3.1419,-3.14185 -4.9758,3.44801 a 23.532726,23.532726 0 0 0 -0.2289,-0.1248 23.532726,23.532726 0 0 0 -0.208,-0.13073 23.532726,23.532726 0 0 0 -0.6035,-0.30615 23.532726,23.532726 0 0 0 -1.1086,-0.6034 23.532726,23.532726 0 0 0 -0.3449,-0.1426 23.532726,23.532726 0 0 0 -0.2972,-0.14869 23.532726,23.532726 0 0 0 -0.1813,-0.0743 23.532726,23.532726 0 0 0 -0.1843,-0.0773 23.532726,23.532726 0 0 0 -0.5351,-0.19915 23.532726,23.532726 0 0 0 -1.4446,-0.51126 23.532726,23.532726 0 0 0 -0.6212,-0.20806 23.532726,23.532726 0 0 0 -0.015,-0.003 23.532726,23.532726 0 0 0 -0.2675,-0.0743 23.532726,23.532726 0 0 0 -0.015,-0.003 23.532726,23.532726 0 0 0 -0.3626,-0.0921 23.532726,23.532726 0 0 0 -0.333,-0.0982 l -1.0819,-5.95675 h -4.4378 z" /><g
         id="g212"><g
           id="g177"
           transform="matrix(1.5519301,0,0,1.547889,-636.75429,19.879429)"
           style="stroke-width:0.645199"><g
             id="g176"
             style="stroke-width:0.645199"><circle
               style="fill:none;fill-opacity:1;stroke:#212121;stroke-width:1.21927;stroke-linecap:butt;stroke-linejoin:round;stroke-dasharray:none;stroke-opacity:1"
               id="path155"
               cx="1255.6187"
               cy="31.262907"
               r="3.7256315" /><path
               id="rect156"
               style="fill:#212121;fill-opacity:1;stroke-width:1.95084;stroke-linejoin:round"
               d="m 1254.2716,25.325533 h 2.6942 l 0.4295,2.211742 h -3.5532 z"
               sodipodi:nodetypes="ccccc"
               inkscape:transform-center-y="-4.7820433" /><path
               id="rect156-5"
               style="fill:#212121;fill-opacity:1;stroke-width:1.95084;stroke-linejoin:round"
               d="m 1260.0442,27.102867 1.3471,2.333246 -1.7006,1.477829 -1.7766,-3.077162 z"
               sodipodi:nodetypes="ccccc"
               inkscape:transform-center-y="-2.2050428"
               inkscape:transform-center-x="-4.034" /><path
               id="rect156-8"
               style="fill:#212121;fill-opacity:1;stroke-width:1.95084;stroke-linejoin:round"
               d="m 1249.8461,29.436113 1.3471,-2.333246 2.1301,0.733913 -1.7766,3.077162 z"
               sodipodi:nodetypes="ccccc"
               inkscape:transform-center-y="-2.2050428"
               inkscape:transform-center-x="4.034" /><path
               id="rect156-81"
               style="fill:#212121;fill-opacity:1;stroke-width:1.95084;stroke-linejoin:round"
               d="m 1251.1932,35.324027 -1.3471,-2.333245 1.7006,-1.477829 1.7766,3.077161 z"
               sodipodi:nodetypes="ccccc"
               inkscape:transform-center-y="2.2050427"
               inkscape:transform-center-x="4.034" /><path
               id="rect156-3"
               style="fill:#212121;fill-opacity:1;stroke-width:1.95084;stroke-linejoin:round"
               d="m 1261.3913,32.990782 -1.3471,2.333245 -2.1301,-0.733913 1.7766,-3.077161 z"
               sodipodi:nodetypes="ccccc"
               inkscape:transform-center-y="2.2050427"
               inkscape:transform-center-x="-4.034" /><path
               id="rect156-4"
               style="fill:#212121;fill-opacity:1;stroke-width:1.95084;stroke-linejoin:round"
               d="m 1256.9658,37.101362 h -2.6942 l -0.4295,-2.211742 h 3.5532 z"
               sodipodi:nodetypes="ccccc"
               inkscape:transform-center-y="4.7820437" /></g><circle
             style="fill:none;fill-opacity:1;stroke:#212121;stroke-width:1.46313;stroke-linecap:butt;stroke-linejoin:round;stroke-dasharray:none;stroke-opacity:1"
             id="path156"
             cx="1255.6187"
             cy="31.213448"
             r="9.6942091" /><circle
             style="fill:none;fill-opacity:1;stroke:#212121;stroke-width:1.46313;stroke-linecap:butt;stroke-linejoin:round;stroke-dasharray:none;stroke-opacity:1"
             id="path157"
             cx="1282.2245"
             cy="12.108302"
             r="4.090095" /><path
             id="path159"
             style="fill:none;fill-opacity:1;stroke:#212121;stroke-width:1.46313;stroke-linecap:butt;stroke-linejoin:round;stroke-dasharray:none;stroke-opacity:1"
             d="m 1277.284,23.204206 h 9.7596 m 2.8685,-3.701269 c 3.5294,-4.167234 3.1177,-10.3826811 -0.9306,-14.0479619 -4.0482,-3.6652807 -10.2739,-3.4593345 -14.071,0.4654658 -3.7972,3.9248003 -3.3923,9.9918901 -2e-4,14.0787531 l 2.3737,3.205012 v 7.410766 h 9.7596 v -7.410766 z m -12.6281,6.891349 h 9.7596"
             sodipodi:nodetypes="cccsscccccccc" /><path
             id="rect159"
             style="fill:none;stroke:#212121;stroke-width:1.46313;stroke-linejoin:round;stroke-opacity:1"
             d="m 1278.7014,30.614972 7.0462,-1e-6 v 2.126038 c 0,1.177825 -0.9482,1.968545 -2.126,1.968545 h -2.7941 c -1.1779,0 -2.1261,-0.79072 -2.1261,-1.968545 z"
             sodipodi:nodetypes="ccssssc" /><path
             style="fill:none;fill-opacity:1;stroke:#212121;stroke-width:1.46313;stroke-linecap:butt;stroke-linejoin:round;stroke-dasharray:none;stroke-opacity:1"
             d="M 1260.1052,22.619942 1272.2131,12.55517"
             id="path160" /><path
             style="fill:none;fill-opacity:1;stroke:#212121;stroke-width:1.46313;stroke-linecap:butt;stroke-linejoin:round;stroke-dasharray:none;stroke-opacity:1"
             d="m 1264.8221,28.168218 9.328,-9.191975"
             id="path161" /><rect
             style="fill:none;fill-opacity:1;stroke:#212121;stroke-width:1.46313;stroke-linecap:butt;stroke-linejoin:round;stroke-dasharray:none;stroke-opacity:1"
             id="rect161"
             width="37.798187"
             height="6.7005877"
             x="1243.0449"
             y="55.26553"
             ry="0"
             rx="0" /><path
             style="fill:none;fill-opacity:1;stroke:#212121;stroke-width:1.46313;stroke-linecap:butt;stroke-linejoin:round;stroke-dasharray:none;stroke-opacity:1"
             d="M 1250.1464,55.26553 V 39.215446"
             id="path162" /><path
             style="fill:none;fill-opacity:1;stroke:#212121;stroke-width:1.46313;stroke-linecap:butt;stroke-linejoin:round;stroke-dasharray:none;stroke-opacity:1"
             d="M 1260.7413,55.26553 V 39.443627"
             id="path163" /></g><g
           id="g211"
           transform="matrix(1.4121281,0,0,1.4121281,-585.26406,-323.40327)"
           style="stroke-width:0.708151"><path
             style="fill:#212121;fill-opacity:1;stroke:#212121;stroke-width:1.33824;stroke-linecap:butt;stroke-linejoin:round;stroke-dasharray:none;stroke-opacity:1"
             d="m 1256.4113,247.9778 8.8595,8.3516 h 12.2669 l 9.1149,-8.3516 z"
             id="path197"
             sodipodi:nodetypes="ccccc" /><path
             id="path200"
             style="fill:none;fill-opacity:1;stroke:#212121;stroke-width:1.33824;stroke-linecap:butt;stroke-linejoin:round;stroke-dasharray:none;stroke-opacity:1"
             d="m 1271.4041,256.3294 10e-5,9.57512 24.064,16.95191 m -24.064,-16.95191 -24.064,16.95191"
             sodipodi:nodetypes="ccccc" /><path
             id="rect209"
             style="fill:#212121;fill-opacity:1;stroke:none;stroke-width:0.267648;stroke-linecap:round;stroke-linejoin:round;stroke-dasharray:none;stroke-opacity:1"
             d="m 1240.828,282.08772 c -0.9871,0 -1.7812,0.79412 -1.7812,1.78125 v 24.26953 c 0,0.98715 0.7941,1.78124 1.7812,1.78126 h 61.1524 c 0.9871,0 1.7812,-0.7941 1.7812,-1.78126 v -24.26953 c 0,-0.98713 -0.7941,-1.78125 -1.7812,-1.78125 z m 9.375,8.07422 c 1.0153,0 1.834,0.81675 1.834,1.83203 v 8.01953 c 0,1.01529 -0.8187,1.83204 -1.834,1.83204 -1.0153,0 -1.832,-0.81675 -1.832,-1.83204 v -8.01953 c 0,-1.01528 0.8167,-1.83203 1.832,-1.83203 z m 8.5254,0 c 1.0153,0 1.834,0.81675 1.834,1.83203 v 8.01953 c 0,1.01529 -0.8187,1.83204 -1.834,1.83204 -1.0153,0 -1.832,-0.81675 -1.832,-1.83204 v -8.01953 c 0,-1.01528 0.8167,-1.83203 1.832,-1.83203 z m 8.5274,0 c 1.0153,0 1.832,0.81675 1.832,1.83203 v 8.01953 c 0,1.01529 -0.8167,1.83204 -1.832,1.83204 -1.0152,0 -1.834,-0.81675 -1.834,-1.83204 v -8.01953 c 0,-1.01528 0.8188,-1.83203 1.834,-1.83203 z m 8.5253,0 c 1.0154,0 1.8321,0.81675 1.8321,1.83203 v 8.01953 c 0,1.01529 -0.8167,1.83204 -1.8321,1.83204 -1.0153,0 -1.832,-0.81675 -1.832,-1.83204 v -8.01953 c 0,-1.01528 0.8167,-1.83203 1.832,-1.83203 z m 8.5254,0 c 1.0153,0 1.8321,0.81675 1.8321,1.83203 v 8.01953 c 0,1.01529 -0.8168,1.83204 -1.8321,1.83204 -1.0153,0 -1.832,-0.81675 -1.832,-1.83204 v -8.01953 c 0,-1.01528 0.8167,-1.83203 1.832,-1.83203 z m 8.5254,0 c 1.0153,0 1.834,0.81675 1.834,1.83203 v 8.01953 c 0,1.01529 -0.8187,1.83204 -1.834,1.83204 -1.0152,0 -1.832,-0.81675 -1.832,-1.83204 v -8.01953 c 0,-1.01528 0.8168,-1.83203 1.832,-1.83203 z" /></g></g></g><g
       id="text214"
       style="font-size:12.7px;font-family:Roboto;-inkscape-font-specification:Roboto;fill:#212121;stroke-width:0.264999"
       aria-label="Specify&#10;Experiment"><path
         style="text-align:center;text-anchor:middle"
         d="m 17.759513,103.14283 q 0,-0.63252 -0.434082,-1.00459 -0.434082,-0.37207 -1.711524,-0.74414 -1.339453,-0.39068 -2.133203,-0.99839 -0.79375,-0.613918 -0.79375,-1.668117 0,-1.0542 0.837158,-1.754932 0.84336,-0.700732 2.232422,-0.700732 1.525488,0 2.350244,0.837158 0.830957,0.837158 0.830957,1.891357 H 17.74711 q 0,-0.756543 -0.489892,-1.252637 -0.489893,-0.496093 -1.500684,-0.496093 -0.95498,0 -1.413867,0.421679 -0.458887,0.415479 -0.458887,1.041797 0,0.570508 0.496094,0.94878 0.502295,0.37827 1.618506,0.68833 1.531689,0.43408 2.244824,1.079 0.719336,0.64493 0.719336,1.69912 0,1.10381 -0.861963,1.76114 -0.861963,0.65732 -2.288232,0.65732 -0.830957,0 -1.618506,-0.31006 -0.781348,-0.31006 -1.289844,-0.91777 -0.502295,-0.61392 -0.502295,-1.51309 h 1.190625 q 0,0.92398 0.675928,1.34566 0.675928,0.42168 1.544092,0.42168 0.936377,0 1.438671,-0.38448 0.508497,-0.39067 0.508497,-1.04799 z m 5.618261,2.40605 q -1.209228,0 -1.916162,-0.77514 v 3.23081 h -1.153418 v -9.28936 h 1.0542 l 0.05581,0.73794 q 0.706934,-0.861963 1.940967,-0.861963 1.27124,0 1.947168,0.942578 0.675928,0.942575 0.675928,2.480465 v 0.13023 q 0,1.46968 -0.682129,2.43706 -0.675928,0.96738 -1.922364,0.96738 z m -0.353466,-5.99033 q -0.582911,0 -0.961182,0.26665 -0.378272,0.26045 -0.601514,0.65732 v 3.21221 q 0.229444,0.39688 0.601514,0.65733 0.378271,0.25424 0.973584,0.25424 0.930176,0 1.358057,-0.73173 0.434082,-0.73174 0.434082,-1.73013 v -0.13023 q 0,-0.99839 -0.434082,-1.72392 -0.427881,-0.73174 -1.370459,-0.73174 z m 9.729638,4.69429 q -0.328662,0.49609 -0.930176,0.89917 -0.601514,0.39687 -1.593701,0.39687 -1.401465,0 -2.244824,-0.91157 -0.837159,-0.91157 -0.837159,-2.33164 v -0.26045 q 0,-1.09761 0.415479,-1.86655 0.42168,-0.77515 1.091406,-1.178226 0.669727,-0.409277 1.42627,-0.409277 1.438672,0 2.095996,0.942578 0.663525,0.936375 0.663525,2.344045 v 0.5147 h -4.539258 q 0.0248,0.92397 0.545704,1.57509 0.527099,0.64492 1.444873,0.64492 0.607714,0 1.029394,-0.24804 0.42168,-0.24805 0.73794,-0.66353 z m -2.672705,-4.719095 q -0.682129,0 -1.153418,0.496095 -0.471289,0.49609 -0.589112,1.42627 h 3.354834 v -0.0868 q -0.04341,-0.66972 -0.390673,-1.25263 -0.341065,-0.582915 -1.221631,-0.582915 z m 6.784081,5.072555 q 0.613916,0 1.072803,-0.36587 0.465088,-0.36586 0.508496,-0.93637 h 1.091406 q -0.04341,0.89917 -0.824755,1.57509 -0.781348,0.66973 -1.84795,0.66973 -1.513086,0 -2.251025,-0.99839 -0.731738,-0.99839 -0.731738,-2.35024 v -0.26045 q 0,-1.35186 0.731738,-2.350245 0.737939,-0.998388 2.251025,-0.998388 1.178223,0 1.90376,0.700732 0.725537,0.694531 0.768945,1.730131 h -1.091406 q -0.04341,-0.62012 -0.471289,-1.054203 -0.42168,-0.434082 -1.11001,-0.434082 -0.706933,0 -1.110009,0.359668 -0.396875,0.359667 -0.564307,0.911577 -0.16123,0.5519 -0.16123,1.13481 v 0.26045 q 0,0.58911 0.16123,1.14101 0.16123,0.55191 0.558105,0.91158 0.403077,0.35346 1.116211,0.35346 z m 3.968752,-7.670846 q 0,-0.279053 0.167431,-0.471289 0.173633,-0.192236 0.508496,-0.192236 0.328662,0 0.502295,0.192236 0.179834,0.192236 0.179834,0.471289 0,0.26665 -0.179834,0.458887 -0.173633,0.186035 -0.502295,0.186035 -0.334863,0 -0.508496,-0.186035 -0.167431,-0.192237 -0.167431,-0.458887 z m 1.240234,1.779736 v 6.70967 H 40.92089 v -6.70967 z m 4.97954,0.880567 h -1.42627 v 5.829103 h -1.147217 v -5.829103 h -1.0604 V 98.71519 h 1.0604 v -0.706933 q 0,-1.085205 0.582911,-1.661914 0.589111,-0.576709 1.618505,-0.576709 0.378272,0 0.79375,0.09922 l -0.06201,0.936377 q -0.260449,-0.05581 -0.620117,-0.05581 -1.165821,0 -1.165821,1.258838 v 0.706933 h 1.42627 z m 3.565673,6.864693 q -0.124024,0.32867 -0.359668,0.71934 -0.235645,0.39687 -0.63252,0.67593 -0.390673,0.27905 -0.998388,0.27905 -0.142627,0 -0.353467,-0.0372 -0.204639,-0.031 -0.291455,-0.062 l -0.0062,-0.93017 q 0.136425,0.0248 0.310058,0.0248 0.58291,0 0.911572,-0.24185 0.328663,-0.23564 0.539502,-0.85576 l 0.248047,-0.68213 -2.393652,-6.63525 h 1.252637 l 1.680517,5.02295 1.556494,-5.02295 h 1.227832 z"
         id="path8" /><path
         style="text-align:center;text-anchor:middle"
         d="m 1.8225011,121.29986 v -9.02891 h 5.6740722 v 0.97979 H 3.0193272 v 2.90215 h 3.9067383 v 0.97358 H 3.0193272 v 3.1998 H 7.558585 v 0.97359 z m 7.8196776,-6.70967 1.4696773,2.44326 1.488282,-2.44326 h 1.345654 l -2.195215,3.31143 2.263428,3.39824 h -1.327051 l -1.550293,-2.51768 -1.5502928,2.51768 h -1.333252 l 2.2572268,-3.39824 -2.1890139,-3.31143 z m 8.5886233,6.83369 q -1.209229,0 -1.916162,-0.77515 v 3.23082 h -1.153418 v -9.28936 h 1.054199 l 0.05581,0.73794 q 0.706933,-0.86196 1.940966,-0.86196 1.271241,0 1.947168,0.94257 0.675928,0.94258 0.675928,2.48047 v 0.13023 q 0,1.46968 -0.682129,2.43706 -0.675928,0.96738 -1.922363,0.96738 z m -0.353467,-5.99033 q -0.58291,0 -0.961182,0.26665 -0.378271,0.26045 -0.601513,0.65732 v 3.21221 q 0.229443,0.39688 0.601513,0.65733 0.378272,0.25424 0.973584,0.25424 0.930176,0 1.358057,-0.73174 0.434082,-0.73173 0.434082,-1.73012 v -0.13023 q 0,-0.99839 -0.434082,-1.72392 -0.427881,-0.73174 -1.370459,-0.73174 z m 9.729639,4.69429 q -0.328662,0.49609 -0.930176,0.89917 -0.601514,0.39687 -1.593701,0.39687 -1.401465,0 -2.244824,-0.91157 -0.837159,-0.91157 -0.837159,-2.33164 v -0.26045 q 0,-1.09761 0.415479,-1.86655 0.42168,-0.77515 1.091406,-1.17823 0.669727,-0.40927 1.42627,-0.40927 1.438671,0 2.095996,0.94257 0.663525,0.93638 0.663525,2.34405 v 0.51469 h -4.539258 q 0.02481,0.92398 0.545703,1.5751 0.5271,0.64492 1.444873,0.64492 0.607715,0 1.029395,-0.24804 0.42168,-0.24805 0.737939,-0.66353 z m -2.672705,-4.7191 q -0.682129,0 -1.153418,0.4961 -0.471289,0.49609 -0.589112,1.42627 h 3.354834 v -0.0868 q -0.04341,-0.66973 -0.390674,-1.25264 -0.341064,-0.58291 -1.22163,-0.58291 z m 6.77788,0.16124 q -0.589111,0 -0.967383,0.26665 -0.378271,0.26044 -0.564306,0.70073 v 4.7625 h -1.147217 v -6.70967 h 1.116211 l 0.0248,0.76895 q 0.254249,-0.40928 0.644922,-0.65113 0.396875,-0.24184 0.94878,-0.24184 0.322461,0 0.508496,0.0868 l -0.0062,1.0666 q -0.254248,-0.0496 -0.558106,-0.0496 z m 1.630909,-2.75953 q 0,-0.27905 0.167431,-0.47129 0.173633,-0.19223 0.508496,-0.19223 0.328663,0 0.502295,0.19223 0.179834,0.19224 0.179834,0.47129 0,0.26665 -0.179834,0.45889 -0.173632,0.18604 -0.502295,0.18604 -0.334863,0 -0.508496,-0.18604 -0.167431,-0.19224 -0.167431,-0.45889 z m 1.240234,1.77974 v 6.70967 h -1.153418 v -6.70967 z m 4.526856,0.84336 q -0.613916,0 -0.985986,0.26045 -0.37207,0.26045 -0.558105,0.68833 v 4.91753 h -1.153418 v -6.70967 h 1.091406 l 0.03101,0.73174 q 0.725537,-0.85576 1.984375,-0.85576 0.644921,0 1.147216,0.26045 0.508496,0.25424 0.775147,0.81855 0.334863,-0.48369 0.868164,-0.78135 0.539502,-0.29765 1.265039,-0.29765 1.079004,0 1.661914,0.57671 0.589111,0.5767 0.589111,1.84794 v 4.40904 h -1.153418 v -4.42144 q 0,-0.84336 -0.390673,-1.14101 -0.384473,-0.30386 -1.041797,-0.30386 -0.694532,0 -1.091407,0.41548 -0.396875,0.40928 -0.458886,0.99839 v 4.45244 h -1.147217 v -4.41524 q 0,-0.78755 -0.390674,-1.11621 -0.390674,-0.33486 -1.041797,-0.33486 z m 13.760398,4.69429 q -0.328662,0.49609 -0.930175,0.89917 -0.601514,0.39687 -1.593702,0.39687 -1.401464,0 -2.244824,-0.91157 -0.837158,-0.91157 -0.837158,-2.33164 v -0.26045 q 0,-1.09761 0.415479,-1.86655 0.421679,-0.77515 1.091406,-1.17823 0.669726,-0.40927 1.426269,-0.40927 1.438672,0 2.095996,0.94257 0.663526,0.93638 0.663526,2.34405 v 0.51469 h -4.539258 q 0.02481,0.92398 0.545703,1.5751 0.5271,0.64492 1.444873,0.64492 0.607715,0 1.029395,-0.24804 0.421679,-0.24805 0.737939,-0.66353 z m -2.672705,-4.7191 q -0.682129,0 -1.153418,0.4961 -0.471289,0.49609 -0.589111,1.42627 h 3.354834 v -0.0868 q -0.04341,-0.66973 -0.390674,-1.25264 -0.341064,-0.58291 -1.221631,-0.58291 z m 6.883303,0.0248 q -0.551905,0 -0.973584,0.29766 -0.42168,0.29765 -0.663526,0.77514 v 4.79351 h -1.147217 v -6.70967 h 1.085206 l 0.03721,0.83716 q 0.762744,-0.96118 2.002978,-0.96118 0.992188,0 1.568897,0.5581 0.58291,0.55811 0.58291,1.87896 v 4.39663 h -1.153418 v -4.40904 q 0,-0.78754 -0.347266,-1.12241 -0.341064,-0.33486 -0.992187,-0.33486 z m 7.069337,5.86631 q -0.136426,0.0434 -0.359668,0.0806 -0.217041,0.0434 -0.527099,0.0434 -0.638721,0 -1.091407,-0.39067 -0.452685,-0.39068 -0.452685,-1.40147 v -4.16098 H 60.49179 v -0.88057 h 1.227832 v -1.63091 h 1.147217 v 1.63091 h 1.252636 v 0.88057 h -1.252636 v 4.16718 q 0,0.5147 0.223242,0.65733 0.223242,0.14262 0.514697,0.14262 0.142627,0 0.297656,-0.0248 0.161231,-0.031 0.241846,-0.0496 z"
         id="path9" /></g><g
       id="text214-0"
       style="font-size:12.7px;font-family:Roboto;-inkscape-font-specification:Roboto;fill:#212121;stroke-width:0.264999"
       aria-label="Collect&#10;Data"><path
         style="text-align:center;text-anchor:middle"
         d="m 96.97401,103.63958 h 1.190625 q -0.136426,1.28364 -0.967383,2.1394 -0.830957,0.85576 -2.455664,0.85576 -1.5875,0 -2.554883,-1.14101 -0.967383,-1.14722 -0.967383,-3.04478 v -0.89917 q 0,-1.897557 0.973584,-3.044773 0.979786,-1.147217 2.654102,-1.147217 1.531689,0 2.356445,0.843359 0.824756,0.843359 0.961182,2.176611 H 96.97401 q -0.136426,-0.942578 -0.607715,-1.488281 -0.471289,-0.551904 -1.519287,-0.551904 -1.196826,0 -1.816943,0.880566 -0.620118,0.880569 -0.620118,2.319239 v 0.91157 q 0,1.33325 0.564307,2.27583 0.564307,0.93638 1.767334,0.93638 1.141016,0 1.606104,-0.5333 0.471289,-0.5333 0.626318,-1.48828 z m 2.337842,-0.40928 v -0.14263 q 0,-1.45727 0.818558,-2.43086 0.81855,-0.979782 2.22622,-0.979782 1.42007,0 2.23862,0.979782 0.82476,0.97359 0.82476,2.43086 v 0.14263 q 0,1.45727 -0.82476,2.43086 -0.81855,0.97358 -2.22622,0.97358 -1.41387,0 -2.23862,-0.97358 -0.818558,-0.97359 -0.818558,-2.43086 z m 1.147218,-0.14263 v 0.14263 q 0,0.99839 0.47129,1.73013 0.47749,0.73173 1.43867,0.73173 0.94258,0 1.42007,-0.73173 0.47749,-0.73174 0.47749,-1.73013 v -0.14263 q 0,-0.98598 -0.47749,-1.72392 -0.47749,-0.74414 -1.43247,-0.74414 -0.94878,0 -1.42627,0.74414 -0.47129,0.73794 -0.47129,1.72392 z m 7.64604,-6.101951 v 9.525001 h -1.15341 v -9.525001 z m 3.08819,0 v 9.525001 h -1.15342 v -9.525001 z m 7.14995,8.352981 q -0.32866,0.49609 -0.93018,0.89917 -0.60151,0.39687 -1.5937,0.39687 -1.40146,0 -2.24482,-0.91157 -0.83716,-0.91157 -0.83716,-2.33164 v -0.26045 q 0,-1.09761 0.41548,-1.86655 0.42168,-0.77515 1.0914,-1.17822 0.66973,-0.409282 1.42627,-0.409282 1.43867,0 2.096,0.942582 0.66352,0.93637 0.66352,2.34404 v 0.5147 h -4.53925 q 0.0248,0.92397 0.5457,1.57509 0.5271,0.64493 1.44487,0.64493 0.60772,0 1.0294,-0.24805 0.42168,-0.24805 0.73794,-0.66353 z m -2.67271,-4.71909 q -0.68213,0 -1.15342,0.49609 -0.47128,0.49609 -0.58911,1.42627 h 3.35484 v -0.0868 q -0.0434,-0.66972 -0.39068,-1.25263 -0.34106,-0.58291 -1.22163,-0.58291 z m 6.78409,5.07255 q 0.61391,0 1.0728,-0.36586 0.46509,-0.36587 0.50849,-0.93638 h 1.09141 q -0.0434,0.89917 -0.82475,1.5751 -0.78135,0.66972 -1.84795,0.66972 -1.51309,0 -2.25103,-0.99839 -0.73174,-0.99838 -0.73174,-2.35024 v -0.26045 q 0,-1.35185 0.73174,-2.35024 0.73794,-0.998392 2.25103,-0.998392 1.17822,0 1.90376,0.700732 0.72553,0.69453 0.76894,1.73013 h -1.09141 q -0.0434,-0.62012 -0.47128,-1.0542 -0.42168,-0.43408 -1.11001,-0.43408 -0.70694,0 -1.11001,0.35966 -0.39688,0.35967 -0.56431,0.91158 -0.16123,0.5519 -0.16123,1.13481 v 0.26045 q 0,0.58911 0.16123,1.14102 0.16123,0.5519 0.55811,0.91157 0.40307,0.35346 1.11621,0.35346 z m 6.80268,0.81856 q -0.13643,0.0434 -0.35967,0.0806 -0.21704,0.0434 -0.5271,0.0434 -0.63872,0 -1.0914,-0.39067 -0.45269,-0.39067 -0.45269,-1.40147 v -4.16098 h -1.22783 v -0.880569 h 1.22783 v -1.630908 h 1.14722 v 1.630908 h 1.25263 v 0.880569 h -1.25263 v 4.16719 q 0,0.51469 0.22324,0.65732 0.22324,0.14263 0.5147,0.14263 0.14262,0 0.29765,-0.0248 0.16123,-0.031 0.24185,-0.0496 z"
         id="path10" /><path
         style="text-align:center;text-anchor:middle"
         d="m 97.9817,122.38572 v -9.02891 h 2.55488 q 1.77974,0 2.87735,1.14722 1.10381,1.14102 1.10381,3.10059 v 0.5395 q 0,1.95957 -1.11001,3.10058 -1.10381,1.14102 -2.98277,1.14102 z m 2.55488,-8.04912 h -1.358054 v 7.07554 h 1.246434 q 1.44488,0 2.17661,-0.89297 0.73174,-0.89297 0.73174,-2.37505 v -0.55191 q 0,-1.55649 -0.73174,-2.40605 -0.73173,-0.84956 -2.06499,-0.84956 z m 9.74824,8.04912 q -0.11162,-0.24185 -0.16123,-0.70693 -0.32246,0.34106 -0.80615,0.58911 -0.48369,0.24184 -1.10381,0.24184 -1.02939,0 -1.64951,-0.57671 -0.62012,-0.57671 -0.62012,-1.41386 0,-1.07901 0.81856,-1.63711 0.81855,-0.56431 2.20142,-0.56431 h 1.13481 v -0.5333 q 0,-0.59531 -0.35967,-0.94878 -0.35347,-0.35967 -1.0542,-0.35967 -0.65112,0 -1.0542,0.32246 -0.39687,0.31626 -0.39687,0.73794 h -1.14722 q 0,-0.71933 0.72554,-1.35185 0.72554,-0.63252 1.94097,-0.63252 1.0914,0 1.79213,0.5581 0.70074,0.55811 0.70074,1.68672 v 3.12539 q 0,0.33487 0.0558,0.71314 0.062,0.37827 0.17983,0.65112 v 0.0992 z m -1.90376,-0.88057 q 0.62012,0 1.07281,-0.31006 0.45888,-0.31005 0.64492,-0.68833 v -1.38286 h -0.94878 q -2.05259,0 -2.05259,1.24024 0,0.47749 0.32246,0.81235 0.32246,0.32866 0.96118,0.32866 z m 7.50962,0.88057 q -0.13642,0.0434 -0.35966,0.0806 -0.21705,0.0434 -0.5271,0.0434 -0.63872,0 -1.09141,-0.39067 -0.45269,-0.39068 -0.45269,-1.40147 v -4.16098 h -1.22783 v -0.88057 h 1.22783 v -1.63091 h 1.14722 v 1.63091 h 1.25264 v 0.88057 h -1.25264 v 4.16719 q 0,0.51469 0.22324,0.65732 0.22325,0.14263 0.5147,0.14263 0.14263,0 0.29766,-0.0248 0.16123,-0.031 0.24184,-0.0496 z m 5.45703,0 q -0.11162,-0.24185 -0.16123,-0.70693 -0.32246,0.34106 -0.80615,0.58911 -0.48369,0.24184 -1.10381,0.24184 -1.02939,0 -1.64951,-0.57671 -0.62012,-0.57671 -0.62012,-1.41386 0,-1.07901 0.81856,-1.63711 0.81855,-0.56431 2.20142,-0.56431 h 1.13481 v -0.5333 q 0,-0.59531 -0.35967,-0.94878 -0.35347,-0.35967 -1.0542,-0.35967 -0.65112,0 -1.0542,0.32246 -0.39687,0.31626 -0.39687,0.73794 h -1.14722 q 0,-0.71933 0.72554,-1.35185 0.72554,-0.63252 1.94097,-0.63252 1.0914,0 1.79213,0.5581 0.70074,0.55811 0.70074,1.68672 v 3.12539 q 0,0.33487 0.0558,0.71314 0.062,0.37827 0.17983,0.65112 v 0.0992 z m -1.90375,-0.88057 q 0.62011,0 1.0728,-0.31006 0.45888,-0.31005 0.64492,-0.68833 v -1.38286 h -0.94878 q -2.05259,0 -2.05259,1.24024 0,0.47749 0.32246,0.81235 0.32246,0.32866 0.96119,0.32866 z"
         id="path11" /></g><g
       id="text214-6"
       style="font-size:12.7px;font-family:Roboto;-inkscape-font-specification:Roboto;fill:#212121;stroke-width:0.264999"
       aria-label="Learn&#10;Model"><path
         style="text-align:center;text-anchor:middle"
         d="m 177.91075,105.14978 v 0.97359 h -5.47563 v -9.028909 h 1.19683 v 8.055319 z m 6.49883,-0.19843 q -0.32866,0.49609 -0.93017,0.89917 -0.60152,0.39687 -1.5937,0.39687 -1.40147,0 -2.24483,-0.91157 -0.83716,-0.91157 -0.83716,-2.33164 v -0.26045 q 0,-1.09761 0.41548,-1.86655 0.42168,-0.77515 1.09141,-1.178227 0.66972,-0.409277 1.42627,-0.409277 1.43867,0 2.09599,0.942574 0.66353,0.93638 0.66353,2.34405 v 0.51469 h -4.53926 q 0.0248,0.92398 0.5457,1.5751 0.5271,0.64492 1.44488,0.64492 0.60771,0 1.02939,-0.24804 0.42168,-0.24805 0.73794,-0.66353 z m -2.6727,-4.7191 q -0.68213,0 -1.15342,0.4961 -0.47129,0.49609 -0.58911,1.42627 h 3.35483 v -0.0868 q -0.0434,-0.66973 -0.39067,-1.25264 -0.34107,-0.58291 -1.22163,-0.58291 z m 8.24136,5.89112 q -0.11163,-0.24185 -0.16124,-0.70694 -0.32246,0.34107 -0.80615,0.58912 -0.48369,0.24184 -1.10381,0.24184 -1.02939,0 -1.64951,-0.57671 -0.62011,-0.57671 -0.62011,-1.41387 0,-1.079 0.81855,-1.6371 0.81855,-0.56431 2.20142,-0.56431 h 1.13481 v -0.5333 q 0,-0.59531 -0.35967,-0.94878 -0.35346,-0.35967 -1.0542,-0.35967 -0.65112,0 -1.0542,0.32246 -0.39687,0.31626 -0.39687,0.73794 h -1.14722 q 0,-0.71933 0.72554,-1.351854 0.72554,-0.63252 1.94097,-0.63252 1.0914,0 1.79213,0.558105 0.70074,0.558109 0.70074,1.686719 v 3.12539 q 0,0.33486 0.0558,0.71314 0.062,0.37827 0.17983,0.65112 v 0.0992 z m -1.90376,-0.88057 q 0.62011,0 1.0728,-0.31006 0.45889,-0.31006 0.64492,-0.68833 v -1.38286 h -0.94878 q -2.05259,0 -2.05259,1.24024 0,0.47749 0.32246,0.81235 0.32246,0.32866 0.96119,0.32866 z m 7.34838,-4.84932 q -0.58911,0 -0.96738,0.26665 -0.37827,0.26045 -0.5643,0.70074 v 4.7625 h -1.14722 v -6.709671 h 1.11621 l 0.0248,0.768941 q 0.25425,-0.409273 0.64493,-0.651118 0.39687,-0.241846 0.94878,-0.241846 0.32246,0 0.50849,0.08682 l -0.006,1.066598 q -0.25425,-0.0496 -0.55811,-0.0496 z m 4.40904,-0.13642 q -0.55191,0 -0.97359,0.29766 -0.42168,0.29765 -0.66352,0.77514 v 4.79351 h -1.14722 v -6.709671 h 1.08521 l 0.0372,0.837161 q 0.76275,-0.961184 2.00298,-0.961184 0.99219,0 1.5689,0.558105 0.58291,0.558109 0.58291,1.878959 v 4.39663 h -1.15342 v -4.40904 q 0,-0.78754 -0.34727,-1.12241 -0.34106,-0.33486 -0.99218,-0.33486 z"
         id="path12" /><path
         style="text-align:center;text-anchor:middle"
         d="m 175.17294,120.33025 2.95175,-7.36079 h 1.5379 v 9.02891 h -1.19063 v -3.52227 l 0.11782,-3.77651 -2.97036,7.29878 h -0.90537 l -2.96416,-7.31118 0.11782,3.78891 v 3.52227 h -1.19062 v -9.02891 h 1.53789 z m 6.11435,-1.6123 v -0.14263 q 0,-1.45728 0.81856,-2.43086 0.81855,-0.97978 2.22622,-0.97978 1.42007,0 2.23862,0.97978 0.82476,0.97358 0.82476,2.43086 v 0.14263 q 0,1.45727 -0.82476,2.43086 -0.81855,0.97358 -2.22622,0.97358 -1.41387,0 -2.23862,-0.97358 -0.81856,-0.97359 -0.81856,-2.43086 z m 1.14722,-0.14263 v 0.14263 q 0,0.99839 0.47129,1.73012 0.47749,0.73174 1.43867,0.73174 0.94258,0 1.42007,-0.73174 0.47749,-0.73173 0.47749,-1.73012 v -0.14263 q 0,-0.98599 -0.47749,-1.72393 -0.47749,-0.74414 -1.43247,-0.74414 -0.94878,0 -1.42627,0.74414 -0.47129,0.73794 -0.47129,1.72393 z m 10.72803,3.42305 -0.0558,-0.71934 q -0.68833,0.84336 -1.91617,0.84336 -1.18442,0 -1.91616,-0.96738 -0.72554,-0.96739 -0.72554,-2.43706 v -0.13023 q 0,-1.53789 0.72554,-2.48047 0.73174,-0.94257 1.92857,-0.94257 1.18442,0 1.86035,0.79375 v -3.48506 h 1.15342 v 9.525 z m -3.46026,-3.28042 q 0,0.99839 0.42168,1.71772 0.42168,0.71314 1.35186,0.71314 0.60151,0 0.97978,-0.27286 0.37827,-0.27285 0.60772,-0.70073 v -3.08818 q -0.22324,-0.41548 -0.60772,-0.68213 -0.37827,-0.27285 -0.96738,-0.27285 -0.93638,0 -1.36426,0.73174 -0.42168,0.72553 -0.42168,1.72392 z m 11.6024,2.1084 q -0.32867,0.49609 -0.93018,0.89917 -0.60151,0.39687 -1.5937,0.39687 -1.40147,0 -2.24483,-0.91157 -0.83715,-0.91157 -0.83715,-2.33164 v -0.26045 q 0,-1.09761 0.41547,-1.86655 0.42168,-0.77515 1.09141,-1.17823 0.66973,-0.40927 1.42627,-0.40927 1.43867,0 2.096,0.94257 0.66352,0.93638 0.66352,2.34405 v 0.51469 h -4.53926 q 0.0248,0.92398 0.54571,1.5751 0.5271,0.64492 1.44487,0.64492 0.60771,0 1.02939,-0.24804 0.42168,-0.24805 0.73794,-0.66353 z m -2.67271,-4.7191 q -0.68213,0 -1.15342,0.4961 -0.47129,0.49609 -0.58911,1.42627 h 3.35483 v -0.0868 q -0.0434,-0.66973 -0.39067,-1.25264 -0.34106,-0.58291 -1.22163,-0.58291 z m 5.34541,-3.63388 v 9.525 h -1.15342 v -9.525 z"
         id="path13" /></g><path
       style="font-size:12.7px;font-family:Roboto;-inkscape-font-specification:Roboto;text-align:center;text-anchor:middle;fill:#212121;stroke-width:0.264999"
       d="m 241.49146,114.44822 v -9.02891 h 5.67407 v 0.97979 h -4.47724 v 2.90215 h 3.90674 v 0.97358 h -3.90674 v 3.19981 h 4.53926 v 0.97358 z m 11.93106,-6.70967 -2.41226,6.70967 h -0.87437 l -2.43085,-6.70967 h 1.17822 l 1.70532,5.14077 1.66191,-5.14077 z m 5.15317,6.70967 q -0.11162,-0.24185 -0.16123,-0.70693 -0.32246,0.34106 -0.80615,0.58911 -0.48369,0.24184 -1.10381,0.24184 -1.0294,0 -1.64951,-0.57671 -0.62012,-0.57671 -0.62012,-1.41386 0,-1.07901 0.81855,-1.63711 0.81856,-0.56431 2.20142,-0.56431 h 1.13481 v -0.5333 q 0,-0.59531 -0.35966,-0.94878 -0.35347,-0.35967 -1.0542,-0.35967 -0.65113,0 -1.0542,0.32246 -0.39688,0.31626 -0.39688,0.73794 h -1.14721 q 0,-0.71933 0.72553,-1.35185 0.72554,-0.63252 1.94097,-0.63252 1.09141,0 1.79214,0.5581 0.70073,0.55811 0.70073,1.68672 v 3.12539 q 0,0.33487 0.0558,0.71314 0.062,0.37827 0.17984,0.65112 v 0.0992 z m -1.90376,-0.88057 q 0.62012,0 1.0728,-0.31006 0.45889,-0.31005 0.64492,-0.68833 v -1.38286 h -0.94877 q -2.05259,0 -2.05259,1.24024 0,0.47749 0.32246,0.81235 0.32246,0.32866 0.96118,0.32866 z m 5.91592,-8.64443 v 9.525 h -1.15342 v -9.525 z m 6.00273,9.525 -0.0248,-0.66353 q -0.31006,0.37207 -0.79375,0.58291 -0.48369,0.20464 -1.16582,0.20464 -0.98599,0 -1.5937,-0.58291 -0.60772,-0.58291 -0.60772,-1.92236 v -4.32842 h 1.14722 v 4.34082 q 0,0.90537 0.37827,1.21543 0.38447,0.30386 0.85576,0.30386 0.70073,0 1.12241,-0.26665 0.42168,-0.26665 0.62632,-0.70694 v -4.88652 h 1.15342 v 6.70967 z m 6.98252,0 q -0.11162,-0.24185 -0.16123,-0.70693 -0.32246,0.34106 -0.80615,0.58911 -0.48369,0.24184 -1.10381,0.24184 -1.02939,0 -1.64951,-0.57671 -0.62012,-0.57671 -0.62012,-1.41386 0,-1.07901 0.81856,-1.63711 0.81855,-0.56431 2.20141,-0.56431 h 1.13482 v -0.5333 q 0,-0.59531 -0.35967,-0.94878 -0.35347,-0.35967 -1.0542,-0.35967 -0.65112,0 -1.0542,0.32246 -0.39687,0.31626 -0.39687,0.73794 h -1.14722 q 0,-0.71933 0.72554,-1.35185 0.72553,-0.63252 1.94096,-0.63252 1.09141,0 1.79214,0.5581 0.70073,0.55811 0.70073,1.68672 v 3.12539 q 0,0.33487 0.0558,0.71314 0.062,0.37827 0.17984,0.65112 v 0.0992 z m -1.90376,-0.88057 q 0.62012,0 1.0728,-0.31006 0.45889,-0.31005 0.64493,-0.68833 v -1.38286 h -0.94878 q -2.05259,0 -2.05259,1.24024 0,0.47749 0.32246,0.81235 0.32246,0.32866 0.96118,0.32866 z m 7.50962,0.88057 q -0.13642,0.0434 -0.35967,0.0806 -0.21704,0.0434 -0.5271,0.0434 -0.63872,0 -1.0914,-0.39067 -0.45269,-0.39067 -0.45269,-1.40147 v -4.16098 h -1.22783 v -0.88057 h 1.22783 v -1.63091 h 1.14722 v 1.63091 h 1.25264 v 0.88057 h -1.25264 v 4.16719 q 0,0.51469 0.22324,0.65732 0.22324,0.14263 0.5147,0.14263 0.14263,0 0.29765,-0.0248 0.16124,-0.031 0.24185,-0.0496 z m 6.62285,-1.17202 q -0.32866,0.49609 -0.93017,0.89917 -0.60152,0.39687 -1.5937,0.39687 -1.40147,0 -2.24483,-0.91157 -0.83716,-0.91157 -0.83716,-2.33164 v -0.26045 q 0,-1.09761 0.41548,-1.86655 0.42168,-0.77515 1.09141,-1.17822 0.66973,-0.40928 1.42627,-0.40928 1.43867,0 2.09599,0.94258 0.66353,0.93637 0.66353,2.34404 v 0.5147 h -4.53926 q 0.0248,0.92397 0.5457,1.57509 0.5271,0.64493 1.44488,0.64493 0.60771,0 1.02939,-0.24805 0.42168,-0.24805 0.73794,-0.66353 z m -2.6727,-4.71909 q -0.68213,0 -1.15342,0.49609 -0.47129,0.49609 -0.58911,1.42627 h 3.35483 v -0.0868 q -0.0434,-0.66972 -0.39067,-1.25263 -0.34107,-0.58291 -1.22163,-0.58291 z"
       id="text214-4"
       aria-label="Evaluate" /><g
       id="text214-48"
       style="font-size:12.7px;font-family:Roboto;-inkscape-font-specification:Roboto;fill:#212121;stroke-width:0.264999"
       aria-label="Apply in&#10;Domain"><path
         style="text-align:center;text-anchor:middle"
         d="m 320.05465,106.70121 3.44165,-9.028906 h 1.048 l 3.45405,9.028906 h -1.22783 l -0.86196,-2.36265 h -3.77652 l -0.85576,2.36265 z m 2.43706,-3.34243 h 3.06338 l -1.53169,-4.210597 z m 9.60562,3.46645 q -1.20923,0 -1.91617,-0.77514 v 3.23081 h -1.15341 v -9.289358 h 1.0542 l 0.0558,0.737938 q 0.70693,-0.861961 1.94096,-0.861961 1.27124,0 1.94717,0.942581 0.67593,0.94257 0.67593,2.48047 v 0.13022 q 0,1.46968 -0.68213,2.43706 -0.67593,0.96738 -1.92236,0.96738 z m -0.35347,-5.99033 q -0.58291,0 -0.96118,0.26665 -0.37827,0.26045 -0.60152,0.65733 v 3.2122 q 0.22945,0.39688 0.60152,0.65733 0.37827,0.25425 0.97358,0.25425 0.93018,0 1.35806,-0.73174 0.43408,-0.73174 0.43408,-1.73013 v -0.13022 q 0,-0.99839 -0.43408,-1.72393 -0.42788,-0.73174 -1.37046,-0.73174 z m 7.48481,5.99033 q -1.20922,0 -1.91616,-0.77514 v 3.23081 h -1.15342 v -9.289358 h 1.0542 l 0.0558,0.737938 q 0.70694,-0.861961 1.94097,-0.861961 1.27124,0 1.94717,0.942581 0.67593,0.94257 0.67593,2.48047 v 0.13022 q 0,1.46968 -0.68213,2.43706 -0.67593,0.96738 -1.92237,0.96738 z m -0.35346,-5.99033 q -0.58291,0 -0.96118,0.26665 -0.37828,0.26045 -0.60152,0.65733 v 3.2122 q 0.22945,0.39688 0.60152,0.65733 0.37827,0.25425 0.97358,0.25425 0.93018,0 1.35806,-0.73174 0.43408,-0.73174 0.43408,-1.73013 v -0.13022 q 0,-0.99839 -0.43408,-1.72393 -0.42788,-0.73174 -1.37046,-0.73174 z m 5.66787,-3.65869 v 9.525 h -1.15342 v -9.525 z m 4.12998,10.5606 q -0.12402,0.32866 -0.35967,0.71933 -0.23564,0.39688 -0.63252,0.67593 -0.39067,0.27905 -0.99839,0.27905 -0.14262,0 -0.35346,-0.0372 -0.20464,-0.031 -0.29146,-0.062 l -0.006,-0.93017 q 0.13643,0.0248 0.31006,0.0248 0.58291,0 0.91157,-0.24184 0.32866,-0.23565 0.5395,-0.85577 l 0.24805,-0.68212 -2.39365,-6.635258 h 1.25263 l 1.68052,5.022948 1.5565,-5.022948 h 1.22783 z m 6.8771,-9.525004 q 0,-0.279053 0.16743,-0.471289 0.17363,-0.192237 0.5085,-0.192237 0.32866,0 0.50229,0.192237 0.17984,0.192236 0.17984,0.471289 0,0.26665 -0.17984,0.458887 -0.17363,0.186035 -0.50229,0.186035 -0.33487,0 -0.5085,-0.186035 -0.16743,-0.192237 -0.16743,-0.458887 z m 1.24023,1.779736 v 6.709668 h -1.15341 v -6.709668 z m 4.62608,0.843358 q -0.55191,0 -0.97359,0.29766 -0.42168,0.29765 -0.66352,0.77514 v 4.79351 h -1.14722 v -6.709668 h 1.0852 l 0.0372,0.837158 q 0.76275,-0.961181 2.00298,-0.961181 0.99219,0 1.5689,0.558101 0.58291,0.55811 0.58291,1.87896 v 4.39663 h -1.15342 v -4.40903 q 0,-0.78755 -0.34727,-1.12242 -0.34106,-0.33486 -0.99218,-0.33486 z"
         id="path14" /><path
         style="text-align:center;text-anchor:middle"
         d="m 321.50883,122.57621 v -9.02891 h 2.55488 q 1.77974,0 2.87734,1.14722 1.10381,1.14102 1.10381,3.10059 v 0.5395 q 0,1.95957 -1.11001,3.10058 -1.10381,1.14102 -2.98276,1.14102 z m 2.55488,-8.04912 h -1.35806 v 7.07554 h 1.24644 q 1.44487,0 2.17661,-0.89297 0.73174,-0.89297 0.73174,-2.37505 v -0.55191 q 0,-1.55649 -0.73174,-2.40605 -0.73174,-0.84956 -2.06499,-0.84956 z m 5.302,4.7687 v -0.14263 q 0,-1.45727 0.81855,-2.43086 0.81856,-0.97978 2.22623,-0.97978 1.42006,0 2.23862,0.97978 0.82475,0.97359 0.82475,2.43086 v 0.14263 q 0,1.45728 -0.82475,2.43086 -0.81856,0.97358 -2.22622,0.97358 -1.41387,0 -2.23863,-0.97358 -0.81855,-0.97358 -0.81855,-2.43086 z m 1.14722,-0.14263 v 0.14263 q 0,0.99839 0.47129,1.73013 0.47749,0.73174 1.43867,0.73174 0.94258,0 1.42007,-0.73174 0.47749,-0.73174 0.47749,-1.73013 v -0.14263 q 0,-0.98598 -0.47749,-1.72392 -0.47749,-0.74414 -1.43247,-0.74414 -0.94878,0 -1.42627,0.74414 -0.47129,0.73794 -0.47129,1.72392 z m 9.08471,-2.44326 q -0.61391,0 -0.98598,0.26045 -0.37207,0.26045 -0.55811,0.68833 v 4.91753 h -1.15342 v -6.70967 h 1.09141 l 0.031,0.73174 q 0.72553,-0.85576 1.98437,-0.85576 0.64492,0 1.14722,0.26045 0.50849,0.25425 0.77514,0.81855 0.33487,-0.48369 0.86817,-0.78135 0.5395,-0.29765 1.26504,-0.29765 1.079,0 1.66191,0.57671 0.58911,0.57671 0.58911,1.84795 v 4.40903 h -1.15342 v -4.42144 q 0,-0.84336 -0.39067,-1.14101 -0.38447,-0.30386 -1.0418,-0.30386 -0.69453,0 -1.0914,0.41548 -0.39688,0.40928 -0.45889,0.99839 v 4.45244 h -1.14722 v -4.41523 q 0,-0.78755 -0.39067,-1.11622 -0.39067,-0.33486 -1.0418,-0.33486 z m 12.59458,5.86631 q -0.11162,-0.24185 -0.16123,-0.70693 -0.32246,0.34106 -0.80615,0.58911 -0.48369,0.24184 -1.10381,0.24184 -1.02939,0 -1.64951,-0.57671 -0.62012,-0.5767 -0.62012,-1.41386 0,-1.07901 0.81856,-1.63711 0.81855,-0.56431 2.20141,-0.56431 h 1.13482 v -0.5333 q 0,-0.59531 -0.35967,-0.94878 -0.35347,-0.35967 -1.0542,-0.35967 -0.65112,0 -1.0542,0.32246 -0.39687,0.31626 -0.39687,0.73794 h -1.14722 q 0,-0.71933 0.72554,-1.35185 0.72553,-0.63252 1.94096,-0.63252 1.09141,0 1.79214,0.5581 0.70073,0.55811 0.70073,1.68672 v 3.12539 q 0,0.33487 0.0558,0.71314 0.062,0.37827 0.17983,0.65112 v 0.0992 z m -1.90376,-0.88057 q 0.62012,0 1.07281,-0.31006 0.45888,-0.31005 0.64492,-0.68833 v -1.38286 h -0.94878 q -2.05259,0 -2.05259,1.24024 0,0.47749 0.32246,0.81235 0.32246,0.32866 0.96118,0.32866 z m 4.67569,-7.60883 q 0,-0.27906 0.16743,-0.47129 0.17363,-0.19224 0.5085,-0.19224 0.32866,0 0.50229,0.19224 0.17983,0.19223 0.17983,0.47129 0,0.26665 -0.17983,0.45888 -0.17363,0.18604 -0.50229,0.18604 -0.33487,0 -0.5085,-0.18604 -0.16743,-0.19223 -0.16743,-0.45888 z m 1.24023,1.77973 v 6.70967 h -1.15342 v -6.70967 z m 4.62608,0.84336 q -0.55191,0 -0.97359,0.29766 -0.42168,0.29765 -0.66352,0.77514 v 4.79351 h -1.14722 v -6.70967 h 1.08521 l 0.0372,0.83716 q 0.76275,-0.96118 2.00298,-0.96118 0.99219,0 1.5689,0.5581 0.58291,0.55811 0.58291,1.87896 v 4.39663 h -1.15342 v -4.40903 q 0,-0.78755 -0.34727,-1.12242 -0.34106,-0.33486 -0.99218,-0.33486 z"
         id="path15" /></g></g></svg>
